<svg version="1.1" id="Layer_1" xmlns="http://www.w3.org/2000/svg" xmlns:xlink="http://www.w3.org/1999/xlink" x="0px" y="0px"
	 width="100%" viewBox="0 0 275 183" enable-background="new 0 0 275 183" xml:space="preserve">
<path fill="#F2E731" opacity="1.000000" stroke="none" 
	d="
M77.000000,184.000000 
	C76.250000,184.000000 75.500000,184.000000 74.540596,183.705475 
	C77.161842,178.740494 80.394043,174.262680 82.745155,169.362137 
	C88.916183,156.499527 86.128967,138.320007 76.658157,128.678497 
	C73.923782,127.648796 70.166519,128.173080 71.433685,123.530960 
	C71.537491,123.150673 70.862442,122.431923 70.403160,122.042999 
	C65.017845,117.482742 59.233288,113.711014 51.695351,112.741165 
	C50.263348,112.365486 49.102978,112.209335 47.501266,112.050934 
	C44.700745,112.063210 42.341564,112.077736 39.992477,111.829102 
	C40.010479,111.390556 40.018387,111.215172 40.416023,111.006546 
	C54.079498,107.914642 64.778397,101.563499 70.226395,87.904984 
	C73.164604,82.714920 75.359756,77.710808 72.967834,71.589111 
	C73.134644,68.546082 74.702812,65.759544 71.650726,63.477913 
	C70.983826,62.979366 71.417229,61.009865 71.342667,59.717876 
	C71.210449,57.426880 71.606766,54.942013 70.851227,52.879139 
	C67.865700,44.727638 61.050110,39.659775 54.979988,34.018822 
	C55.009045,33.990337 55.065086,33.933899 55.431446,33.943752 
	C59.872833,35.662251 63.947861,37.370899 68.302071,39.313187 
	C76.601898,42.707447 84.741158,42.651951 92.971230,40.483856 
	C97.791222,39.214092 101.873497,37.425049 100.428391,31.053719 
	C103.550003,30.965204 106.324829,30.965204 108.155746,30.965204 
	C108.155746,28.354410 107.313774,25.217127 108.480621,23.306944 
	C109.149734,22.211575 113.080315,23.108490 116.558800,23.108490 
	C120.590813,17.208450 123.124168,9.530518 123.000000,1.000000 
	C123.750000,1.000000 124.500000,1.000000 125.684570,1.354901 
	C129.039230,10.293224 135.109070,16.408779 142.270599,22.078543 
	C156.043961,29.842804 169.757568,31.380735 184.185425,23.874260 
	C194.176712,18.525703 200.319717,9.981270 206.000000,1.000000 
	C206.444336,1.000000 206.888672,1.000000 207.612946,1.345392 
	C205.881256,4.722418 204.029465,7.875659 201.831131,10.765257 
	C190.606155,25.519938 190.288559,44.272266 198.139084,57.308056 
	C199.342957,59.370316 200.408585,61.116745 201.474213,62.863171 
	C201.684540,62.358898 201.894882,61.854622 202.105225,61.350346 
	C204.586823,61.350346 207.371567,60.629318 209.480423,61.515915 
	C212.812820,62.916893 211.809967,65.815994 210.927383,68.752686 
	C210.619141,69.778343 212.910782,71.585373 214.249069,73.288193 
	C221.153900,75.789116 227.824783,78.037430 234.285339,80.214859 
	C226.286209,83.281700 218.572998,87.510368 213.745621,96.041504 
	C208.980362,100.916565 207.359528,106.704399 206.725937,113.221802 
	C206.142090,115.146568 204.934631,116.730858 208.153397,117.408134 
	C209.897583,117.775139 211.209015,120.198784 212.715668,121.694687 
	C211.115051,122.846687 209.524612,124.013275 207.907745,125.142006 
	C207.409698,125.489700 206.839539,125.734077 206.345306,126.002464 
	C206.390137,126.750168 206.355377,127.249672 206.457733,127.719284 
	C208.845856,138.676376 214.309616,147.580505 223.732193,153.940536 
	C224.517441,154.470551 224.635681,155.988739 224.748108,156.900162 
	C215.908234,149.651413 206.315552,145.681122 195.031067,147.014450 
	C187.621521,147.889954 180.195557,148.879471 174.498703,155.075150 
	C171.622787,155.820190 170.657852,157.205597 171.422821,159.948761 
	C172.403503,163.465469 170.293884,165.284241 167.165680,164.824799 
	C164.155121,164.382645 162.564575,165.650665 161.794846,167.926376 
	C160.004639,173.219345 158.575485,178.634415 157.000000,184.000000 
	C155.611008,184.000000 154.222000,184.000000 152.279205,183.683075 
	C147.463135,174.751831 141.334854,168.128708 131.768127,164.657654 
	C123.639893,160.580444 118.900772,160.004974 114.915077,162.617355 
	C116.089592,162.859879 117.092209,162.908264 117.960876,163.274429 
	C121.276588,164.672073 121.844170,167.552383 120.448860,170.245834 
	C118.995171,173.051941 116.277824,173.897049 113.341446,171.796570 
	C112.537300,171.221344 111.771538,170.592453 110.994431,169.994659 
	C111.000702,170.001114 111.011070,170.017075 111.009277,169.635468 
	C111.346176,167.350006 111.684868,165.446152 111.957390,163.914230 
	C106.223419,159.839859 101.179031,162.539490 96.019112,164.935333 
	C87.320129,168.974426 81.710861,176.021439 77.000000,184.000000 
M79.884132,101.115997 
	C79.884132,101.115997 79.967651,101.122414 80.142754,101.788513 
	C82.096001,103.197502 84.049255,104.606483 85.982574,106.650864 
	C85.991837,107.285263 86.001099,107.919655 86.010338,109.418716 
	C86.681427,112.703926 87.352509,115.989136 88.000885,120.085106 
	C88.757072,124.624702 89.513260,129.164307 90.141312,134.580811 
	C90.782356,134.735657 91.423401,134.890503 92.113541,134.945557 
	C92.113541,134.945557 92.032387,134.869507 91.278557,135.284393 
	C92.671059,136.611115 94.063560,137.937820 94.889259,139.680008 
	C93.660416,140.317261 92.431572,140.954514 90.886139,141.755936 
	C104.342941,149.103394 195.210800,148.756454 205.201309,141.083405 
	C191.350006,137.570557 177.793594,137.190414 164.302429,136.246277 
	C170.208847,133.459152 176.115265,130.672043 182.794647,128.028244 
	C193.032761,126.371407 197.507706,118.407234 194.067093,106.831429 
	C194.008072,106.553291 193.949036,106.275154 194.129349,105.262535 
	C194.781799,102.621582 195.892746,99.982780 195.905090,97.338844 
	C195.911880,95.883453 194.071259,94.419434 193.101151,92.184441 
	C192.212311,91.454872 191.244568,90.800766 190.455475,89.975800 
	C189.560181,89.039787 188.824768,87.950844 187.964142,86.183311 
	C187.652267,84.204651 187.340393,82.225983 187.625397,80.107483 
	C187.818542,80.040703 188.011673,79.973930 188.948410,79.888962 
	C190.076492,79.286621 191.204590,78.684280 192.718582,77.566170 
	C190.318161,74.357010 187.917740,71.147842 185.192429,67.250687 
	C184.757172,65.839096 184.321899,64.427505 184.441406,62.549618 
	C184.452042,60.688396 184.462677,58.827171 184.269455,56.237644 
	C182.131149,52.038700 179.956528,47.871784 174.943619,45.319431 
	C172.040359,43.822765 169.268341,41.940315 166.209885,40.899876 
	C155.957565,37.412209 145.457062,37.432545 134.788742,38.833981 
	C113.785263,41.593094 93.973846,53.319862 83.690491,70.263786 
	C83.437851,71.919075 83.185211,73.574364 82.596207,75.859406 
	C82.422295,77.805466 82.248390,79.751526 81.677467,82.130943 
	C80.112610,85.859245 82.993126,87.711815 84.651077,90.460251 
	C83.738968,91.513695 82.826859,92.567146 81.274651,93.926781 
	C81.451393,96.421654 75.168495,97.646507 79.884132,101.115997 
z"/>
<path fill="#FCD201" opacity="1.000000" stroke="none" 
	d="
M76.930923,128.900009 
	C86.128967,138.320007 88.916183,156.499527 82.745155,169.362137 
	C80.394043,174.262680 77.161842,178.740494 74.165596,183.705475 
	C49.666626,184.000000 25.333248,184.000000 1.000000,184.000000 
	C1.000000,180.251907 1.000000,176.605133 1.355076,172.437256 
	C13.793016,164.939865 25.875881,157.963577 38.339367,150.988571 
	C40.497456,149.698746 42.274921,148.407654 44.363884,147.055481 
	C45.480011,146.358307 46.284649,145.722229 47.448067,145.069061 
	C49.216507,144.348236 50.626167,143.644501 52.329071,142.815201 
	C53.794933,141.810165 54.967552,140.930679 56.444599,139.983887 
	C57.831421,139.266068 58.913815,138.615570 60.313129,137.840271 
	C62.742523,136.461975 64.854996,135.208496 67.108337,133.778534 
	C67.453514,133.377853 67.688202,133.192017 68.309311,132.994598 
	C71.420547,131.596451 74.175735,130.248230 76.930923,128.900009 
z"/>
<path fill="#FCD202" opacity="1.000000" stroke="none" 
	d="
M225.063828,157.047821 
	C224.635681,155.988739 224.517441,154.470551 223.732193,153.940536 
	C214.309616,147.580505 208.845856,138.676376 206.457733,127.719284 
	C206.355377,127.249672 206.390137,126.750168 206.345306,126.002464 
	C206.839539,125.734077 207.409698,125.489700 207.907745,125.142006 
	C209.524612,124.013275 211.115051,122.846687 212.715668,121.694687 
	C211.209015,120.198784 209.897583,117.775139 208.153397,117.408134 
	C204.934631,116.730858 206.142090,115.146568 207.109314,113.249405 
	C209.437714,113.334923 211.171326,113.655472 213.022385,114.311722 
	C214.939453,117.532646 217.366608,117.265244 220.254349,116.243988 
	C222.359726,116.975044 224.200943,117.473083 226.347565,118.166489 
	C228.760178,118.912682 230.867386,119.463493 233.309509,120.166962 
	C236.070831,120.897690 238.497253,121.475769 241.171692,122.271500 
	C242.267914,122.691658 243.116089,122.894165 244.254364,123.318138 
	C248.030258,124.367844 251.516037,125.196068 255.000656,126.009308 
	C254.999481,125.994324 254.971054,126.007492 255.228348,126.261185 
	C262.323761,128.676590 269.161865,130.838303 276.000000,133.000000 
	C276.000000,149.886902 276.000000,166.773804 276.000000,184.000000 
	C270.985901,184.000000 265.964172,184.000000 260.254669,183.748596 
	C248.065887,174.680740 236.564850,165.864288 225.063828,157.047821 
M240.287415,130.781067 
	C239.042221,133.446228 238.886780,136.141144 241.735413,137.644531 
	C243.262665,138.450546 245.893600,138.890671 247.118942,138.096191 
	C248.572113,137.154022 249.837967,134.686020 249.794220,132.913620 
	C249.681778,128.356308 245.295105,127.149872 240.287415,130.781067 
M235.612549,133.443817 
	C238.584610,129.398300 237.989624,125.601433 234.110519,125.194450 
	C232.428467,125.017975 230.192566,125.845795 228.972183,127.014915 
	C228.129288,127.822388 227.944580,130.916901 228.603088,131.383163 
	C230.377747,132.639771 232.761429,133.036285 235.612549,133.443817 
M218.471405,129.174011 
	C221.453568,130.625656 223.969147,129.936264 224.638245,126.703514 
	C224.952209,125.186592 223.888031,122.702080 222.624908,121.758774 
	C221.629410,121.015327 218.877487,121.366104 217.781372,122.280540 
	C215.592499,124.106606 215.601227,126.612312 218.471405,129.174011 
z"/>
<path fill="#FCD202" opacity="1.000000" stroke="none" 
	d="
M68.022888,39.079548 
	C63.947861,37.370899 59.872833,35.662251 55.365139,33.612762 
	C52.960079,31.840139 50.987682,30.408365 48.827259,28.756550 
	C48.104259,28.342924 47.569290,28.149338 46.984463,27.858299 
	C46.934605,27.760849 46.637909,27.768826 46.637909,27.768826 
	C46.637909,27.768826 46.962505,28.029045 47.154999,28.247906 
	C47.888168,28.654623 48.428848,28.842480 49.048187,29.354706 
	C51.068211,31.135151 53.009571,32.591228 54.950935,34.047306 
	C61.050110,39.659775 67.865700,44.727638 70.851227,52.879139 
	C71.606766,54.942013 71.210449,57.426880 71.342667,59.717876 
	C71.417229,61.009865 70.983826,62.979366 71.650726,63.477913 
	C74.702812,65.759544 73.134644,68.546082 72.613068,71.533646 
	C70.478981,71.237900 68.710503,70.605766 66.956573,69.562553 
	C67.261520,65.951401 66.960541,62.849602 63.043056,62.365360 
	C59.972778,61.985847 58.060654,63.720524 57.513054,66.985916 
	C55.760330,66.642693 54.371311,66.298569 52.985630,65.557396 
	C53.290585,61.786304 52.074390,59.094921 48.703075,58.295761 
	C45.074677,57.435661 43.487888,60.269215 41.765488,62.835136 
	C40.647068,62.460098 39.824753,62.215435 38.995659,61.581825 
	C37.470551,58.908401 36.304562,55.222118 34.336365,54.727409 
	C32.303455,54.216431 29.490770,56.807770 26.696232,58.016464 
	C25.942574,57.957790 25.511894,57.924591 25.056067,57.515991 
	C23.311144,54.827999 21.923527,51.100136 19.779118,50.596851 
	C17.590528,50.083199 14.658556,52.737000 11.773691,53.767292 
	C7.996898,52.353664 4.498449,51.176834 1.000000,50.000000 
	C1.000000,33.772831 1.000000,17.545658 1.000000,1.000000 
	C7.016672,1.000000 13.038960,1.000000 19.747116,1.251442 
	C28.573475,7.793808 36.764923,14.020176 44.839863,20.394144 
	C52.630089,26.543371 60.300079,32.844917 68.022888,39.079548 
M41.814007,49.279640 
	C43.677975,46.365692 43.158546,43.640724 40.304844,42.035103 
	C38.724659,41.146015 36.088776,40.741997 34.551567,41.457466 
	C31.354361,42.945560 29.994446,45.735737 32.166538,49.242405 
	C34.256065,52.615776 37.398144,52.848724 41.814007,49.279640 
M51.836861,46.487240 
	C46.757744,45.892700 43.367573,48.487507 44.793510,52.180504 
	C45.476955,53.950527 47.337772,56.151237 48.957489,56.424343 
	C50.562943,56.695038 53.799469,55.048904 54.062683,53.776424 
	C54.500275,51.660957 53.132862,49.172119 51.836861,46.487240 
M58.026073,56.438156 
	C58.259315,59.716290 60.230618,61.553936 63.230869,60.707954 
	C64.774223,60.272781 66.486122,57.991039 66.763153,56.318661 
	C66.967590,55.084492 65.248924,52.681408 63.900471,52.219372 
	C61.187878,51.289932 58.623688,52.118973 58.026073,56.438156 
z"/>
<path fill="#FCD201" opacity="1.000000" stroke="none" 
	d="
M198.000839,56.992222 
	C190.288559,44.272266 190.606155,25.519938 201.831131,10.765257 
	C204.029465,7.875659 205.881256,4.722418 207.946442,1.345392 
	C230.666687,1.000000 253.333374,1.000000 276.000000,1.000000 
	C276.000000,3.718182 276.000000,6.368042 275.704529,9.677622 
	C269.603394,13.862219 263.797760,17.387096 257.841187,20.599289 
	C255.515305,15.099808 252.190063,12.997756 247.905624,14.259626 
	C243.554993,15.540989 242.450974,18.950727 243.138840,22.867962 
	C243.455933,24.673719 244.972458,26.268852 245.676025,28.126480 
	C244.301102,28.868736 243.195282,29.444002 242.000214,29.665375 
	C239.111557,25.012804 235.565308,23.706352 232.084595,25.691412 
	C228.402954,27.791061 227.993530,31.886541 230.685043,37.123913 
	C229.287109,37.880291 228.162735,38.467381 226.855804,38.755104 
	C222.178940,34.153408 216.534058,34.671291 215.413300,39.672035 
	C214.975250,41.626610 215.791809,43.862366 215.757446,46.126938 
	C214.303345,47.190914 213.128723,48.098003 211.655518,48.825665 
	C209.043198,47.934563 206.425125,46.171963 204.480621,46.735126 
	C200.705566,47.828438 200.750122,51.574959 200.889740,55.184959 
	C199.781311,55.934635 198.891068,56.463428 198.000839,56.992222 
z"/>
<path fill="#FFBB34" opacity="1.000000" stroke="none" 
	d="
M56.140167,140.051178 
	C54.967552,140.930679 53.794933,141.810165 52.316307,142.440491 
	C50.855640,140.621552 49.925819,138.735260 48.417282,137.663620 
	C47.927635,137.315781 44.774040,139.203491 44.835831,139.888519 
	C44.996922,141.674286 46.263580,143.360321 47.089287,145.086136 
	C46.284649,145.722229 45.480011,146.358307 44.290844,146.699921 
	C40.928070,141.577103 37.829071,140.820511 36.159283,144.780548 
	C35.509140,146.322403 37.286900,148.888000 37.958748,150.987289 
	C25.875881,157.963577 13.793016,164.939865 1.355076,171.958069 
	C1.000000,156.645767 1.000000,141.291550 1.419068,125.479958 
	C17.232059,121.324165 32.625984,117.625725 48.357204,113.890793 
	C49.785332,113.556435 50.876163,113.258560 51.966991,112.960686 
	C59.233288,113.711014 65.017845,117.482742 70.403160,122.042999 
	C70.862442,122.431923 71.537491,123.150673 71.433685,123.530960 
	C70.166519,128.173080 73.923782,127.648796 76.658157,128.678497 
	C74.175735,130.248230 71.420547,131.596451 68.452682,132.671844 
	C69.431595,129.654266 68.364479,127.726814 65.636009,127.448204 
	C64.614975,127.343956 63.390659,129.230515 62.259022,130.209366 
	C63.828499,131.457916 65.397980,132.706467 66.967461,133.955002 
	C64.854996,135.208496 62.742523,136.461975 60.317879,137.463135 
	C59.101032,135.632309 58.392685,133.857178 57.150391,132.616791 
	C56.848732,132.315598 54.068188,133.519333 53.722767,134.491348 
	C53.306484,135.662796 54.173985,137.360992 54.687916,138.756729 
	C54.885624,139.293655 55.639626,139.625763 56.140167,140.051178 
M42.029945,132.432831 
	C43.877815,132.477341 45.829395,132.864883 47.510159,132.356705 
	C48.012314,132.204865 48.354446,129.143402 47.682915,128.149292 
	C46.990181,127.123787 43.939541,126.269508 43.712414,126.594116 
	C42.660786,128.097092 42.232422,130.036148 42.029945,132.432831 
M54.042461,123.243393 
	C52.725655,124.088829 50.791023,124.681137 50.305180,125.867004 
	C49.970837,126.683067 51.397648,128.685913 52.519680,129.449539 
	C53.139286,129.871201 55.743179,128.840546 55.746765,128.448975 
	C55.761738,126.813789 55.130207,125.172691 54.042461,123.243393 
M59.574047,120.065163 
	C59.510246,121.629944 59.148640,123.277992 59.549770,124.712791 
	C59.683899,125.192566 62.038502,125.631584 62.884377,125.174850 
	C63.792988,124.684219 64.121071,123.118462 64.702469,122.021851 
	C63.186676,121.231880 61.670883,120.441910 59.574047,120.065163 
z"/>
<path fill="#FFBB34" opacity="1.000000" stroke="none" 
	d="
M242.089447,30.019266 
	C243.195282,29.444002 244.301102,28.868736 246.051880,28.199268 
	C252.778671,29.614214 255.230820,28.052629 257.992126,20.911974 
	C263.797760,17.387096 269.603394,13.862219 275.704529,10.168671 
	C276.000000,25.354227 276.000000,40.708454 275.592468,56.533554 
	C254.794998,62.348137 234.405045,67.691856 214.015106,73.035576 
	C212.910782,71.585373 210.619141,69.778343 210.927383,68.752686 
	C211.809967,65.815994 212.812820,62.916893 209.480423,61.515915 
	C207.371567,60.629318 204.586823,61.350346 202.105225,61.350346 
	C201.894882,61.854622 201.684540,62.358898 201.474213,62.863171 
	C200.408585,61.116745 199.342957,59.370316 198.139084,57.308056 
	C198.891068,56.463428 199.781311,55.934635 201.198334,55.380257 
	C208.518982,59.116367 211.857986,57.043690 211.954117,49.005093 
	C213.128723,48.098003 214.303345,47.190914 216.078918,46.286530 
	C223.737183,49.520485 226.888779,47.319290 227.038361,39.054470 
	C228.162735,38.467381 229.287109,37.880291 231.050873,37.282837 
	C239.167358,39.048962 241.658401,37.311516 242.089447,30.019266 
M244.607346,39.106159 
	C244.164032,39.989529 243.198669,40.996658 243.373352,41.733540 
	C243.943375,44.138153 244.280701,47.339378 245.935959,48.538616 
	C247.621552,49.759834 251.533691,49.977055 253.061768,48.801758 
	C254.814331,47.453808 255.927017,44.004917 255.700562,41.622429 
	C255.256577,36.951569 250.419891,35.737427 244.607346,39.106159 
M241.007263,53.379288 
	C242.891068,49.279793 241.194687,46.531509 237.377716,45.191856 
	C233.681549,43.894611 229.631393,46.111401 229.488861,49.753269 
	C229.408295,51.812141 230.735001,54.607544 232.359390,55.904266 
	C235.377014,58.313198 238.280930,56.696178 241.007263,53.379288 
M216.199509,59.939068 
	C217.607132,62.645409 219.735535,65.162933 222.737122,63.289970 
	C224.662338,62.088646 226.544205,58.917377 226.349731,56.823841 
	C226.195541,55.163948 222.858826,52.573154 220.932785,52.570976 
	C217.402618,52.566982 215.522430,55.344833 216.199509,59.939068 
z"/>
<path fill="#FFBB34" opacity="1.000000" stroke="none" 
	d="
M224.748108,156.900162 
	C236.564850,165.864288 248.065887,174.680740 259.783447,183.748596 
	C239.979111,184.000000 219.958206,184.000000 199.315491,183.684189 
	C196.599319,179.529312 193.527756,179.348816 189.737152,180.843597 
	C189.005692,180.067947 188.494675,179.483643 188.169495,178.613373 
	C189.016937,176.161926 190.854553,172.829834 190.099976,172.069168 
	C188.430710,170.386398 185.458069,169.996567 182.787079,168.873840 
	C182.034088,167.782684 181.511063,166.897034 181.164124,165.712036 
	C183.996399,160.282379 182.547897,158.250641 175.911911,157.697632 
	C175.466690,156.611420 175.156906,155.816223 174.847122,155.021011 
	C180.195557,148.879471 187.621521,147.889954 195.031067,147.014450 
	C206.315552,145.681122 215.908234,149.651413 224.748108,156.900162 
z"/>
<path fill="#FCD202" opacity="1.000000" stroke="none" 
	d="
M48.019909,113.927292 
	C32.625984,117.625725 17.232059,121.324165 1.419068,125.011299 
	C1.000000,111.979103 1.000000,98.958214 1.443448,85.482430 
	C24.580561,86.074165 47.274223,87.120796 69.967888,88.167419 
	C64.778397,101.563499 54.079498,107.914642 40.006607,110.997536 
	C35.922668,111.728394 32.637882,112.435020 29.353092,113.141647 
	C29.449490,113.579460 29.545887,114.017281 29.642286,114.455093 
	C33.088985,113.667480 36.535683,112.879868 39.982384,112.092255 
	C42.341564,112.077736 44.700745,112.063210 47.521408,112.362778 
	C47.995232,113.093681 48.007568,113.510490 48.019909,113.927292 
M25.422363,114.839546 
	C25.523605,114.729454 25.706448,114.617447 25.703922,114.509796 
	C25.701214,114.394363 25.527975,114.189346 25.422537,114.185036 
	C24.712929,114.155991 24.001560,114.169907 23.290762,114.169907 
	C23.281971,114.361298 23.273178,114.552689 23.264387,114.744080 
	C23.831398,114.808548 24.398411,114.873016 25.422363,114.839546 
z"/>
<path fill="#FCD202" opacity="1.000000" stroke="none" 
	d="
M214.249069,73.288193 
	C234.405045,67.691856 254.794998,62.348137 275.592468,57.002213 
	C276.000000,70.354225 276.000000,83.708458 275.547028,97.517838 
	C254.742783,97.263359 234.391495,96.553719 214.040222,95.844078 
	C218.572998,87.510368 226.286209,83.281700 234.285339,80.214859 
	C227.824783,78.037430 221.153900,75.789116 214.249069,73.288193 
z"/>
<path fill="#FFBB34" opacity="1.000000" stroke="none" 
	d="
M68.302071,39.313187 
	C60.300079,32.844917 52.630089,26.543371 44.839863,20.394144 
	C36.764923,14.020176 28.573475,7.793808 20.216492,1.251442 
	C37.687561,1.000000 55.375122,1.000000 73.591339,1.365702 
	C75.804230,7.728653 79.951874,6.107304 84.185623,5.123192 
	C84.662422,5.886261 84.914871,6.439620 84.954285,7.304802 
	C84.469223,10.146718 83.371780,13.038393 84.257866,15.061187 
	C84.732758,16.145283 88.620621,15.734324 91.113678,16.272655 
	C91.849754,17.384037 92.440468,18.220795 92.877075,19.359497 
	C90.347710,25.206173 91.471054,26.784464 98.035965,27.358421 
	C98.760559,28.834538 99.421082,29.988384 100.081604,31.142233 
	C101.873497,37.425049 97.791222,39.214092 92.971230,40.483856 
	C84.741158,42.651951 76.601898,42.707447 68.302071,39.313187 
z"/>
<path fill="#FFBB34" opacity="1.000000" stroke="none" 
	d="
M70.226395,87.904984 
	C47.274223,87.120796 24.580561,86.074165 1.443448,85.013771 
	C1.000000,73.645775 1.000000,62.291546 1.000000,50.468658 
	C4.498449,51.176834 7.996898,52.353664 11.761698,54.165993 
	C11.587505,58.749874 13.634562,61.264511 17.082081,62.420540 
	C21.166380,63.790096 22.915297,60.309189 25.081215,57.891396 
	C25.511894,57.924591 25.942574,57.957790 26.699896,58.402908 
	C28.549191,61.089012 29.720448,64.753807 31.691885,65.251968 
	C33.722691,65.765137 36.533123,63.192970 39.002438,61.970772 
	C39.824753,62.215435 40.647068,62.460098 41.815273,63.194363 
	C44.914410,69.851768 47.324825,70.357521 52.982292,65.954437 
	C54.371311,66.298569 55.760330,66.642693 57.561569,67.355698 
	C60.157345,72.476128 61.369446,72.780098 66.942032,69.973633 
	C68.710503,70.605766 70.478981,71.237900 72.602219,71.925491 
	C75.359756,77.710808 73.164604,82.714920 70.226395,87.904984 
z"/>
<path fill="#FFBB34" opacity="1.000000" stroke="none" 
	d="
M213.745621,96.041504 
	C234.391495,96.553719 254.742783,97.263359 275.547028,97.986496 
	C276.000000,109.354225 276.000000,120.708458 276.000000,132.531342 
	C269.161865,130.838303 262.323761,128.676590 255.651291,126.257828 
	C256.980957,125.975372 258.168213,126.088959 259.304718,125.899010 
	C262.979584,125.284805 264.229309,122.781563 263.938141,119.376572 
	C263.623779,115.700439 261.089935,114.808609 257.913269,114.996399 
	C252.194046,115.334496 250.986496,119.938263 255.001831,126.024300 
	C251.516037,125.196068 248.030258,124.367844 244.645172,123.291901 
	C249.237839,121.930267 251.000473,119.227776 249.309418,115.747086 
	C247.914154,112.875275 245.687378,111.374344 242.428589,112.862175 
	C238.934982,114.457207 238.455505,117.630692 240.923660,122.053848 
	C238.497253,121.475769 236.070831,120.897690 233.484192,119.874725 
	C235.379883,116.948715 237.087769,114.079750 233.741928,111.766052 
	C232.280487,110.755440 228.822327,110.637154 227.685303,111.670280 
	C226.339951,112.892708 226.522110,115.796265 226.042160,117.971123 
	C224.200943,117.473083 222.359726,116.975044 220.415390,115.900345 
	C221.524490,112.192390 221.446121,109.077148 217.681458,108.352356 
	C213.690750,107.584045 212.955704,110.763878 212.904953,113.976013 
	C211.171326,113.655472 209.437714,113.334923 207.320709,112.986786 
	C207.359528,106.704399 208.980362,100.916565 213.745621,96.041504 
z"/>
<path fill="#FFBC34" opacity="1.000000" stroke="none" 
	d="
M183.851105,23.995821 
	C169.757568,31.380735 156.043961,29.842804 142.277618,21.634319 
	C142.311081,14.353154 142.655533,7.676577 143.000000,1.000000 
	C152.020889,1.000000 161.041794,1.000000 170.391357,1.323612 
	C169.470428,5.068911 171.210785,6.748032 174.309921,6.890718 
	C178.610931,7.088741 177.937149,3.710524 178.000000,1.000000 
	C184.021149,1.000000 190.042297,1.000000 196.479645,1.345924 
	C195.444138,4.055108 193.942413,6.389363 192.551071,8.787648 
	C189.620422,13.839254 186.747635,18.924423 183.851105,23.995821 
M160.303116,9.084301 
	C158.456497,9.393639 156.568100,9.578485 154.815109,10.166808 
	C154.591080,10.241993 154.650116,13.018807 155.320496,13.491871 
	C156.506699,14.328921 158.263596,14.357194 159.781662,14.723947 
	C160.106873,13.033854 160.432083,11.343761 160.303116,9.084301 
M174.839447,12.572978 
	C173.430237,11.755762 172.089081,10.571856 170.580170,10.291832 
	C169.926010,10.170432 168.184875,11.970278 168.250473,12.792733 
	C168.359482,14.159428 169.527786,15.441631 170.249924,16.759418 
	C171.787674,15.618660 173.325424,14.477903 174.839447,12.572978 
M165.510574,24.711691 
	C166.865906,25.172329 168.221237,25.632965 169.576569,26.093605 
	C169.983704,24.798727 170.869125,23.409210 170.637909,22.240639 
	C170.470322,21.393665 168.822876,20.839506 167.835342,20.154770 
	C166.969406,21.444574 166.103470,22.734379 165.510574,24.711691 
M157.844299,20.733049 
	C155.397095,19.576923 153.404694,20.029198 153.325684,22.933817 
	C153.299210,23.907797 155.233078,25.767092 156.293976,25.784121 
	C159.601624,25.837217 159.238297,23.542690 157.844299,20.733049 
z"/>
<path fill="#FFBC34" opacity="1.000000" stroke="none" 
	d="
M77.468658,184.000000 
	C81.710861,176.021439 87.320129,168.974426 96.019112,164.935333 
	C101.179031,162.539490 106.223419,159.839859 111.957390,163.914230 
	C111.684868,165.446152 111.346176,167.350006 110.713684,169.452469 
	C108.249313,169.035858 105.960991,167.726700 103.952660,168.067505 
	C102.761078,168.269714 101.207848,171.115341 101.290680,172.695145 
	C101.371719,174.240707 103.014481,176.291901 104.514717,177.058411 
	C108.106926,178.893692 110.826118,175.791306 110.988159,169.988190 
	C111.771538,170.592453 112.537300,171.221344 113.341446,171.796570 
	C116.277824,173.897049 118.995171,173.051941 120.448860,170.245834 
	C121.844170,167.552383 121.276588,164.672073 117.960876,163.274429 
	C117.092209,162.908264 116.089592,162.859879 114.915077,162.617355 
	C118.900772,160.004974 123.639893,160.580444 131.611862,165.050705 
	C131.140488,171.792328 130.570236,177.896164 130.000000,184.000000 
	C126.307091,184.000000 122.614182,184.000000 118.466187,183.610962 
	C118.106895,179.643524 115.864487,178.161713 112.788933,178.137222 
	C109.111732,178.107971 107.241188,180.374512 107.000000,184.000000 
	C97.312439,184.000000 87.624878,184.000000 77.468658,184.000000 
z"/>
<path fill="#FCD202" opacity="1.000000" stroke="none" 
	d="
M93.031181,19.057554 
	C92.440468,18.220795 91.849754,17.384037 91.273628,15.920403 
	C92.803207,9.076246 91.780235,7.688994 85.167328,6.992980 
	C84.914871,6.439620 84.662422,5.886261 84.248772,4.793686 
	C84.391716,3.169647 84.695854,2.084823 85.000000,1.000000 
	C87.700012,1.000000 90.400032,1.000000 93.560440,1.405159 
	C93.907913,5.657817 94.810013,9.318417 99.464188,8.674903 
	C103.565460,8.107836 104.116417,4.638036 103.000000,1.000000 
	C109.354401,1.000000 115.708794,1.000000 122.531601,1.000000 
	C123.124168,9.530518 120.590813,17.208450 116.558800,23.108490 
	C113.080315,23.108490 109.149734,22.211575 108.480621,23.306944 
	C107.313774,25.217127 108.155746,28.354410 108.155746,30.965204 
	C106.324829,30.965204 103.550003,30.965204 100.428391,31.053719 
	C99.421082,29.988384 98.760559,28.834538 98.295250,27.109249 
	C101.125481,21.005793 99.765976,19.143013 93.031181,19.057554 
M103.034622,11.216959 
	C102.286240,12.970959 101.144356,14.689888 100.983376,16.496237 
	C100.919090,17.217579 103.303596,19.023859 104.076859,18.777542 
	C105.831520,18.218607 108.343384,16.915590 108.636360,15.515248 
	C109.323326,12.231781 106.899742,10.952962 103.034622,11.216959 
z"/>
<path fill="#FCD202" opacity="1.000000" stroke="none" 
	d="
M174.498703,155.075150 
	C175.156906,155.816223 175.466690,156.611420 175.722672,158.002808 
	C175.449112,160.658875 174.376587,163.289871 175.260925,164.610321 
	C176.067993,165.815384 178.995224,165.600479 180.988037,166.011398 
	C181.511063,166.897034 182.034088,167.782684 182.630920,169.190613 
	C179.895355,175.668747 181.116470,177.793732 187.983658,178.899338 
	C188.494675,179.483643 189.005692,180.067947 189.609802,181.130157 
	C189.468613,182.405365 189.234314,183.202682 189.000000,184.000000 
	C187.285645,184.000000 185.571289,184.000000 183.428757,183.620605 
	C181.462723,181.847366 179.924850,180.453522 178.386993,179.059677 
	C176.924667,180.706451 175.462341,182.353226 174.000000,184.000000 
	C168.645065,184.000000 163.290146,184.000000 157.467606,184.000000 
	C158.575485,178.634415 160.004639,173.219345 161.794846,167.926376 
	C162.564575,165.650665 164.155121,164.382645 167.165680,164.824799 
	C170.293884,165.284241 172.403503,163.465469 171.422821,159.948761 
	C170.657852,157.205597 171.622787,155.820190 174.498703,155.075150 
M176.935089,170.517090 
	C175.178299,168.425980 172.969971,166.825272 170.691788,169.191833 
	C169.607803,170.317856 169.145279,172.926193 169.665237,174.424347 
	C170.060547,175.563248 173.355240,176.989639 173.791504,176.587341 
	C175.339844,175.159546 176.215927,173.002762 176.935089,170.517090 
z"/>
<path fill="#FCD202" opacity="1.000000" stroke="none" 
	d="
M130.468567,184.000000 
	C130.570236,177.896164 131.140488,171.792328 131.866989,165.295441 
	C141.334854,168.128708 147.463135,174.751831 151.862701,183.683075 
	C144.979050,184.000000 137.958099,184.000000 130.468567,184.000000 
z"/>
<path fill="#FCD202" opacity="1.000000" stroke="none" 
	d="
M142.532394,1.000000 
	C142.655533,7.676577 142.311081,14.353154 141.959595,21.473955 
	C135.109070,16.408779 129.039230,10.293224 126.059570,1.354901 
	C131.354935,1.000000 136.709854,1.000000 142.532394,1.000000 
z"/>
<path fill="#FCD203" opacity="1.000000" stroke="none" 
	d="
M184.185425,23.874260 
	C186.747635,18.924423 189.620422,13.839254 192.551071,8.787648 
	C193.942413,6.389363 195.444138,4.055108 196.947922,1.345924 
	C199.700012,1.000000 202.400024,1.000000 205.550018,1.000000 
	C200.319717,9.981270 194.176712,18.525703 184.185425,23.874260 
z"/>
<path fill="#F3E831" opacity="1.000000" stroke="none" 
	d="
M102.550018,1.000000 
	C104.116417,4.638036 103.565460,8.107836 99.464188,8.674903 
	C94.810013,9.318417 93.907913,5.657817 94.010414,1.405159 
	C96.700012,1.000000 99.400032,1.000000 102.550018,1.000000 
z"/>
<path fill="#F3E832" opacity="1.000000" stroke="none" 
	d="
M107.458069,184.000000 
	C107.241188,180.374512 109.111732,178.107971 112.788933,178.137222 
	C115.864487,178.161713 118.106895,179.643524 118.005554,183.610962 
	C114.638710,184.000000 111.277428,184.000000 107.458069,184.000000 
z"/>
<path fill="#F3E831" opacity="1.000000" stroke="none" 
	d="
M84.541931,1.000000 
	C84.695854,2.084823 84.391716,3.169647 84.024422,4.583975 
	C79.951874,6.107304 75.804230,7.728653 74.059998,1.365702 
	C77.361290,1.000000 80.722572,1.000000 84.541931,1.000000 
z"/>
<path fill="#F3E832" opacity="1.000000" stroke="none" 
	d="
M177.562500,1.000000 
	C177.937149,3.710524 178.610931,7.088741 174.309921,6.890718 
	C171.210785,6.748032 169.470428,5.068911 170.860016,1.323612 
	C173.041672,1.000000 175.083328,1.000000 177.562500,1.000000 
z"/>
<path fill="#F3E831" opacity="1.000000" stroke="none" 
	d="
M174.449982,184.000000 
	C175.462341,182.353226 176.924667,180.706451 178.386993,179.059677 
	C179.924850,180.453522 181.462723,181.847366 183.000290,183.620605 
	C180.299988,184.000000 177.599976,184.000000 174.449982,184.000000 
z"/>
<path fill="#F3E831" opacity="1.000000" stroke="none" 
	d="
M189.454117,184.000000 
	C189.234314,183.202682 189.468613,182.405365 189.830261,181.321472 
	C193.527756,179.348816 196.599319,179.529312 198.846832,183.684189 
	C195.969406,184.000000 192.938812,184.000000 189.454117,184.000000 
z"/>
<path fill="#E29A4B" opacity="1.000000" stroke="none" 
	d="
M184.473297,56.965950 
	C184.462677,58.827171 184.452042,60.688396 183.784363,62.786133 
	C182.638321,63.127705 182.149323,63.232758 181.315521,63.298157 
	C178.435440,63.871510 175.900146,64.484512 172.924606,64.945999 
	C170.681427,65.014091 168.850922,65.102257 167.079895,65.473900 
	C151.713516,68.698433 136.357803,71.973877 120.881989,74.858429 
	C118.843597,74.072792 116.856987,73.134087 115.014030,73.361191 
	C110.959320,73.860840 107.012146,75.303856 102.956177,75.704018 
	C98.330063,76.160423 93.633400,75.901711 89.140976,75.666199 
	C96.026489,71.483688 102.391998,66.726364 109.518547,63.863625 
	C127.343483,56.703346 146.327744,55.665615 165.544952,55.243023 
	C167.706192,57.625431 168.459396,61.859840 172.540237,60.451149 
	C174.415466,59.803825 175.695602,57.432568 177.648285,55.860722 
	C180.191727,56.240913 182.332520,56.603432 184.473297,56.965950 
M137.899353,66.085533 
	C145.449646,64.680504 152.999939,63.275482 160.550232,61.870457 
	C152.054245,60.152279 144.123474,61.209614 136.556091,65.992676 
	C136.383148,66.156708 136.210205,66.320732 136.037262,66.484756 
	C136.377548,66.349693 136.717850,66.214630 137.899353,66.085533 
z"/>
<path fill="#D1781D" opacity="1.000000" stroke="none" 
	d="
M165.293060,55.056156 
	C146.327744,55.665615 127.343483,56.703346 109.518547,63.863625 
	C102.391998,66.726364 96.026489,71.483688 88.758957,75.646248 
	C86.446426,75.685814 84.689499,75.457733 82.932571,75.229652 
	C83.185211,73.574364 83.437851,71.919075 83.868866,69.628922 
	C86.484550,66.604614 88.775162,64.039604 91.386093,61.857925 
	C99.941177,54.709328 109.207504,48.797680 120.133316,46.523098 
	C118.459335,50.393852 119.293808,51.119144 123.190178,50.465157 
	C132.146484,48.961876 141.173813,47.646873 150.225174,47.024994 
	C156.528900,46.591900 161.839386,49.431599 165.293060,55.056156 
z"/>
<path fill="#CE771D" opacity="1.000000" stroke="none" 
	d="
M182.021683,127.884926 
	C176.115265,130.672043 170.208847,133.459152 163.960205,136.520905 
	C163.056107,136.542236 162.494217,136.288910 161.496338,135.957748 
	C159.573883,135.991974 158.065201,135.977936 156.604324,136.235382 
	C139.152466,139.310852 121.585899,140.545242 103.934799,138.789520 
	C100.187248,138.416748 96.609093,136.340988 92.999649,134.622665 
	C93.432014,131.823883 91.338890,128.281998 96.257462,128.195602 
	C103.688461,129.630676 110.866096,130.801086 118.305405,132.251221 
	C127.508163,135.195709 136.276093,133.766754 144.956284,131.272430 
	C146.021973,130.966187 146.836487,129.785904 148.164398,128.948929 
	C152.553177,127.899345 156.676071,127.265594 160.508209,125.846565 
	C167.503494,123.256248 174.326599,120.200897 181.577362,117.229027 
	C183.426849,116.745491 184.920502,116.372452 188.039383,115.593513 
	C185.539154,120.369942 183.775558,123.739098 182.004303,127.302536 
	C181.996643,127.496834 182.021683,127.884926 182.021683,127.884926 
z"/>
<path fill="#F06611" opacity="1.000000" stroke="none" 
	d="
M161.932327,136.035599 
	C162.494217,136.288910 163.056107,136.542236 163.919464,136.872650 
	C177.793594,137.190414 191.350006,137.570557 205.201309,141.083405 
	C195.210800,148.756454 104.342941,149.103394 90.886139,141.755936 
	C92.431572,140.954514 93.660416,140.317261 95.490860,139.540146 
	C96.546074,139.600220 96.981438,139.879684 97.455956,139.988586 
	C113.257248,143.615067 129.149017,142.730865 144.974518,140.461823 
	C150.720551,139.637985 156.285019,137.547928 161.932327,136.035599 
z"/>
<path fill="#EAB22F" opacity="1.000000" stroke="none" 
	d="
M86.010361,108.554054 
	C86.001099,107.919655 85.991837,107.285263 86.409798,106.344315 
	C89.297409,105.370110 91.757805,104.702446 94.510765,103.986633 
	C95.546936,103.673401 96.290527,103.408310 97.335999,103.311768 
	C103.470009,104.287445 109.302155,105.094559 115.423576,106.044754 
	C116.477837,106.412842 117.242828,106.637840 118.421783,106.935654 
	C120.230255,106.927063 121.624748,106.845657 123.260986,106.824615 
	C123.502724,106.884979 123.964973,106.698830 124.405472,106.743561 
	C127.317039,106.919701 129.788116,107.051109 132.259186,107.182510 
	C131.894730,106.988693 131.530258,106.794884 131.165802,106.601074 
	C125.715630,111.847885 120.265450,117.094696 113.520042,123.588402 
	C111.713844,121.316093 109.491089,118.244308 106.962013,115.449753 
	C105.620224,113.967110 103.746773,112.965622 102.103355,111.818054 
	C102.093391,111.889175 102.236763,111.897926 102.520012,111.559036 
	C100.871323,110.515602 98.939392,109.811050 96.626602,109.028572 
	C92.839653,108.671135 89.590981,104.329048 86.010361,108.554054 
M117.391792,115.136017 
	C117.805756,114.507668 118.219719,113.879318 119.018219,112.667274 
	C115.694244,112.964142 113.099541,113.195877 109.676620,113.501587 
	C111.336136,115.849251 112.403831,117.359695 113.864380,119.425896 
	C115.197365,117.789558 116.075699,116.711334 117.391792,115.136017 
z"/>
<path fill="#181308" opacity="1.000000" stroke="none" 
	d="
M120.240379,46.175003 
	C109.207504,48.797680 99.941177,54.709328 91.386093,61.857925 
	C88.775162,64.039604 86.484550,66.604614 84.041809,69.154007 
	C93.973846,53.319862 113.785263,41.593094 134.788742,38.833981 
	C145.457062,37.432545 155.957565,37.412209 166.209885,40.899876 
	C169.268341,41.940315 172.040359,43.822765 174.926926,45.926228 
	C173.336105,45.953854 171.761963,45.374680 170.178864,44.807480 
	C170.169891,44.819458 170.154007,44.843174 170.019089,44.570869 
	C169.488892,44.250008 169.093613,44.201454 168.370544,43.980137 
	C151.807251,38.511581 135.887268,39.586296 120.240379,46.175003 
z"/>
<path fill="#F7BA71" opacity="1.000000" stroke="none" 
	d="
M182.011963,127.108246 
	C183.775558,123.739098 185.539154,120.369942 188.039383,115.593513 
	C184.920502,116.372452 183.426849,116.745491 181.189423,117.188385 
	C171.637726,119.941772 163.042603,123.652962 153.811340,122.581680 
	C156.303833,121.700134 158.597168,121.307686 160.666641,120.403122 
	C166.860474,117.695778 172.966721,114.788094 179.462189,111.881767 
	C183.228745,110.046890 186.640289,108.288879 190.428741,106.430298 
	C191.833755,106.218819 192.861877,106.107918 193.889984,105.997017 
	C193.949036,106.275154 194.008072,106.553291 194.105728,107.634567 
	C194.132095,117.281189 190.434280,123.729752 182.011963,127.108246 
z"/>
<path fill="#823305" opacity="1.000000" stroke="none" 
	d="
M86.010345,108.986389 
	C89.590981,104.329048 92.839653,108.671135 96.817665,109.305817 
	C99.005318,110.406631 100.621040,111.152283 102.236763,111.897926 
	C102.236763,111.897926 102.093391,111.889175 102.088257,112.179459 
	C104.496674,115.758331 106.910217,119.046913 109.729736,122.888657 
	C106.528786,122.888657 103.868050,122.888657 100.802475,122.931625 
	C96.272964,121.741180 92.148277,120.507767 88.023598,119.274345 
	C87.352509,115.989136 86.681427,112.703926 86.010345,108.986389 
z"/>
<path fill="#F8B96F" opacity="1.000000" stroke="none" 
	d="
M82.764389,75.544525 
	C84.689499,75.457733 86.446426,75.685814 88.585373,75.933838 
	C93.633400,75.901711 98.330063,76.160423 102.956177,75.704018 
	C107.012146,75.303856 110.959320,73.860840 115.014030,73.361191 
	C116.856987,73.134087 118.843597,74.072792 120.582649,75.065765 
	C113.011383,77.811287 105.622505,79.973724 97.816620,82.100739 
	C95.467812,82.427399 93.514282,82.701241 91.609016,83.170883 
	C88.202972,84.010475 84.829422,84.945892 82.074486,81.697586 
	C82.248390,79.751526 82.422295,77.805466 82.764389,75.544525 
z"/>
<path fill="#E6AF2E" opacity="1.000000" stroke="none" 
	d="
M188.019852,86.928391 
	C188.824768,87.950844 189.560181,89.039787 190.455475,89.975800 
	C191.244568,90.800766 192.212311,91.454872 193.225616,92.939163 
	C193.350098,96.488441 193.350098,99.282990 193.350098,101.129730 
	C190.488007,99.367424 187.671326,96.160439 185.218094,96.417809 
	C179.459656,97.021919 173.875076,99.283134 167.871140,100.827454 
	C162.341095,101.853195 157.160019,102.925133 151.902618,103.604736 
	C157.040573,101.210007 162.254868,99.207611 167.801651,97.192505 
	C169.422699,96.470299 170.711258,95.760796 172.323242,94.895439 
	C174.449615,93.976860 176.312958,93.329826 178.042648,92.426811 
	C181.408005,90.669876 184.698410,88.769417 188.019852,86.928391 
z"/>
<path fill="#140B02" opacity="1.000000" stroke="none" 
	d="
M161.496338,135.957748 
	C156.285019,137.547928 150.720551,139.637985 144.974518,140.461823 
	C129.149017,142.730865 113.257248,143.615067 97.455956,139.988586 
	C96.981438,139.879684 96.546074,139.600220 95.774261,139.332397 
	C94.063560,137.937820 92.671059,136.611115 91.883209,135.130707 
	C92.487862,134.977036 92.952896,135.049850 92.952896,135.049850 
	C96.609093,136.340988 100.187248,138.416748 103.934799,138.789520 
	C121.585899,140.545242 139.152466,139.310852 156.604324,136.235382 
	C158.065201,135.977936 159.573883,135.991974 161.496338,135.957748 
z"/>
<path fill="#A6BA26" opacity="1.000000" stroke="none" 
	d="
M97.034126,103.143211 
	C96.290527,103.408310 95.546936,103.673401 94.301025,103.644829 
	C91.492950,103.351166 89.187187,103.351166 86.892151,103.351166 
	C86.984795,102.349342 87.118561,100.902924 87.283005,99.124771 
	C84.410522,99.909172 82.189087,100.515793 79.967651,101.122414 
	C79.967651,101.122414 79.884132,101.115997 80.323898,100.933258 
	C79.905098,92.827911 87.607239,99.252594 89.443085,95.270126 
	C86.912102,94.715569 84.413422,94.168083 81.914749,93.620590 
	C82.826859,92.567146 83.738968,91.513695 85.103348,90.051620 
	C87.721680,88.102699 89.887749,86.562416 92.374634,85.155914 
	C93.797997,85.469810 94.900543,85.649925 96.315033,85.935150 
	C97.055397,86.133339 97.483833,86.226425 98.120308,86.526161 
	C98.883911,86.917793 99.439468,87.102776 99.984169,87.510605 
	C99.973312,87.733459 99.948715,88.179001 99.563339,88.133934 
	C97.866928,88.634140 95.916328,88.821556 95.371384,89.795479 
	C94.031776,92.189659 93.339020,94.945763 92.369514,97.601746 
	C95.921623,99.219513 95.921623,99.219513 100.826904,95.811096 
	C100.911125,95.904533 101.082977,96.088264 100.939835,96.374207 
	C99.919998,98.094574 99.043312,99.529007 98.031311,101.240158 
	C97.608704,102.058983 97.321419,102.601097 97.034126,103.143211 
z"/>
<path fill="#EC7353" opacity="1.000000" stroke="none" 
	d="
M187.992004,86.555855 
	C184.698410,88.769417 181.408005,90.669876 178.042648,92.426811 
	C176.312958,93.329826 174.449615,93.976860 171.936249,94.802536 
	C169.037018,95.533882 166.848175,96.202271 164.289993,96.866920 
	C159.932159,98.000130 155.943695,99.137077 151.703339,100.255035 
	C151.116150,100.246269 150.780838,100.256508 150.174652,100.087029 
	C150.462936,98.759827 151.022125,97.612343 151.660492,96.475571 
	C151.739670,96.486282 151.794235,96.638428 152.143051,96.721855 
	C153.319229,96.459274 154.146576,96.113266 155.276398,95.568581 
	C162.062683,92.904358 168.546509,90.438820 175.375519,87.843979 
	C179.965134,86.154396 185.552780,86.422981 186.428925,80.052612 
	C186.632431,80.105736 187.028519,80.247322 187.028519,80.247322 
	C187.340393,82.225983 187.652267,84.204651 187.992004,86.555855 
z"/>
<path fill="#F7BA71" opacity="1.000000" stroke="none" 
	d="
M92.999649,134.622665 
	C92.952896,135.049850 92.487862,134.977036 92.260124,134.923279 
	C92.032387,134.869507 92.113541,134.945557 92.014954,134.692749 
	C91.367401,134.194611 90.818428,133.949265 90.269455,133.703903 
	C89.513260,129.164307 88.757072,124.624702 88.012238,119.679726 
	C92.148277,120.507767 96.272964,121.741180 100.994637,123.036407 
	C101.852959,123.277504 101.995247,123.525238 102.157242,124.146088 
	C103.029503,125.374557 103.763008,126.298332 105.059334,127.930931 
	C101.391479,127.930931 98.697784,127.930931 96.004089,127.930931 
	C91.338890,128.281998 93.432014,131.823883 92.999649,134.622665 
z"/>
<path fill="#0E0A02" opacity="1.000000" stroke="none" 
	d="
M168.220123,100.873650 
	C173.875076,99.283134 179.459656,97.021919 185.218094,96.417809 
	C187.671326,96.160439 190.488007,99.367424 193.350098,101.129730 
	C193.350098,99.282990 193.350098,96.488441 193.206818,93.326599 
	C194.071259,94.419434 195.911880,95.883453 195.905090,97.338844 
	C195.892746,99.982780 194.781799,102.621582 194.009674,105.629776 
	C192.861877,106.107918 191.833755,106.218819 190.478180,106.013168 
	C188.906265,102.750610 189.384430,98.148880 183.570038,99.222458 
	C181.476227,99.521461 179.754776,99.835396 177.606476,100.110825 
	C174.193115,100.339432 171.206619,100.606544 168.220123,100.873650 
z"/>
<path fill="#A4B624" opacity="1.000000" stroke="none" 
	d="
M187.326965,80.177399 
	C187.028519,80.247322 186.632431,80.105736 186.293182,79.767288 
	C185.361649,79.259903 184.769379,79.090965 184.078125,78.643562 
	C183.656143,78.216362 183.333130,78.067619 183.017212,77.952316 
	C183.024307,77.985764 183.066635,77.932076 183.013641,77.618797 
	C181.971680,76.949638 180.982697,76.593758 179.785919,76.079178 
	C179.861847,75.476791 180.145599,75.033104 180.809021,74.506866 
	C185.235489,74.000320 185.309402,70.924789 185.517319,67.938683 
	C187.917740,71.147842 190.318161,74.357010 192.129578,77.825264 
	C190.428635,78.691956 189.316711,79.299553 188.204788,79.907150 
	C188.011673,79.973930 187.818542,80.040703 187.326965,80.177399 
z"/>
<path fill="#C9761F" opacity="1.000000" stroke="none" 
	d="
M170.187836,44.795506 
	C171.761963,45.374680 173.336105,45.953854 175.062134,46.251236 
	C179.956528,47.871784 182.131149,52.038700 184.371368,56.601799 
	C182.332520,56.603432 180.191727,56.240913 177.571442,55.509003 
	C174.790573,51.691570 172.489197,48.243538 170.187836,44.795506 
z"/>
<path fill="#131006" opacity="1.000000" stroke="none" 
	d="
M182.004303,127.302536 
	C190.434280,123.729752 194.132095,117.281189 194.189621,108.052734 
	C197.507706,118.407234 193.032761,126.371407 182.408173,127.956589 
	C182.021683,127.884926 181.996643,127.496834 182.004303,127.302536 
z"/>
<path fill="#D29042" opacity="1.000000" stroke="none" 
	d="
M92.053810,85.022125 
	C89.887749,86.562416 87.721680,88.102699 85.264893,89.793449 
	C82.993126,87.711815 80.112610,85.859245 81.875977,81.914261 
	C84.829422,84.945892 88.202972,84.010475 91.609016,83.170883 
	C93.514282,82.701241 95.467812,82.427399 97.645638,82.330696 
	C97.200577,82.889702 96.509468,83.183334 95.468994,83.579620 
	C94.097687,84.128883 93.075752,84.575508 92.053810,85.022125 
z"/>
<path fill="#0F1004" opacity="1.000000" stroke="none" 
	d="
M80.055206,101.455460 
	C82.189087,100.515793 84.410522,99.909172 87.283005,99.124771 
	C87.118561,100.902924 86.984795,102.349342 86.892151,103.351166 
	C89.187187,103.351166 91.492950,103.351166 94.008453,103.692978 
	C91.757805,104.702446 89.297409,105.370110 86.419762,106.026619 
	C84.049255,104.606483 82.096001,103.197502 80.055206,101.455460 
z"/>
<path fill="#150D03" opacity="1.000000" stroke="none" 
	d="
M185.354874,67.594681 
	C185.309402,70.924789 185.235489,74.000320 180.619003,74.224564 
	C179.923218,73.836456 179.797150,73.648087 179.939240,73.307419 
	C181.317078,72.078072 182.426758,71.001045 183.483459,69.556908 
	C181.161697,64.645279 178.435272,69.737236 175.956055,68.505386 
	C175.890198,67.953743 175.861755,67.733345 176.138718,67.347336 
	C178.180435,65.897125 181.942612,67.361649 181.660309,63.337807 
	C182.149323,63.232758 182.638321,63.127705 183.506989,63.019283 
	C184.321899,64.427505 184.757172,65.839096 185.354874,67.594681 
z"/>
<path fill="#0F1004" opacity="1.000000" stroke="none" 
	d="
M81.594696,93.773689 
	C84.413422,94.168083 86.912102,94.715569 89.443085,95.270126 
	C87.607239,99.252594 79.905098,92.827911 80.320633,100.891502 
	C75.168495,97.646507 81.451393,96.421654 81.594696,93.773689 
z"/>
<path fill="#F7DF1F" opacity="1.000000" stroke="none" 
	d="
M39.992477,111.829102 
	C36.535683,112.879868 33.088985,113.667480 29.642286,114.455093 
	C29.545887,114.017281 29.449490,113.579460 29.353092,113.141647 
	C32.637882,112.435020 35.922668,111.728394 39.616875,111.030777 
	C40.018387,111.215172 40.010479,111.390556 39.992477,111.829102 
z"/>
<path fill="#7C3808" opacity="1.000000" stroke="none" 
	d="
M188.576599,79.898056 
	C189.316711,79.299553 190.428635,78.691956 191.936615,78.083145 
	C191.204590,78.684280 190.076492,79.286621 188.576599,79.898056 
z"/>
<path fill="#F7DF1F" opacity="1.000000" stroke="none" 
	d="
M48.357204,113.890793 
	C48.007568,113.510490 47.995232,113.093681 47.962749,112.365036 
	C49.102978,112.209335 50.263348,112.365486 51.695351,112.741165 
	C50.876163,113.258560 49.785332,113.556435 48.357204,113.890793 
z"/>
<path fill="#140B02" opacity="1.000000" stroke="none" 
	d="
M90.205383,134.142365 
	C90.818428,133.949265 91.367401,134.194611 91.990410,134.742645 
	C91.423401,134.890503 90.782356,134.735657 90.205383,134.142365 
z"/>
<path fill="#F3E731" opacity="1.000000" stroke="none" 
	d="
M38.339363,150.988571 
	C37.286900,148.888000 35.509140,146.322403 36.159283,144.780548 
	C37.829071,140.820511 40.928070,141.577103 43.979355,146.761017 
	C42.274921,148.407654 40.497456,149.698746 38.339363,150.988571 
z"/>
<path fill="#F4E731" opacity="1.000000" stroke="none" 
	d="
M47.448067,145.069061 
	C46.263580,143.360321 44.996922,141.674286 44.835831,139.888519 
	C44.774040,139.203491 47.927635,137.315781 48.417282,137.663620 
	C49.925819,138.735260 50.855640,140.621552 52.023064,142.566040 
	C50.626167,143.644501 49.216507,144.348236 47.448067,145.069061 
z"/>
<path fill="#F4E632" opacity="1.000000" stroke="none" 
	d="
M56.444595,139.983887 
	C55.639626,139.625763 54.885624,139.293655 54.687916,138.756729 
	C54.173985,137.360992 53.306484,135.662796 53.722767,134.491348 
	C54.068188,133.519333 56.848732,132.315598 57.150391,132.616791 
	C58.392685,133.857178 59.101032,135.632309 60.000954,137.587952 
	C58.913815,138.615570 57.831421,139.266068 56.444595,139.983887 
z"/>
<path fill="#F4E532" opacity="1.000000" stroke="none" 
	d="
M67.108337,133.778534 
	C65.397980,132.706467 63.828499,131.457916 62.259022,130.209366 
	C63.390659,129.230515 64.614975,127.343956 65.636009,127.448204 
	C68.364479,127.726814 69.431595,129.654266 68.096626,132.721771 
	C67.688202,133.192017 67.453514,133.377853 67.108337,133.778534 
z"/>
<path fill="#F3E732" opacity="1.000000" stroke="none" 
	d="
M241.171692,122.271500 
	C238.455505,117.630692 238.934982,114.457207 242.428589,112.862175 
	C245.687378,111.374344 247.914154,112.875275 249.309418,115.747086 
	C251.000473,119.227776 249.237839,121.930267 244.355072,123.070427 
	C243.116089,122.894165 242.267914,122.691658 241.171692,122.271500 
z"/>
<path fill="#F3E830" opacity="1.000000" stroke="none" 
	d="
M240.484711,130.466705 
	C245.295105,127.149872 249.681778,128.356308 249.794220,132.913620 
	C249.837967,134.686020 248.572113,137.154022 247.118942,138.096191 
	C245.893600,138.890671 243.262665,138.450546 241.735413,137.644531 
	C238.886780,136.141144 239.042221,133.446228 240.484711,130.466705 
z"/>
<path fill="#F3E732" opacity="1.000000" stroke="none" 
	d="
M226.347565,118.166489 
	C226.522110,115.796265 226.339951,112.892708 227.685303,111.670280 
	C228.822327,110.637154 232.280487,110.755440 233.741928,111.766052 
	C237.087769,114.079750 235.379883,116.948715 233.149261,119.722076 
	C230.867386,119.463493 228.760178,118.912682 226.347565,118.166489 
z"/>
<path fill="#F3E830" opacity="1.000000" stroke="none" 
	d="
M235.257965,133.608978 
	C232.761429,133.036285 230.377747,132.639771 228.603088,131.383163 
	C227.944580,130.916901 228.129288,127.822388 228.972183,127.014915 
	C230.192566,125.845795 232.428467,125.017975 234.110519,125.194450 
	C237.989624,125.601433 238.584610,129.398300 235.257965,133.608978 
z"/>
<path fill="#F3E830" opacity="1.000000" stroke="none" 
	d="
M218.158234,128.965622 
	C215.601227,126.612312 215.592499,124.106606 217.781372,122.280540 
	C218.877487,121.366104 221.629410,121.015327 222.624908,121.758774 
	C223.888031,122.702080 224.952209,125.186592 224.638245,126.703514 
	C223.969147,129.936264 221.453568,130.625656 218.158234,128.965622 
z"/>
<path fill="#F3E831" opacity="1.000000" stroke="none" 
	d="
M213.022385,114.311722 
	C212.955704,110.763878 213.690750,107.584045 217.681458,108.352356 
	C221.446121,109.077148 221.524490,112.192390 220.151230,115.667328 
	C217.366608,117.265244 214.939453,117.532646 213.022385,114.311722 
z"/>
<path fill="#F3E831" opacity="1.000000" stroke="none" 
	d="
M25.056067,57.515991 
	C22.915297,60.309189 21.166380,63.790096 17.082081,62.420540 
	C13.634562,61.264511 11.587505,58.749874 12.040041,54.402786 
	C14.658556,52.737000 17.590528,50.083199 19.779118,50.596851 
	C21.923527,51.100136 23.311144,54.827999 25.056067,57.515991 
z"/>
<path fill="#F4E731" opacity="1.000000" stroke="none" 
	d="
M38.995659,61.581825 
	C36.533123,63.192970 33.722691,65.765137 31.691885,65.251968 
	C29.720448,64.753807 28.549191,61.089012 27.022877,58.428383 
	C29.490770,56.807770 32.303455,54.216431 34.336365,54.727409 
	C36.304562,55.222118 37.470551,58.908401 38.995659,61.581825 
z"/>
<path fill="#F3E830" opacity="1.000000" stroke="none" 
	d="
M41.597664,49.599487 
	C37.398144,52.848724 34.256065,52.615776 32.166538,49.242405 
	C29.994446,45.735737 31.354361,42.945560 34.551567,41.457466 
	C36.088776,40.741997 38.724659,41.146015 40.304844,42.035103 
	C43.158546,43.640724 43.677975,46.365692 41.597664,49.599487 
z"/>
<path fill="#F3E830" opacity="1.000000" stroke="none" 
	d="
M52.181248,46.663883 
	C53.132862,49.172119 54.500275,51.660957 54.062683,53.776424 
	C53.799469,55.048904 50.562943,56.695038 48.957489,56.424343 
	C47.337772,56.151237 45.476955,53.950527 44.793510,52.180504 
	C43.367573,48.487507 46.757744,45.892700 52.181248,46.663883 
z"/>
<path fill="#F4E731" opacity="1.000000" stroke="none" 
	d="
M52.985630,65.557388 
	C47.324825,70.357521 44.914410,69.851768 42.111374,63.324734 
	C43.487888,60.269215 45.074677,57.435661 48.703075,58.295761 
	C52.074390,59.094921 53.290585,61.786304 52.985630,65.557388 
z"/>
<path fill="#F3E831" opacity="1.000000" stroke="none" 
	d="
M66.956573,69.562553 
	C61.369446,72.780098 60.157345,72.476128 57.925274,67.354797 
	C58.060654,63.720524 59.972778,61.985847 63.043056,62.365360 
	C66.960541,62.849602 67.261520,65.951401 66.956573,69.562553 
z"/>
<path fill="#F3E831" opacity="1.000000" stroke="none" 
	d="
M58.050781,56.035591 
	C58.623688,52.118973 61.187878,51.289932 63.900471,52.219372 
	C65.248924,52.681408 66.967590,55.084492 66.763153,56.318661 
	C66.486122,57.991039 64.774223,60.272781 63.230869,60.707954 
	C60.230618,61.553936 58.259315,59.716290 58.050781,56.035591 
z"/>
<path fill="#F2E731" opacity="1.000000" stroke="none" 
	d="
M49.015289,28.976589 
	C50.987682,30.408365 52.960079,31.840139 54.998779,33.602905 
	C55.065086,33.933899 55.009045,33.990337 54.979988,34.018822 
	C53.009571,32.591228 51.068211,31.135151 49.060959,29.341730 
	C48.995068,29.004387 49.015289,28.976589 49.015289,28.976589 
z"/>
<path fill="#F2E731" opacity="1.000000" stroke="none" 
	d="
M47.034321,27.955750 
	C47.569290,28.149338 48.104259,28.342924 48.827259,28.756550 
	C49.015289,28.976589 48.995068,29.004387 48.982296,29.017361 
	C48.428848,28.842480 47.888168,28.654623 47.174141,28.230749 
	C47.000793,27.994732 47.034321,27.955751 47.034321,27.955750 
z"/>
<path fill="#F2E731" opacity="1.000000" stroke="none" 
	d="
M46.981651,28.011889 
	C46.962505,28.029045 46.637909,27.768826 46.637909,27.768826 
	C46.637909,27.768826 46.934605,27.760849 46.984463,27.858299 
	C47.034321,27.955751 47.000793,27.994732 46.981651,28.011889 
z"/>
<path fill="#F3E831" opacity="1.000000" stroke="none" 
	d="
M257.841187,20.599287 
	C255.230820,28.052629 252.778671,29.614214 246.320984,28.032278 
	C244.972458,26.268852 243.455933,24.673719 243.138840,22.867962 
	C242.450974,18.950727 243.554993,15.540989 247.905624,14.259626 
	C252.190063,12.997756 255.515305,15.099808 257.841187,20.599287 
z"/>
<path fill="#F3E932" opacity="1.000000" stroke="none" 
	d="
M242.000214,29.665375 
	C241.658401,37.311516 239.167358,39.048962 231.324432,37.113548 
	C227.993530,31.886541 228.402954,27.791061 232.084595,25.691412 
	C235.565308,23.706352 239.111557,25.012804 242.000214,29.665375 
z"/>
<path fill="#F3E831" opacity="1.000000" stroke="none" 
	d="
M226.855804,38.755104 
	C226.888779,47.319290 223.737183,49.520485 216.358414,46.129642 
	C215.791809,43.862366 214.975250,41.626610 215.413300,39.672035 
	C216.534058,34.671291 222.178940,34.153408 226.855804,38.755104 
z"/>
<path fill="#F3E831" opacity="1.000000" stroke="none" 
	d="
M211.655518,48.825665 
	C211.857986,57.043690 208.518982,59.116367 201.416534,55.159378 
	C200.750122,51.574959 200.705566,47.828438 204.480621,46.735126 
	C206.425125,46.171963 209.043198,47.934563 211.655518,48.825665 
z"/>
<path fill="#F3E732" opacity="1.000000" stroke="none" 
	d="
M41.805378,132.125916 
	C42.232422,130.036148 42.660786,128.097092 43.712414,126.594116 
	C43.939541,126.269508 46.990181,127.123787 47.682915,128.149292 
	C48.354446,129.143402 48.012314,132.204865 47.510159,132.356705 
	C45.829395,132.864883 43.877815,132.477341 41.805378,132.125916 
z"/>
<path fill="#F3E832" opacity="1.000000" stroke="none" 
	d="
M54.389069,123.388573 
	C55.130207,125.172691 55.761738,126.813789 55.746765,128.448975 
	C55.743179,128.840546 53.139286,129.871201 52.519680,129.449539 
	C51.397648,128.685913 49.970837,126.683067 50.305180,125.867004 
	C50.791023,124.681137 52.725655,124.088829 54.389069,123.388573 
z"/>
<path fill="#F4E632" opacity="1.000000" stroke="none" 
	d="
M59.864571,119.858551 
	C61.670883,120.441910 63.186676,121.231880 64.702469,122.021851 
	C64.121071,123.118462 63.792988,124.684219 62.884377,125.174850 
	C62.038502,125.631584 59.683899,125.192566 59.549770,124.712791 
	C59.148640,123.277992 59.510246,121.629944 59.864571,119.858551 
z"/>
<path fill="#F3E932" opacity="1.000000" stroke="none" 
	d="
M244.865845,38.805695 
	C250.419891,35.737427 255.256577,36.951569 255.700562,41.622429 
	C255.927017,44.004917 254.814331,47.453808 253.061768,48.801758 
	C251.533691,49.977055 247.621552,49.759834 245.935959,48.538616 
	C244.280701,47.339378 243.943375,44.138153 243.373352,41.733540 
	C243.198669,40.996658 244.164032,39.989529 244.865845,38.805695 
z"/>
<path fill="#F3E732" opacity="1.000000" stroke="none" 
	d="
M240.770050,53.673607 
	C238.280930,56.696178 235.377014,58.313198 232.359390,55.904266 
	C230.735001,54.607544 229.408295,51.812141 229.488861,49.753269 
	C229.631393,46.111401 233.681549,43.894611 237.377716,45.191856 
	C241.194687,46.531509 242.891068,49.279793 240.770050,53.673607 
z"/>
<path fill="#F4E732" opacity="1.000000" stroke="none" 
	d="
M216.122589,59.552052 
	C215.522430,55.344833 217.402618,52.566982 220.932785,52.570976 
	C222.858826,52.573154 226.195541,55.163948 226.349731,56.823841 
	C226.544205,58.917377 224.662338,62.088646 222.737122,63.289970 
	C219.735535,65.162933 217.607132,62.645409 216.122589,59.552052 
z"/>
<path fill="#F3E831" opacity="1.000000" stroke="none" 
	d="
M188.169495,178.613373 
	C181.116470,177.793732 179.895355,175.668747 182.860901,169.396149 
	C185.458069,169.996567 188.430710,170.386398 190.099976,172.069168 
	C190.854553,172.829834 189.016937,176.161926 188.169495,178.613373 
z"/>
<path fill="#F4E730" opacity="1.000000" stroke="none" 
	d="
M181.164124,165.712036 
	C178.995224,165.600479 176.067993,165.815384 175.260925,164.610321 
	C174.376587,163.289871 175.449112,160.658875 175.858109,158.293808 
	C182.547897,158.250641 183.996399,160.282379 181.164124,165.712036 
z"/>
<path fill="#F7DF1F" opacity="1.000000" stroke="none" 
	d="
M25.193893,114.888519 
	C24.398411,114.873016 23.831398,114.808548 23.264387,114.744080 
	C23.273178,114.552689 23.281971,114.361298 23.290762,114.169907 
	C24.001560,114.169907 24.712929,114.155991 25.422537,114.185036 
	C25.527975,114.189346 25.701214,114.394363 25.703922,114.509796 
	C25.706448,114.617447 25.523605,114.729454 25.193893,114.888519 
z"/>
<path fill="#F4E731" opacity="1.000000" stroke="none" 
	d="
M84.954285,7.304801 
	C91.780235,7.688994 92.803207,9.076246 91.128265,15.645779 
	C88.620621,15.734324 84.732758,16.145283 84.257866,15.061187 
	C83.371780,13.038393 84.469223,10.146718 84.954285,7.304801 
z"/>
<path fill="#F3E831" opacity="1.000000" stroke="none" 
	d="
M92.877075,19.359497 
	C99.765976,19.143013 101.125481,21.005793 98.231186,26.786980 
	C91.471054,26.784464 90.347710,25.206173 92.877075,19.359497 
z"/>
<path fill="#F3E832" opacity="1.000000" stroke="none" 
	d="
M255.000656,126.009308 
	C250.986496,119.938263 252.194046,115.334496 257.913269,114.996399 
	C261.089935,114.808609 263.623779,115.700439 263.938141,119.376572 
	C264.229309,122.781563 262.979584,125.284805 259.304718,125.899010 
	C258.168213,126.088959 256.980957,125.975372 255.393997,126.004128 
	C254.971054,126.007492 254.999481,125.994324 255.000656,126.009308 
z"/>
<path fill="#F4E632" opacity="1.000000" stroke="none" 
	d="
M160.530212,9.368985 
	C160.432083,11.343761 160.106873,13.033854 159.781662,14.723946 
	C158.263596,14.357194 156.506699,14.328921 155.320496,13.491871 
	C154.650116,13.018807 154.591080,10.241993 154.815109,10.166808 
	C156.568100,9.578485 158.456497,9.393639 160.530212,9.368985 
z"/>
<path fill="#F3E832" opacity="1.000000" stroke="none" 
	d="
M174.851318,12.955062 
	C173.325424,14.477903 171.787674,15.618660 170.249924,16.759418 
	C169.527786,15.441631 168.359482,14.159428 168.250473,12.792733 
	C168.184875,11.970278 169.926010,10.170432 170.580170,10.291832 
	C172.089081,10.571856 173.430237,11.755762 174.851318,12.955062 
z"/>
<path fill="#F4E632" opacity="1.000000" stroke="none" 
	d="
M165.374054,24.367939 
	C166.103470,22.734379 166.969406,21.444574 167.835342,20.154772 
	C168.822876,20.839506 170.470322,21.393665 170.637909,22.240639 
	C170.869125,23.409210 169.983704,24.798727 169.576569,26.093605 
	C168.221237,25.632965 166.865906,25.172329 165.374054,24.367939 
z"/>
<path fill="#F3E732" opacity="1.000000" stroke="none" 
	d="
M158.114304,21.014360 
	C159.238297,23.542690 159.601624,25.837217 156.293976,25.784121 
	C155.233078,25.767092 153.299210,23.907797 153.325684,22.933817 
	C153.404694,20.029198 155.397095,19.576923 158.114304,21.014360 
z"/>
<path fill="#F3E832" opacity="1.000000" stroke="none" 
	d="
M110.994431,169.994659 
	C110.826118,175.791306 108.106926,178.893692 104.514717,177.058411 
	C103.014481,176.291901 101.371719,174.240707 101.290680,172.695145 
	C101.207848,171.115341 102.761078,168.269714 103.952660,168.067505 
	C105.960991,167.726700 108.249313,169.035858 110.715477,169.834076 
	C111.011070,170.017075 111.000702,170.001114 110.994431,169.994659 
z"/>
<path fill="#F3E931" opacity="1.000000" stroke="none" 
	d="
M103.408905,11.139170 
	C106.899742,10.952962 109.323326,12.231781 108.636360,15.515248 
	C108.343384,16.915590 105.831520,18.218607 104.076859,18.777542 
	C103.303596,19.023859 100.919090,17.217579 100.983376,16.496237 
	C101.144356,14.689888 102.286240,12.970959 103.408905,11.139170 
z"/>
<path fill="#F3E830" opacity="1.000000" stroke="none" 
	d="
M177.140884,170.819611 
	C176.215927,173.002762 175.339844,175.159546 173.791504,176.587341 
	C173.355240,176.989639 170.060547,175.563248 169.665237,174.424347 
	C169.145279,172.926193 169.607803,170.317856 170.691788,169.191833 
	C172.969971,166.825272 175.178299,168.425980 177.140884,170.819611 
z"/>
<path fill="#FBBE73" opacity="1.000000" stroke="none" 
	d="
M170.178864,44.807480 
	C172.489197,48.243538 174.790573,51.691570 177.168762,55.491325 
	C175.695602,57.432568 174.415466,59.803825 172.540237,60.451149 
	C168.459396,61.859840 167.706192,57.625431 165.544952,55.243023 
	C161.839386,49.431599 156.528900,46.591900 150.225174,47.024994 
	C141.173813,47.646873 132.146484,48.961876 123.190178,50.465157 
	C119.293808,51.119144 118.459335,50.393852 120.133316,46.523098 
	C135.887268,39.586296 151.807251,38.511581 168.561981,44.193634 
	C169.438797,44.667656 169.796402,44.755413 170.154007,44.843174 
	C170.154007,44.843174 170.169891,44.819458 170.178864,44.807480 
z"/>
<path fill="#120C06" opacity="1.000000" stroke="none" 
	d="
M95.818375,83.476967 
	C96.509468,83.183334 97.200577,82.889702 98.062653,82.366119 
	C105.622505,79.973724 113.011383,77.811287 120.699593,75.441513 
	C136.357803,71.973877 151.713516,68.698433 167.079895,65.473900 
	C168.850922,65.102257 170.681427,65.014091 172.620285,65.207184 
	C167.640671,66.950951 162.525116,68.282028 157.409576,69.613106 
	C157.506317,70.050385 157.603073,70.487663 157.699814,70.924942 
	C162.812653,70.295349 167.925491,69.665756 172.888275,69.369888 
	C170.853943,70.269638 168.969635,70.835655 166.690735,71.380386 
	C163.398972,71.867073 160.501816,72.375069 157.608032,72.882469 
	C157.608032,74.751572 157.608032,76.203094 157.249832,77.557503 
	C155.777390,75.622955 154.984375,73.219749 152.013794,74.326172 
	C152.023148,73.735901 152.015732,73.500931 152.331161,73.125847 
	C153.639511,72.484161 154.625015,71.982590 155.610519,71.481026 
	C155.402939,71.048599 155.195374,70.616173 154.987793,70.183739 
	C148.823303,71.597580 142.645203,72.957657 136.515152,74.507751 
	C135.896744,74.664124 135.568680,75.968712 135.176208,77.028786 
	C135.488708,77.859146 135.730865,78.401169 135.779999,79.183075 
	C135.012283,79.930847 134.437576,80.438736 133.674072,80.676468 
	C133.534775,79.573433 133.584244,78.740562 133.554047,77.497223 
	C132.345428,76.806747 131.111450,76.084312 130.105667,76.323074 
	C125.681984,77.373222 121.324188,78.700905 116.526970,79.917465 
	C110.082069,81.593300 104.052704,83.279678 97.996223,85.304474 
	C97.950157,85.868431 97.931206,86.093971 97.912262,86.319511 
	C97.483833,86.226425 97.055397,86.133339 96.296280,85.542236 
	C95.916519,84.521797 95.867447,83.999382 95.818375,83.476967 
z"/>
<path fill="#057E3C" opacity="1.000000" stroke="none" 
	d="
M173.038330,69.036163 
	C167.925491,69.665756 162.812653,70.295349 157.699814,70.924942 
	C157.603073,70.487663 157.506317,70.050385 157.409576,69.613106 
	C162.525116,68.282028 167.640671,66.950951 173.060532,65.358688 
	C175.900146,64.484512 178.435440,63.871510 181.315521,63.298157 
	C181.942612,67.361649 178.180435,65.897125 175.810547,67.446655 
	C174.455170,68.158302 173.733383,68.605019 173.006836,69.028015 
	C173.002106,69.004311 173.038330,69.036163 173.038330,69.036163 
z"/>
<path fill="#FDBD72" opacity="1.000000" stroke="none" 
	d="
M136.929993,65.928474 
	C144.123474,61.209614 152.054245,60.152279 160.550232,61.870457 
	C152.999939,63.275482 145.449646,64.680504 137.447723,66.043915 
	C136.996109,66.002296 136.929993,65.928474 136.929993,65.928474 
z"/>
<path fill="#FDBD72" opacity="1.000000" stroke="none" 
	d="
M137.027130,66.040932 
	C136.717850,66.214630 136.377548,66.349693 136.037262,66.484756 
	C136.210205,66.320732 136.383148,66.156708 136.743042,65.960571 
	C136.929993,65.928474 136.996109,66.002296 137.027130,66.040932 
z"/>
<path fill="#E0984B" opacity="1.000000" stroke="none" 
	d="
M96.257462,128.195602 
	C98.697784,127.930931 101.391479,127.930931 105.059334,127.930931 
	C103.763008,126.298332 103.029503,125.374557 102.574646,124.209198 
	C107.924034,124.632286 113.031105,126.052208 118.058228,125.810310 
	C129.895706,125.240707 141.695068,123.878326 153.509842,122.836685 
	C163.042603,123.652962 171.637726,119.941772 180.833588,117.298874 
	C174.326599,120.200897 167.503494,123.256248 160.508209,125.846565 
	C156.676071,127.265594 152.553177,127.899345 147.768478,128.987152 
	C144.024414,129.393158 141.074402,129.710587 138.121887,130.002975 
	C131.429825,130.665695 124.736519,131.316086 118.043724,131.971497 
	C110.866096,130.801086 103.688461,129.630676 96.257462,128.195602 
z"/>
<path fill="#FABA6E" opacity="1.000000" stroke="none" 
	d="
M118.305405,132.251221 
	C124.736519,131.316086 131.429825,130.665695 138.121887,130.002975 
	C141.074402,129.710587 144.024414,129.393158 147.371490,129.048889 
	C146.836487,129.785904 146.021973,130.966187 144.956284,131.272430 
	C136.276093,133.766754 127.508163,135.195709 118.305405,132.251221 
z"/>
<path fill="#100903" opacity="1.000000" stroke="none" 
	d="
M153.811340,122.581680 
	C141.695068,123.878326 129.895706,125.240707 118.058228,125.810310 
	C113.031105,126.052208 107.924034,124.632286 102.435883,123.904510 
	C101.995247,123.525238 101.852959,123.277504 101.399475,122.993431 
	C103.868050,122.888657 106.528786,122.888657 109.729736,122.888657 
	C106.910217,119.046913 104.496674,115.758331 102.098221,112.108337 
	C103.746773,112.965622 105.620224,113.967110 106.962013,115.449753 
	C109.491089,118.244308 111.713844,121.316093 113.520042,123.588402 
	C120.265450,117.094696 125.715630,111.847885 131.165802,106.601074 
	C131.530258,106.794884 131.894730,106.988693 132.259186,107.182510 
	C129.788116,107.051109 127.317039,106.919701 124.296310,106.655594 
	C123.452797,106.428009 123.210327,106.508461 123.019241,106.764252 
	C121.624748,106.845657 120.230255,106.927063 118.418991,106.656769 
	C118.005074,105.933250 118.007927,105.561432 118.442574,105.116554 
	C121.203293,105.011261 123.532211,104.979012 126.246002,104.972191 
	C128.078293,104.718269 129.525711,104.438911 131.356750,104.088806 
	C132.776871,103.994453 133.813416,103.970856 135.011002,103.937927 
	C135.385727,103.895683 135.586670,103.826073 136.154510,103.518158 
	C137.954239,103.187096 139.374374,103.057610 140.995056,102.896271 
	C141.461411,102.791466 141.696793,102.662903 142.272522,102.337830 
	C143.693665,102.107338 144.744049,102.017738 145.994995,101.896263 
	C146.461319,101.791443 146.696701,101.662880 147.263824,101.338837 
	C148.396835,101.123032 149.167694,101.047096 150.213745,100.962585 
	C150.977707,100.727348 151.466461,100.500687 151.955215,100.274033 
	C155.943695,99.137077 159.932159,98.000130 164.758743,96.920998 
	C166.220947,97.054283 166.845062,97.129753 167.469162,97.205215 
	C162.254868,99.207611 157.040573,101.210007 151.666962,103.568947 
	C151.507629,103.925491 151.037277,104.003578 150.873123,104.126709 
	C150.466614,104.743988 150.224258,105.238144 149.621521,105.886055 
	C145.250519,107.069176 141.075302,107.692802 137.272644,109.235008 
	C132.937164,110.993301 128.933746,113.570435 124.508759,115.982079 
	C122.597008,118.376060 120.962524,120.579674 118.892265,123.370804 
	C120.836014,123.570480 121.948357,123.892166 123.004410,123.760933 
	C132.846451,122.537788 142.798615,121.810966 152.479080,119.791115 
	C161.506836,117.907463 170.242767,114.625229 179.107162,111.958633 
	C172.966721,114.788094 166.860474,117.695778 160.666641,120.403122 
	C158.597168,121.307686 156.303833,121.700134 153.811340,122.581680 
M136.023544,107.044121 
	C136.179886,106.661819 136.336212,106.279510 136.492554,105.897209 
	C136.232834,105.796738 135.973129,105.696274 135.713409,105.595810 
	C135.668900,106.087189 135.624390,106.578560 136.023544,107.044121 
z"/>
<path fill="#DB5627" opacity="1.000000" stroke="none" 
	d="
M149.938553,100.971161 
	C149.167694,101.047096 148.396835,101.123032 147.053467,101.326187 
	C146.199432,101.535446 145.970596,101.693695 145.794449,101.928139 
	C144.744049,102.017738 143.693665,102.107338 142.062149,102.325195 
	C141.199509,102.535446 140.970657,102.693665 140.794495,102.928123 
	C139.374374,103.057610 137.954239,103.187096 135.989624,103.475174 
	C135.201431,103.652138 135.003036,103.756645 134.849945,103.947266 
	C133.813416,103.970856 132.776871,103.994453 130.982422,104.065750 
	C128.770035,104.391228 127.315590,104.668999 125.861137,104.946770 
	C123.532211,104.979012 121.203293,105.011261 118.113754,105.050568 
	C116.613533,105.338974 115.873917,105.620323 115.134300,105.901672 
	C109.302155,105.094559 103.470009,104.287445 97.335999,103.311768 
	C97.321419,102.601097 97.608704,102.058983 98.403297,101.236908 
	C101.298798,100.520477 103.672310,99.875465 106.079315,99.705849 
	C108.511398,99.534470 110.976677,99.834206 113.606674,100.082382 
	C114.336533,100.501198 114.887123,100.765175 115.924126,100.907852 
	C128.134125,99.345993 139.857712,97.905426 151.581299,96.464859 
	C151.022125,97.612343 150.462936,98.759827 150.057724,100.270645 
	C150.211700,100.633987 149.938553,100.971161 149.938553,100.971161 
z"/>
<path fill="#FFC85B" opacity="1.000000" stroke="none" 
	d="
M117.172913,115.384567 
	C116.075699,116.711334 115.197365,117.789558 113.864380,119.425896 
	C112.403831,117.359695 111.336136,115.849251 109.676620,113.501587 
	C113.099541,113.195877 115.694244,112.964142 119.018219,112.667274 
	C118.219719,113.879318 117.805756,114.507668 117.172913,115.384567 
z"/>
<path fill="#100903" opacity="1.000000" stroke="none" 
	d="
M102.520012,111.559036 
	C100.621040,111.152283 99.005318,110.406631 97.198532,109.383743 
	C98.939392,109.811050 100.871323,110.515602 102.520012,111.559036 
z"/>
<path fill="#1A0E03" opacity="1.000000" stroke="none" 
	d="
M115.423576,106.044754 
	C115.873917,105.620323 116.613533,105.338974 117.681961,105.123611 
	C118.007927,105.561432 118.005074,105.933250 118.005020,106.583954 
	C117.242828,106.637840 116.477837,106.412842 115.423576,106.044754 
z"/>
<path fill="#1A0E03" opacity="1.000000" stroke="none" 
	d="
M123.260986,106.824615 
	C123.210327,106.508461 123.452797,106.428009 123.855804,106.610855 
	C123.964973,106.698830 123.502724,106.884979 123.260986,106.824615 
z"/>
<path fill="#C9761F" opacity="1.000000" stroke="none" 
	d="
M170.019089,44.570869 
	C169.796402,44.755413 169.438797,44.667656 168.889771,44.366398 
	C169.093613,44.201454 169.488892,44.250008 170.019089,44.570869 
z"/>
<path fill="#823104" opacity="1.000000" stroke="none" 
	d="
M179.462189,111.881767 
	C170.242767,114.625229 161.506836,117.907463 152.479080,119.791115 
	C142.798615,121.810966 132.846451,122.537788 123.004410,123.760933 
	C121.948357,123.892166 120.836014,123.570480 118.892265,123.370804 
	C120.962524,120.579674 122.597008,118.376060 124.591209,116.058640 
	C124.950928,115.944832 125.114777,116.099060 125.118202,116.490036 
	C126.740776,117.594933 128.388748,118.986572 129.974670,118.919113 
	C147.986786,118.153038 164.796829,112.174431 181.709137,106.667389 
	C186.055099,105.252235 185.545273,102.419205 183.942398,99.237404 
	C189.384430,98.148880 188.906265,102.750610 190.101273,106.113739 
	C186.640289,108.288879 183.228745,110.046890 179.462189,111.881767 
z"/>
<path fill="#833205" opacity="1.000000" stroke="none" 
	d="
M124.868477,115.868271 
	C128.933746,113.570435 132.937164,110.993301 137.272644,109.235008 
	C141.075302,107.692802 145.250519,107.069176 149.899200,105.842049 
	C150.703918,105.097382 150.870605,104.550484 151.037277,104.003578 
	C151.037277,104.003578 151.507629,103.925491 151.743286,103.961281 
	C157.160019,102.925133 162.341095,101.853195 167.871140,100.827454 
	C171.206619,100.606544 174.193115,100.339432 177.494751,100.434891 
	C176.111725,101.727669 174.516190,103.038261 172.699326,103.528481 
	C156.860291,107.802063 140.981659,111.928749 125.114777,116.099060 
	C125.114777,116.099060 124.950928,115.944832 124.868477,115.868271 
z"/>
<path fill="#1A0E03" opacity="1.000000" stroke="none" 
	d="
M167.801651,97.192513 
	C166.845062,97.129753 166.220947,97.054283 165.128098,96.924736 
	C166.848175,96.202271 169.037018,95.533882 171.612823,94.958405 
	C170.711258,95.760796 169.422699,96.470299 167.801651,97.192513 
z"/>
<path fill="#A4B825" opacity="1.000000" stroke="none" 
	d="
M115.437714,101.029144 
	C114.887123,100.765175 114.336533,100.501198 113.420341,99.739441 
	C109.064163,98.190536 105.073570,97.139397 101.082977,96.088257 
	C101.082977,96.088264 100.911125,95.904533 101.113953,95.555222 
	C104.328957,95.027008 107.693443,93.905235 110.277962,94.870926 
	C115.235855,96.723396 117.151718,93.928101 120.152878,90.604591 
	C112.849854,89.727837 106.399284,88.953415 99.948715,88.179001 
	C99.948715,88.179001 99.973312,87.733459 100.392174,87.514626 
	C108.211792,86.538795 115.612556,85.781792 123.296936,84.946701 
	C124.300323,84.686836 125.020088,84.505066 125.998184,84.600143 
	C132.757584,86.852280 138.805145,84.555733 145.312424,82.976982 
	C146.820953,82.733437 147.937347,82.408577 149.015961,82.068176 
	C148.978180,82.052635 149.035461,82.111214 149.386475,82.350983 
	C150.822937,82.289787 151.908356,81.988808 153.319275,81.601608 
	C154.613007,81.008347 155.581238,80.501305 156.732635,79.953903 
	C157.121216,79.631409 157.326660,79.349274 157.981628,79.164268 
	C159.953522,79.125931 161.475876,78.990471 163.404022,78.870888 
	C166.524628,78.403923 169.239471,77.921082 171.833282,77.808136 
	C169.353714,79.450104 166.995178,80.722176 164.594299,82.017075 
	C166.243942,82.362930 168.267654,82.787216 170.183167,83.408203 
	C170.074951,83.604897 169.769394,83.933907 169.330948,83.918648 
	C166.280670,83.896019 163.668839,83.888649 161.036545,83.939880 
	C161.016083,83.998474 161.065659,83.881233 161.007141,83.500755 
	C156.509323,81.417999 156.206329,81.788422 156.593170,87.967804 
	C155.225296,86.489075 154.176971,85.096985 153.636124,84.378769 
	C146.242142,85.800125 139.296707,87.135262 132.351257,88.470398 
	C135.318222,89.368607 138.255753,89.199097 141.193069,89.026276 
	C146.441864,88.717461 151.690536,88.406631 157.189789,88.142128 
	C157.606003,88.150673 157.771683,88.113747 157.969742,88.053017 
	C158.002106,88.029221 157.923904,88.047081 157.940247,88.343315 
	C158.290665,88.785896 158.624710,88.932243 158.937012,89.044510 
	C158.915253,89.010414 158.847473,89.054558 158.779755,89.415230 
	C156.483658,90.525505 154.255280,91.275108 151.689301,91.982330 
	C148.978073,91.933861 146.597809,91.812065 144.232376,91.948196 
	C140.465591,92.164978 136.654648,93.083076 132.964249,92.706451 
	C129.863556,92.390007 126.908142,90.650116 124.905014,89.913994 
	C122.389977,92.754860 120.636581,94.735405 118.530205,96.827087 
	C117.264046,98.301865 116.350883,99.665504 115.437714,101.029144 
z"/>
<path fill="#CAEB56" opacity="1.000000" stroke="none" 
	d="
M99.563339,88.133934 
	C106.399284,88.953415 112.849854,89.727837 120.152878,90.604591 
	C117.151718,93.928101 115.235855,96.723396 110.277962,94.870926 
	C107.693443,93.905235 104.328957,95.027008 101.029724,95.461792 
	C95.921623,99.219513 95.921623,99.219513 92.369514,97.601746 
	C93.339020,94.945763 94.031776,92.189659 95.371384,89.795479 
	C95.916328,88.821556 97.866928,88.634140 99.563339,88.133934 
z"/>
<path fill="#170E03" opacity="1.000000" stroke="none" 
	d="
M123.013313,85.024796 
	C115.612556,85.781792 108.211792,86.538795 100.403030,87.291779 
	C99.439468,87.102776 98.883911,86.917793 98.120308,86.526161 
	C97.931206,86.093971 97.950157,85.868431 98.405975,85.376526 
	C104.364960,85.180565 109.886963,85.290840 115.409195,85.303551 
	C117.943680,85.309380 120.478592,85.123650 123.013313,85.024796 
z"/>
<path fill="#090400" opacity="1.000000" stroke="none" 
	d="
M100.939835,96.374199 
	C105.073570,97.139397 109.064163,98.190536 113.241081,99.584610 
	C110.976677,99.834206 108.511398,99.534470 106.079315,99.705849 
	C103.672310,99.875465 101.298798,100.520477 98.538605,100.960197 
	C99.043312,99.529007 99.919998,98.094574 100.939835,96.374199 
z"/>
<path fill="#170E03" opacity="1.000000" stroke="none" 
	d="
M95.469002,83.579620 
	C95.867447,83.999382 95.916519,84.521797 95.984344,85.437134 
	C94.900543,85.649925 93.797997,85.469810 92.374634,85.155914 
	C93.075752,84.575508 94.097687,84.128883 95.469002,83.579620 
z"/>
<path fill="#1B0B01" opacity="1.000000" stroke="none" 
	d="
M152.026917,92.024719 
	C154.255280,91.275108 156.483658,90.525505 159.143585,89.413582 
	C161.506958,89.389839 163.485703,90.168945 165.360229,89.969376 
	C168.617523,89.622604 171.810440,88.671173 175.030350,87.973282 
	C168.546509,90.438820 162.062683,92.904358 154.937790,95.576340 
	C153.462570,96.067993 152.628403,96.353203 151.794235,96.638428 
	C151.794235,96.638428 151.739670,96.486282 151.660492,96.475571 
	C139.857712,97.905426 128.134125,99.345993 115.924118,100.907852 
	C116.350883,99.665504 117.264046,98.301865 118.771774,97.202087 
	C130.499802,99.229202 141.069412,96.017433 151.734161,93.721375 
	C151.943787,93.676239 151.934219,92.612976 152.026917,92.024719 
z"/>
<path fill="#792D04" opacity="1.000000" stroke="none" 
	d="
M175.375519,87.843979 
	C171.810440,88.671173 168.617523,89.622604 165.360229,89.969376 
	C163.485703,90.168945 161.506958,89.389839 159.211304,89.052910 
	C158.847473,89.054558 158.915253,89.010414 158.908875,88.753876 
	C158.576294,88.347252 158.250107,88.197166 157.923904,88.047081 
	C157.923904,88.047081 158.002106,88.029221 158.085999,87.675797 
	C159.135132,86.175331 160.100388,85.028282 161.065659,83.881233 
	C161.065659,83.881233 161.016083,83.998474 161.164154,84.307434 
	C166.717743,84.952797 172.123276,85.289215 178.671295,85.696732 
	C177.483902,82.926796 176.813263,81.362335 176.138382,79.451607 
	C177.402603,78.571785 178.671066,78.038239 180.218475,77.668640 
	C181.353821,77.865746 182.210220,77.898911 183.066635,77.932076 
	C183.066635,77.932076 183.024307,77.985764 183.150818,78.179794 
	C183.577271,78.556557 183.877182,78.739296 184.177109,78.922028 
	C184.769379,79.090965 185.361649,79.259903 186.089676,79.714172 
	C185.552780,86.422981 179.965134,86.154396 175.375519,87.843979 
z"/>
<path fill="#DB5627" opacity="1.000000" stroke="none" 
	d="
M152.143051,96.721848 
	C152.628403,96.353203 153.462570,96.067993 154.635345,95.775017 
	C154.146576,96.113266 153.319229,96.459274 152.143051,96.721848 
z"/>
<path fill="#1A0E03" opacity="1.000000" stroke="none" 
	d="
M150.213745,100.962585 
	C149.938553,100.971161 150.211700,100.633987 150.328613,100.450363 
	C150.780838,100.256508 151.116150,100.246269 151.703339,100.255035 
	C151.466461,100.500687 150.977707,100.727348 150.213745,100.962585 
z"/>
<path fill="#A53A04" opacity="1.000000" stroke="none" 
	d="
M125.118202,116.490036 
	C140.981659,111.928749 156.860291,107.802063 172.699326,103.528481 
	C174.516190,103.038261 176.111725,101.727669 177.921600,100.473396 
	C179.754776,99.835396 181.476227,99.521461 183.570038,99.222458 
	C185.545273,102.419205 186.055099,105.252235 181.709137,106.667389 
	C164.796829,112.174431 147.986786,118.153038 129.974670,118.919113 
	C128.388748,118.986572 126.740776,117.594933 125.118202,116.490036 
z"/>
<path fill="#0E0C03" opacity="1.000000" stroke="none" 
	d="
M179.939545,77.504684 
	C178.671066,78.038239 177.402603,78.571785 176.004562,79.672134 
	C175.638077,80.483643 175.401184,80.728355 175.037888,80.876709 
	C174.911499,80.780342 174.614594,80.667557 174.624634,80.618866 
	C174.634674,80.570183 174.564774,80.499481 174.539856,80.191910 
	C174.000504,79.013306 173.486069,78.142281 172.710754,77.273094 
	C172.284698,77.329361 172.119507,77.383797 171.954315,77.438240 
	C169.239471,77.921082 166.524628,78.403923 163.383148,78.596924 
	C162.938385,78.124825 162.920227,77.942558 163.229187,77.556671 
	C168.927902,76.055267 174.299484,74.757492 179.671082,73.459724 
	C179.797150,73.648087 179.923218,73.836456 180.239319,74.307129 
	C180.145599,75.033104 179.861847,75.476791 179.768097,76.395691 
	C179.951920,77.082169 179.945724,77.293427 179.939545,77.504684 
z"/>
<path fill="#150D03" opacity="1.000000" stroke="none" 
	d="
M180.218475,77.668640 
	C179.945724,77.293427 179.951920,77.082169 179.975922,76.554398 
	C180.982697,76.593758 181.971680,76.949638 183.013641,77.618797 
	C182.210220,77.898911 181.353821,77.865746 180.218475,77.668640 
z"/>
<path fill="#150D03" opacity="1.000000" stroke="none" 
	d="
M184.078125,78.643562 
	C183.877182,78.739296 183.577271,78.556557 183.143738,78.146347 
	C183.333130,78.067619 183.656143,78.216362 184.078125,78.643562 
z"/>
<path fill="#A31B02" opacity="1.000000" stroke="none" 
	d="
M179.939240,73.307419 
	C174.299484,74.757492 168.927902,76.055267 162.799164,77.544136 
	C160.607330,77.697937 159.172638,77.660645 157.705521,77.631454 
	C157.673111,77.639572 157.608032,77.654617 157.608032,77.654617 
	C157.608032,76.203094 157.608032,74.751572 157.608032,72.882469 
	C160.501816,72.375069 163.398972,71.867073 166.827042,71.688034 
	C168.557251,72.196152 169.812134,72.694771 170.945908,72.497505 
	C175.164307,71.763535 179.342896,70.800842 183.536438,69.924011 
	C182.426758,71.001045 181.317078,72.078072 179.939240,73.307419 
z"/>
<path fill="#C41901" opacity="1.000000" stroke="none" 
	d="
M183.483459,69.556908 
	C179.342896,70.800842 175.164307,71.763535 170.945908,72.497505 
	C169.812134,72.694771 168.557251,72.196152 167.221649,71.709328 
	C168.969635,70.835655 170.853943,70.269638 172.888275,69.369888 
	C173.038330,69.036163 173.002106,69.004311 173.375549,69.143311 
	C174.497147,69.133759 175.245300,68.985191 175.993439,68.836624 
	C178.435272,69.737236 181.161697,64.645279 183.483459,69.556908 
z"/>
<path fill="#120C06" opacity="1.000000" stroke="none" 
	d="
M175.956055,68.505386 
	C175.245300,68.985191 174.497147,69.133759 173.380295,69.167023 
	C173.733383,68.605019 174.455170,68.158302 175.505127,67.612267 
	C175.861755,67.733345 175.890198,67.953743 175.956055,68.505386 
z"/>
<path fill="#019345" opacity="1.000000" stroke="none" 
	d="
M157.249832,77.557503 
	C157.608032,77.654617 157.673111,77.639572 157.489120,77.968994 
	C157.380798,78.554657 157.456451,78.810898 157.532120,79.067139 
	C157.326660,79.349274 157.121216,79.631409 156.330780,79.702576 
	C154.833328,79.712494 153.920883,79.933365 152.672638,80.196259 
	C151.236389,80.862587 150.135925,81.486900 149.035461,82.111214 
	C149.035461,82.111214 148.978180,82.052635 148.655701,81.962540 
	C147.195572,82.213516 146.057922,82.554596 144.920288,82.895676 
	C138.805145,84.555733 132.757584,86.852280 126.232132,84.483154 
	C126.368996,84.024834 126.530266,83.960335 127.079391,83.939392 
	C129.633698,82.970451 131.800156,81.957962 133.940903,80.966454 
	C133.915207,80.987434 133.862869,80.946632 133.862869,80.946632 
	C134.437576,80.438736 135.012283,79.930847 136.176773,79.157333 
	C141.843384,77.488304 146.920212,76.084885 151.997040,74.681473 
	C154.984375,73.219749 155.777390,75.622955 157.249832,77.557503 
z"/>
<path fill="#A51B02" opacity="1.000000" stroke="none" 
	d="
M126.691536,83.895844 
	C126.530266,83.960335 126.368996,84.024834 125.973793,84.206314 
	C125.020088,84.505066 124.300323,84.686836 123.296936,84.946701 
	C120.478592,85.123650 117.943680,85.309380 115.409195,85.303551 
	C109.886963,85.290840 104.364960,85.180565 98.433105,85.038109 
	C104.052704,83.279678 110.082069,81.593300 116.822662,80.175774 
	C122.900513,79.598976 128.267120,78.753326 133.633728,77.907684 
	C133.584244,78.740562 133.534775,79.573433 133.674072,80.676468 
	C133.862869,80.946632 133.915207,80.987434 133.568634,80.810196 
	C131.045212,81.720589 128.868378,82.808220 126.691536,83.895844 
z"/>
<path fill="#C7C4A9" opacity="1.000000" stroke="none" 
	d="
M135.105881,76.740440 
	C135.568680,75.968712 135.896744,74.664124 136.515152,74.507751 
	C142.645203,72.957657 148.823303,71.597580 154.987793,70.183739 
	C155.195374,70.616173 155.402939,71.048599 155.610519,71.481026 
	C154.625015,71.982590 153.639511,72.484161 151.970352,73.190796 
	C145.893097,74.510719 140.499481,75.625580 135.105881,76.740440 
z"/>
<path fill="#C61A01" opacity="1.000000" stroke="none" 
	d="
M133.554047,77.497223 
	C128.267120,78.753326 122.900513,79.598976 117.238205,80.186310 
	C121.324188,78.700905 125.681984,77.373222 130.105667,76.323074 
	C131.111450,76.084312 132.345428,76.806747 133.554047,77.497223 
z"/>
<path fill="#0E1C12" opacity="1.000000" stroke="none" 
	d="
M135.176208,77.028786 
	C140.499481,75.625580 145.893097,74.510719 151.647507,73.330917 
	C152.015732,73.500931 152.023148,73.735901 152.013794,74.326172 
	C146.920212,76.084885 141.843384,77.488304 136.369781,78.917450 
	C135.730865,78.401169 135.488708,77.859146 135.176208,77.028786 
z"/>
<path fill="#1A0E03" opacity="1.000000" stroke="none" 
	d="
M126.246002,104.972198 
	C127.315590,104.668999 128.770035,104.391228 130.598816,104.136505 
	C129.525711,104.438911 128.078293,104.718269 126.246002,104.972198 
z"/>
<path fill="#1A0E03" opacity="1.000000" stroke="none" 
	d="
M135.801727,107.057030 
	C135.624390,106.578560 135.668900,106.087189 135.713409,105.595810 
	C135.973129,105.696274 136.232834,105.796738 136.492554,105.897209 
	C136.336212,106.279510 136.179886,106.661819 135.801727,107.057030 
z"/>
<path fill="#1A0E03" opacity="1.000000" stroke="none" 
	d="
M150.873123,104.126709 
	C150.870605,104.550484 150.703918,105.097382 150.259567,105.688293 
	C150.224258,105.238144 150.466614,104.743988 150.873123,104.126709 
z"/>
<path fill="#1A0E03" opacity="1.000000" stroke="none" 
	d="
M135.011002,103.937927 
	C135.003036,103.756645 135.201431,103.652138 135.610016,103.676750 
	C135.586670,103.826073 135.385727,103.895683 135.011002,103.937927 
z"/>
<path fill="#1A0E03" opacity="1.000000" stroke="none" 
	d="
M140.995056,102.896271 
	C140.970657,102.693665 141.199509,102.535446 141.691406,102.466095 
	C141.696793,102.662903 141.461411,102.791466 140.995056,102.896271 
z"/>
<path fill="#1A0E03" opacity="1.000000" stroke="none" 
	d="
M145.994995,101.896263 
	C145.970596,101.693695 146.199432,101.535446 146.691315,101.466049 
	C146.696701,101.662880 146.461319,101.791443 145.994995,101.896263 
z"/>
<path fill="#7D3104" opacity="1.000000" stroke="none" 
	d="
M151.689301,91.982330 
	C151.934219,92.612976 151.943787,93.676239 151.734161,93.721375 
	C141.069412,96.017433 130.499802,99.229202 119.124756,97.090958 
	C120.636581,94.735405 122.389977,92.754860 124.905014,89.913994 
	C126.908142,90.650116 129.863556,92.390007 132.964249,92.706451 
	C136.654648,93.083076 140.465591,92.164978 144.232376,91.948196 
	C146.597809,91.812065 148.978073,91.933861 151.689301,91.982330 
z"/>
<path fill="#C8E752" opacity="1.000000" stroke="none" 
	d="
M156.939270,88.096649 
	C151.690536,88.406631 146.441864,88.717461 141.193069,89.026276 
	C138.255753,89.199097 135.318222,89.368607 132.351257,88.470398 
	C139.296707,87.135262 146.242142,85.800125 153.636124,84.378769 
	C154.176971,85.096985 155.225296,86.489075 156.631668,87.958191 
	C156.989731,88.035217 156.939270,88.096649 156.939270,88.096649 
z"/>
<path fill="#1B0B01" opacity="1.000000" stroke="none" 
	d="
M175.164276,80.973068 
	C175.401184,80.728355 175.638077,80.483643 176.008804,80.018402 
	C176.813263,81.362335 177.483902,82.926796 178.671295,85.696732 
	C172.123276,85.289215 166.717743,84.952797 161.184601,84.248833 
	C163.668839,83.888649 166.280670,83.896019 169.536987,83.883209 
	C170.453415,83.788551 170.697159,83.660431 171.234482,83.313965 
	C172.026474,83.043907 172.496704,82.938553 173.358337,82.897842 
	C174.221252,82.299347 174.692764,81.636208 175.164276,80.973068 
z"/>
<path fill="#C7E651" opacity="1.000000" stroke="none" 
	d="
M172.966934,82.833191 
	C172.496704,82.938553 172.026474,83.043907 171.085861,83.231827 
	C170.615479,83.314392 170.291382,83.211502 170.291382,83.211502 
	C168.267654,82.787216 166.243942,82.362930 164.594299,82.017075 
	C166.995178,80.722176 169.353714,79.450104 171.833282,77.808136 
	C172.119507,77.383797 172.284698,77.329361 172.726257,77.675194 
	C173.523346,78.883461 174.044067,79.691475 174.564774,80.499481 
	C174.564774,80.499481 174.634674,80.570183 174.389160,80.865814 
	C173.751404,81.718689 173.359161,82.275940 172.966934,82.833191 
z"/>
<path fill="#1B0B01" opacity="1.000000" stroke="none" 
	d="
M161.007141,83.500755 
	C160.100388,85.028282 159.135132,86.175331 158.053619,87.699600 
	C157.771683,88.113747 157.606003,88.150673 157.189789,88.142128 
	C156.939270,88.096649 156.989731,88.035217 156.951233,88.044830 
	C156.206329,81.788422 156.509323,81.417999 161.007141,83.500755 
z"/>
<path fill="#120C06" opacity="1.000000" stroke="none" 
	d="
M157.981628,79.164276 
	C157.456451,78.810898 157.380798,78.554657 157.521530,77.960876 
	C159.172638,77.660645 160.607330,77.697937 162.472061,77.747757 
	C162.920227,77.942558 162.938385,78.124825 162.977386,78.581055 
	C161.475876,78.990471 159.953522,79.125931 157.981628,79.164276 
z"/>
<path fill="#0E0C03" opacity="1.000000" stroke="none" 
	d="
M149.386475,82.350983 
	C150.135925,81.486900 151.236389,80.862587 152.669403,80.451782 
	C152.999237,81.006126 152.996506,81.346985 152.993774,81.687836 
	C151.908356,81.988808 150.822937,82.289787 149.386475,82.350983 
z"/>
<path fill="#120C06" opacity="1.000000" stroke="none" 
	d="
M153.319275,81.601608 
	C152.996506,81.346985 152.999237,81.006126 153.005203,80.409752 
	C153.920883,79.933365 154.833328,79.712494 156.147629,79.742943 
	C155.581238,80.501305 154.613007,81.008347 153.319275,81.601608 
z"/>
<path fill="#0E0C03" opacity="1.000000" stroke="none" 
	d="
M145.312424,82.976982 
	C146.057922,82.554596 147.195572,82.213516 148.693481,81.978081 
	C147.937347,82.408577 146.820953,82.733437 145.312424,82.976982 
z"/>
<path fill="#1B0B01" opacity="1.000000" stroke="none" 
	d="
M157.940247,88.343315 
	C158.250107,88.197166 158.576294,88.347252 158.930634,88.787964 
	C158.624710,88.932243 158.290665,88.785896 157.940247,88.343315 
z"/>
<path fill="#181303" opacity="1.000000" stroke="none" 
	d="
M170.183167,83.408203 
	C170.291382,83.211502 170.615479,83.314392 170.764099,83.396530 
	C170.697159,83.660431 170.453415,83.788551 169.975433,83.898468 
	C169.769394,83.933907 170.074951,83.604897 170.183167,83.408203 
z"/>
<path fill="#A4B825" opacity="1.000000" stroke="none" 
	d="
M174.539856,80.191910 
	C174.044067,79.691475 173.523346,78.883461 172.987152,77.673355 
	C173.486069,78.142281 174.000504,79.013306 174.539856,80.191910 
z"/>
<path fill="#A4B825" opacity="1.000000" stroke="none" 
	d="
M173.358337,82.897842 
	C173.359161,82.275940 173.751404,81.718689 174.379120,80.914497 
	C174.614594,80.667557 174.911499,80.780342 175.037888,80.876709 
	C174.692764,81.636208 174.221252,82.299347 173.358337,82.897842 
z"/>
<path fill="#120C06" opacity="1.000000" stroke="none" 
	d="
M127.079391,83.939400 
	C128.868378,82.808220 131.045212,81.720589 133.594330,80.789215 
	C131.800156,81.957962 129.633698,82.970451 127.079391,83.939400 
z"/>
</svg>