<svg version="1.1" id="Layer_1" xmlns="http://www.w3.org/2000/svg" xmlns:xlink="http://www.w3.org/1999/xlink" x="0px" y="0px"
	 width="100%" viewBox="0 0 225 225" enable-background="new 0 0 225 225" xml:space="preserve">
<path fill="#FFFFFF" opacity="1.000000" stroke="none" 
	d="
M1.000000,186.000000 
	C1.000000,124.000008 1.000000,62.500023 1.000000,1.000025 
	C75.999977,1.000016 150.999954,1.000016 225.999939,1.000008 
	C225.999969,75.999962 225.999969,150.999924 225.999985,225.999908 
	C151.000046,225.999939 76.000099,225.999939 1.000077,225.999969 
	C1.000000,212.833328 1.000000,199.666672 1.000000,186.000000 
M138.106750,25.123545 
	C128.672989,24.415230 122.894867,29.400564 119.066620,36.403271 
	C118.363327,31.185045 117.893272,25.917376 116.804405,20.780882 
	C116.505692,19.371773 114.354301,18.355406 112.352509,17.148520 
	C105.553162,21.140734 98.753815,25.132950 91.628647,28.450050 
	C88.736519,19.900156 85.844391,11.350261 82.821777,2.414607 
	C80.477898,3.256231 78.725677,3.885403 76.717400,4.606521 
	C79.921219,14.403973 82.944839,23.650375 85.354195,33.382622 
	C75.905838,39.280251 66.457481,45.177879 56.282375,51.246063 
	C52.970997,53.224461 55.529476,54.999706 56.693520,56.421467 
	C63.989094,65.332275 73.788162,68.528557 84.960724,69.295563 
	C85.456360,80.614464 82.771889,91.253151 78.744667,101.772934 
	C72.092690,119.149017 76.042198,136.167023 92.419456,146.779861 
	C101.001030,152.340927 108.795509,157.823532 107.398315,169.653259 
	C107.380699,169.802414 107.532211,169.964401 107.546005,170.125443 
	C107.983505,175.232056 109.062820,180.395248 108.628860,185.427765 
	C108.311691,189.106033 106.002174,192.612488 104.400894,196.648895 
	C103.059959,197.049667 100.770569,197.457932 98.735901,198.410370 
	C96.058426,199.663727 93.656128,201.497803 90.997459,202.800415 
	C88.187286,204.177277 84.994339,204.866699 82.363731,206.494843 
	C78.124527,209.118561 78.354927,212.986526 82.767212,215.315613 
	C85.539696,216.779129 88.486328,218.074280 91.505531,218.880936 
	C104.656937,222.394714 118.063362,222.696304 131.433380,220.770248 
	C136.934891,219.977722 142.363617,218.077713 147.546066,215.988419 
	C149.446121,215.222412 151.660156,212.463196 151.675629,210.596191 
	C151.690277,208.828461 149.343964,206.419144 147.442215,205.400146 
	C144.424911,203.783386 140.897537,203.133850 137.619110,201.980865 
	C136.448639,201.569214 135.344330,200.935822 134.263138,200.311325 
	C132.433350,199.254440 130.659470,198.101120 128.835968,197.032898 
	C127.654106,196.340546 125.334740,195.240570 125.375702,195.148743 
	C127.030655,191.438538 123.176468,188.980011 123.204453,186.067581 
	C123.283760,177.812439 123.610016,169.471695 124.931770,161.342316 
	C126.147194,153.866882 133.169785,150.873688 138.778519,147.160324 
	C153.522522,137.398804 160.081329,120.079628 153.442123,103.789627 
	C149.287918,93.596794 145.933472,83.176689 147.092819,71.215233 
	C147.624420,70.106651 148.156036,68.998070 148.377258,68.536720 
	C151.308044,70.787552 154.015182,72.866631 156.722336,74.945717 
	C158.496658,72.288193 161.044678,69.815605 161.741486,66.900520 
	C162.130203,65.274315 159.441299,62.912460 158.223633,61.013641 
	C167.451569,57.381176 168.537125,56.604340 167.410431,54.189514 
	C165.309219,49.685982 159.713409,47.500362 156.022629,49.148701 
	C154.855911,46.120510 153.682205,43.074146 152.561401,39.311657 
	C151.435089,32.933064 147.504028,28.809626 142.039948,25.346748 
	C145.565536,16.844671 153.097885,16.104755 162.050888,16.620237 
	C153.848389,10.447475 141.792389,16.107185 138.106750,25.123545 
z"/>
<path fill="#D4ECEB" opacity="1.000000" stroke="none" 
	d="
M146.899338,71.903564 
	C145.933472,83.176689 149.287918,93.596794 153.442123,103.789627 
	C160.081329,120.079628 153.522522,137.398804 138.778519,147.160324 
	C133.169785,150.873688 126.147194,153.866882 124.931770,161.342316 
	C123.610016,169.471695 123.283760,177.812439 123.204453,186.067581 
	C123.176468,188.980011 127.030655,191.438538 125.375702,195.148743 
	C125.334740,195.240570 127.654106,196.340546 128.835968,197.032898 
	C130.659470,198.101120 132.433350,199.254440 134.263138,200.311325 
	C135.344330,200.935822 136.448639,201.569214 137.619110,201.980865 
	C140.897537,203.133850 144.424911,203.783386 147.442215,205.400146 
	C149.343964,206.419144 151.690277,208.828461 151.675629,210.596191 
	C151.660156,212.463196 149.446121,215.222412 147.546066,215.988419 
	C142.363617,218.077713 136.934891,219.977722 131.433380,220.770248 
	C118.063362,222.696304 104.656937,222.394714 91.505531,218.880936 
	C88.486328,218.074280 85.539696,216.779129 82.767212,215.315613 
	C78.354927,212.986526 78.124527,209.118561 82.363731,206.494843 
	C84.994339,204.866699 88.187286,204.177277 90.997459,202.800415 
	C93.656128,201.497803 96.058426,199.663727 98.735901,198.410370 
	C100.770569,197.457932 103.059959,197.049667 104.400894,196.648895 
	C106.002174,192.612488 108.311691,189.106033 108.628860,185.427765 
	C109.062820,180.395248 107.983505,175.232056 107.546005,170.125443 
	C107.532211,169.964401 107.380699,169.802414 107.398315,169.653259 
	C108.795509,157.823532 101.001030,152.340927 92.419456,146.779861 
	C76.042198,136.167023 72.092690,119.149017 78.744667,101.772934 
	C82.771889,91.253151 85.456360,80.614464 85.312828,68.737213 
	C86.413879,68.170784 87.162834,68.162704 87.943634,68.609756 
	C88.597725,79.804504 87.509613,90.197403 83.187210,100.267914 
	C81.125900,105.070442 79.382683,110.404877 79.218468,115.553337 
	C78.692642,132.039688 89.075310,142.715347 104.316383,149.905029 
	C116.778465,155.783783 127.711494,150.575302 137.786194,143.482132 
	C151.022888,134.162766 154.860336,120.735123 150.151550,105.278198 
	C147.225143,95.672081 145.325668,85.753128 143.144745,75.711304 
	C144.515930,74.266541 145.707642,73.085052 146.899338,71.903564 
M87.280304,207.053680 
	C86.243500,208.357040 84.440895,209.642578 84.410011,210.969345 
	C84.384903,212.048309 86.326752,213.469589 87.686417,214.196350 
	C88.914993,214.853058 90.536491,214.774658 92.264938,215.593475 
	C93.171455,216.053436 94.077965,216.513397 95.810257,217.012177 
	C103.761246,217.891861 111.712227,218.771545 119.663216,219.651245 
	C119.669159,219.420975 119.675102,219.190704 119.681046,218.960434 
	C111.449272,217.648331 103.217499,216.336227 94.244415,215.003052 
	C93.503143,214.995056 92.761879,214.987076 91.633072,214.433090 
	C89.237885,212.536331 85.528053,211.281418 88.297287,206.892349 
	C88.196289,206.925858 88.095299,206.959381 87.280304,207.053680 
M111.054405,176.165268 
	C110.798668,182.098511 110.542938,188.031754 110.307030,193.504944 
	C111.307159,191.296051 113.425751,188.494415 113.726021,185.509857 
	C114.166679,181.129761 113.405350,176.609329 112.974899,172.166260 
	C112.510498,167.372742 111.837372,162.599457 111.255295,157.817337 
	C111.176071,157.870697 111.096855,157.924057 111.017632,157.977417 
	C111.017632,163.727829 111.017632,169.478241 111.054405,176.165268 
z"/>
<path fill="#ADCD6F" opacity="1.000000" stroke="none" 
	d="
M57.009125,51.075508 
	C66.457481,45.177879 75.905838,39.280251 85.926437,33.088116 
	C88.317268,31.570795 90.135864,30.347980 91.954460,29.125164 
	C98.753815,25.132950 105.553162,21.140734 112.686714,17.553040 
	C113.574249,24.148329 115.434120,30.561289 114.426476,36.486603 
	C111.808266,51.882614 99.728218,62.193977 84.011040,63.961063 
	C74.918388,64.983345 60.249077,59.864296 57.009125,51.075508 
M106.901779,46.887665 
	C106.901779,46.887665 106.869026,46.864342 107.588333,46.877895 
	C110.619415,44.089478 112.393105,40.834309 111.648750,36.138790 
	C103.015640,35.997635 94.725426,27.361290 85.523712,36.646889 
	C89.008453,41.762253 92.496620,46.882626 95.977516,52.716530 
	C96.611435,53.289967 97.245354,53.863407 97.922997,55.006111 
	C98.105782,55.426765 98.343613,56.229599 98.463326,56.212364 
	C101.724197,55.742710 106.357613,50.579655 106.901779,46.887665 
M73.664513,58.401138 
	C77.543686,60.850773 90.064461,59.961800 93.082832,56.830780 
	C93.382065,56.520367 92.393402,54.968391 91.945679,53.274368 
	C89.070129,48.119324 86.194572,42.964279 82.580811,36.485844 
	C80.335594,39.426189 78.226807,41.163090 77.493904,43.359169 
	C75.927361,48.053200 75.073029,52.984921 73.664513,58.401138 
M62.020065,54.553299 
	C63.723068,55.850220 65.293800,57.425781 67.186058,58.324028 
	C68.103020,58.759308 70.545647,58.204792 70.723167,57.620274 
	C72.090721,53.117119 73.072098,48.496685 74.419838,42.886143 
	C69.653870,45.760128 65.781357,47.917549 62.157658,50.433338 
	C61.448868,50.925426 61.704510,52.806664 62.020065,54.553299 
M113.014206,30.954573 
	C112.638382,27.767765 112.262566,24.580956 111.761887,20.335352 
	C106.374260,23.573219 101.889503,26.268478 96.736313,29.365456 
	C101.944305,30.741093 106.048058,31.925938 110.211578,32.837933 
	C111.024147,33.015923 112.068764,32.134583 113.014206,30.954573 
z"/>
<path fill="#FEC455" opacity="1.000000" stroke="none" 
	d="
M146.996078,71.559402 
	C145.707642,73.085052 144.515930,74.266541 142.778564,75.712708 
	C139.856918,72.938133 137.480972,69.898888 135.241364,66.568398 
	C136.651276,64.945702 137.924820,63.614246 138.361008,63.158218 
	C136.779816,61.656815 135.328568,60.278801 133.910614,58.543388 
	C133.978149,57.469189 134.012390,56.752392 134.278442,55.774567 
	C134.558563,53.501675 134.606903,51.489822 134.655243,49.477966 
	C136.997284,49.737965 139.345016,49.957092 141.678238,50.280724 
	C142.466370,50.390038 143.217773,50.764118 144.041504,51.188446 
	C144.214233,51.406597 144.331421,51.453503 144.448624,51.500404 
	C144.306427,51.327255 144.164230,51.154102 144.003693,50.589367 
	C142.221329,46.234867 142.189896,43.177822 147.647568,42.619492 
	C148.486191,42.533699 149.234421,41.564304 150.280579,40.912468 
	C151.193985,40.556843 151.851242,40.292309 152.508499,40.027779 
	C153.682205,43.074146 154.855911,46.120510 156.022629,49.148701 
	C159.713409,47.500362 165.309219,49.685982 167.410431,54.189514 
	C168.537125,56.604340 167.451569,57.381176 158.223633,61.013641 
	C159.441299,62.912460 162.130203,65.274315 161.741486,66.900520 
	C161.044678,69.815605 158.496658,72.288193 156.722336,74.945717 
	C154.015182,72.866631 151.308044,70.787552 148.377258,68.536720 
	C148.156036,68.998070 147.624420,70.106651 146.996078,71.559402 
M147.373215,56.729668 
	C145.473572,55.518036 143.573944,54.306404 141.273453,52.839104 
	C140.339813,54.709724 139.573257,56.245552 138.121170,59.154900 
	C141.551819,59.154900 143.880020,59.021893 146.175064,59.239151 
	C146.830032,59.301147 147.388763,60.379570 147.267075,61.057789 
	C146.067169,61.601761 144.711182,61.952522 143.719269,62.753929 
	C142.992035,63.341496 142.252151,64.617043 142.408569,65.410355 
	C142.589890,66.330009 143.670425,67.587486 144.501633,67.705566 
	C145.202896,67.805183 146.453033,66.638939 146.841309,65.759666 
	C147.490082,64.290497 147.645096,62.603279 148.629150,61.327782 
	C150.155304,63.905323 151.681442,66.482864 153.575531,69.681808 
	C155.120483,67.521202 156.036499,66.240158 157.108978,64.740311 
	C154.770691,62.937656 152.669449,61.317738 150.373199,59.547478 
	C153.841034,58.913105 156.720718,58.386326 160.102554,57.767685 
	C159.299210,55.773491 158.729614,54.359516 158.019516,52.596771 
	C155.201141,54.443542 152.889801,55.958080 149.963196,57.875771 
	C150.813858,54.074097 151.432022,51.311508 152.305801,47.406532 
	C149.347275,48.498661 147.639603,49.129047 146.063004,49.711048 
	C146.823410,52.575710 147.410782,54.788540 148.000000,57.000000 
	C148.000000,57.000000 148.001282,56.998363 147.373215,56.729668 
z"/>
<path fill="#8DB24C" opacity="1.000000" stroke="none" 
	d="
M56.645748,51.160782 
	C60.249077,59.864296 74.918388,64.983345 84.011040,63.961063 
	C99.728218,62.193977 111.808266,51.882614 114.426476,36.486603 
	C115.434120,30.561289 113.574249,24.148329 113.037003,17.558186 
	C114.354301,18.355406 116.505692,19.371773 116.804405,20.780882 
	C117.893272,25.917376 118.363327,31.185045 118.963371,37.202873 
	C118.607887,39.343899 118.355652,40.685326 117.957733,42.355972 
	C116.192780,46.119259 114.573502,49.553329 112.678848,53.170696 
	C107.257492,57.523785 102.111526,61.693581 96.579132,65.898972 
	C93.432388,66.674599 90.672089,67.414619 87.911781,68.154633 
	C87.162834,68.162704 86.413879,68.170784 85.309235,68.301315 
	C73.788162,68.528557 63.989094,65.332275 56.693520,56.421467 
	C55.529476,54.999706 52.970997,53.224461 56.645748,51.160782 
z"/>
<path fill="#F17888" opacity="1.000000" stroke="none" 
	d="
M118.103416,42.026752 
	C118.355652,40.685326 118.607887,39.343899 118.946434,37.686275 
	C122.894867,29.400564 128.672989,24.415230 138.558044,25.427124 
	C139.542709,29.816017 140.869324,26.500092 141.889908,26.039438 
	C147.504028,28.809626 151.435089,32.933064 152.534943,39.669716 
	C151.851242,40.292309 151.193985,40.556843 150.234772,40.550339 
	C147.210510,32.446503 143.122543,29.861820 133.387207,30.031719 
	C129.224854,29.391037 127.319809,31.093313 126.902161,35.160107 
	C121.464561,43.857815 123.839584,50.543919 134.046631,56.035599 
	C134.012390,56.752392 133.978149,57.469189 133.564209,58.482162 
	C129.743637,56.849209 126.302757,54.920067 122.728134,52.676350 
	C121.097404,48.916767 119.600410,45.471760 118.103416,42.026752 
z"/>
<path fill="#FFC658" opacity="1.000000" stroke="none" 
	d="
M91.791550,28.787609 
	C90.135864,30.347980 88.317268,31.570795 86.233566,32.845192 
	C82.944839,23.650375 79.921219,14.403973 76.717400,4.606521 
	C78.725677,3.885403 80.477898,3.256231 82.821777,2.414607 
	C85.844391,11.350261 88.736519,19.900156 91.791550,28.787609 
z"/>
<path fill="#A47038" opacity="1.000000" stroke="none" 
	d="
M141.964935,25.693092 
	C140.869324,26.500092 139.542709,29.816017 138.987122,25.418461 
	C141.792389,16.107185 153.848389,10.447475 162.050888,16.620237 
	C153.097885,16.104755 145.565536,16.844671 141.964935,25.693092 
z"/>
<path fill="#60C5C3" opacity="1.000000" stroke="none" 
	d="
M87.943634,68.609756 
	C90.672089,67.414619 93.432388,66.674599 96.959953,66.078857 
	C101.483276,66.291016 105.352722,66.966827 108.970306,66.292145 
	C115.267830,65.117676 121.241684,64.131065 127.462036,67.007362 
	C129.542160,67.969215 132.531357,66.965096 135.105011,66.859642 
	C137.480972,69.898888 139.856918,72.938133 142.599075,75.975983 
	C145.325668,85.753128 147.225143,95.672081 150.151550,105.278198 
	C154.860336,120.735123 151.022888,134.162766 137.786194,143.482132 
	C127.711494,150.575302 116.778465,155.783783 104.316383,149.905029 
	C89.075310,142.715347 78.692642,132.039688 79.218468,115.553337 
	C79.382683,110.404877 81.125900,105.070442 83.187210,100.267914 
	C87.509613,90.197403 88.597725,79.804504 87.943634,68.609756 
M122.985771,86.671852 
	C123.645386,94.233810 123.664848,101.935059 125.265579,109.292252 
	C125.948723,112.432106 129.518143,115.580986 132.575226,117.324097 
	C134.357407,118.340279 137.919022,117.027641 140.318192,115.954147 
	C142.880829,114.807503 142.854767,112.431847 142.213623,109.597168 
	C140.180527,100.608131 138.653137,91.504967 136.915741,82.448700 
	C136.099548,78.194214 132.454193,75.326515 128.322357,76.044724 
	C122.693634,77.023125 122.992645,81.517822 122.985771,86.671852 
M128.592560,141.915512 
	C130.846863,139.292404 130.728897,136.469604 127.987129,134.693253 
	C126.100647,133.471024 123.130508,132.579529 121.128632,133.172897 
	C117.593269,134.220795 116.588043,138.674454 118.469086,141.783966 
	C120.524796,145.182236 123.877289,145.417786 128.592560,141.915512 
M97.981277,125.766586 
	C96.893135,122.698494 95.044685,120.012161 91.545189,121.494377 
	C89.667175,122.289795 87.228058,125.159149 87.472031,126.710533 
	C87.780952,128.674957 90.317543,131.288605 92.330368,131.761261 
	C95.709915,132.554810 97.797340,130.157013 97.981277,125.766586 
M90.861557,111.578178 
	C88.515076,110.567276 86.360931,110.768471 86.237106,113.679482 
	C86.192726,114.722748 88.278763,116.808197 89.323082,116.764381 
	C92.233650,116.642273 92.438591,114.489632 90.861557,111.578178 
z"/>
<path fill="#B3DED8" opacity="1.000000" stroke="none" 
	d="
M111.036018,175.696960 
	C111.017632,169.478241 111.017632,163.727829 111.017632,157.977417 
	C111.096855,157.924057 111.176071,157.870697 111.255295,157.817337 
	C111.837372,162.599457 112.510498,167.372742 112.974899,172.166260 
	C113.405350,176.609329 114.166679,181.129761 113.726021,185.509857 
	C113.425751,188.494415 111.307159,191.296051 110.307030,193.504944 
	C110.542938,188.031754 110.798668,182.098511 111.036018,175.696960 
z"/>
<path fill="#BFE3DF" opacity="1.000000" stroke="none" 
	d="
M94.985725,215.024124 
	C103.217499,216.336227 111.449272,217.648331 119.681046,218.960434 
	C119.675102,219.190704 119.669159,219.420975 119.663216,219.651245 
	C111.712227,218.771545 103.761246,217.891861 95.401939,216.668091 
	C94.990990,215.890717 94.988358,215.457428 94.985725,215.024124 
z"/>
<path fill="#B3DED8" opacity="1.000000" stroke="none" 
	d="
M91.984726,215.020432 
	C90.536491,214.774658 88.914993,214.853058 87.686417,214.196350 
	C86.326752,213.469589 84.384903,212.048309 84.410011,210.969345 
	C84.440895,209.642578 86.243500,208.357040 87.640129,207.026825 
	C87.999954,206.999985 88.006622,207.005188 88.006622,207.005188 
	C85.528053,211.281418 89.237885,212.536331 91.817062,214.716125 
	C92.001060,214.999146 91.984726,215.020432 91.984726,215.020432 
z"/>
<path fill="#B3DED8" opacity="1.000000" stroke="none" 
	d="
M94.615067,215.013580 
	C94.988358,215.457428 94.990990,215.890717 94.989044,216.648682 
	C94.077965,216.513397 93.171455,216.053436 92.124832,215.306946 
	C91.984726,215.020432 92.001060,214.999146 92.010834,214.989120 
	C92.761879,214.987076 93.503143,214.995056 94.615067,215.013580 
z"/>
<path fill="#B3DED8" opacity="1.000000" stroke="none" 
	d="
M87.997131,206.996429 
	C88.095299,206.959381 88.196289,206.925858 88.151955,206.948761 
	C88.006622,207.005188 87.999954,206.999985 87.997131,206.996429 
z"/>
<path fill="#C7DE91" opacity="1.000000" stroke="none" 
	d="
M95.984779,52.002998 
	C92.496620,46.882626 89.008453,41.762253 85.523712,36.646889 
	C94.725426,27.361290 103.015640,35.997635 111.648750,36.138790 
	C112.393105,40.834309 110.619415,44.089478 107.251999,46.527397 
	C106.983185,45.487701 107.050705,44.798512 107.301315,44.044250 
	C107.460205,43.771557 107.436020,43.563927 107.411835,43.356300 
	C107.255196,43.548679 107.098564,43.741055 106.642372,44.082787 
	C102.890144,46.822430 99.437462,49.412716 95.984779,52.002998 
z"/>
<path fill="#C7DE91" opacity="1.000000" stroke="none" 
	d="
M73.926941,57.819271 
	C75.073029,52.984921 75.927361,48.053200 77.493904,43.359169 
	C78.226807,41.163090 80.335594,39.426189 82.580811,36.485844 
	C86.194572,42.964279 89.070129,48.119324 91.749023,53.921947 
	C85.677223,55.652775 79.802078,56.736023 73.926941,57.819271 
z"/>
<path fill="#C6DD8F" opacity="1.000000" stroke="none" 
	d="
M61.767700,54.300247 
	C61.704510,52.806664 61.448868,50.925426 62.157658,50.433338 
	C65.781357,47.917549 69.653870,45.760128 74.419838,42.886143 
	C73.072098,48.496685 72.090721,53.117119 70.723167,57.620274 
	C70.545647,58.204792 68.103020,58.759308 67.186058,58.324028 
	C65.293800,57.425781 63.723068,55.850220 61.767700,54.300247 
z"/>
<path fill="#C6DD8F" opacity="1.000000" stroke="none" 
	d="
M113.010277,31.348211 
	C112.068764,32.134583 111.024147,33.015923 110.211578,32.837933 
	C106.048058,31.925938 101.944305,30.741093 96.736313,29.365456 
	C101.889503,26.268478 106.374260,23.573219 111.761887,20.335352 
	C112.262566,24.580956 112.638382,27.767765 113.010277,31.348211 
z"/>
<path fill="#F1F7E5" opacity="1.000000" stroke="none" 
	d="
M73.795731,58.110207 
	C79.802078,56.736023 85.677223,55.652775 91.777420,54.281094 
	C92.393402,54.968391 93.382065,56.520367 93.082832,56.830780 
	C90.064461,59.961800 77.543686,60.850773 73.795731,58.110207 
z"/>
<path fill="#F7FAF1" opacity="1.000000" stroke="none" 
	d="
M107.118233,44.109318 
	C107.050705,44.798512 106.983185,45.487701 106.892349,46.520618 
	C106.869026,46.864342 106.901779,46.887665 106.590271,47.025768 
	C103.478928,49.588200 100.679092,52.012524 97.879265,54.436844 
	C97.245354,53.863407 96.611435,53.289967 95.981148,52.359764 
	C99.437462,49.412716 102.890144,46.822430 106.685333,44.127876 
	C107.027847,44.023602 107.118233,44.109318 107.118233,44.109318 
z"/>
<path fill="#C7DE91" opacity="1.000000" stroke="none" 
	d="
M97.901131,54.721481 
	C100.679092,52.012524 103.478928,49.588200 106.585938,47.038536 
	C106.357613,50.579655 101.724197,55.742710 98.463326,56.212364 
	C98.343613,56.229599 98.105782,55.426765 97.901131,54.721481 
z"/>
<path fill="#EF5A74" opacity="1.000000" stroke="none" 
	d="
M134.278427,55.774567 
	C123.839584,50.543919 121.464561,43.857815 127.170212,35.391373 
	C129.100601,37.799187 131.098343,38.946541 133.741623,36.986534 
	C136.707367,34.787418 135.366135,32.381226 133.772415,30.061604 
	C143.122543,29.861820 147.210510,32.446503 149.978638,40.641434 
	C149.234421,41.564304 148.486191,42.533699 147.647568,42.619492 
	C142.189896,43.177822 142.221329,46.234867 143.993759,50.597946 
	C144.002182,50.998112 143.985962,51.017197 143.985962,51.017197 
	C143.217773,50.764118 142.466370,50.390038 141.678238,50.280724 
	C139.345016,49.957092 136.997284,49.737965 134.655243,49.477966 
	C134.606903,51.489822 134.558563,53.501675 134.278427,55.774567 
z"/>
<path fill="#D3EBE9" opacity="1.000000" stroke="none" 
	d="
M135.241364,66.568398 
	C132.531357,66.965096 129.542160,67.969215 127.462036,67.007362 
	C121.241684,64.131065 115.267830,65.117676 108.970306,66.292145 
	C105.352722,66.966827 101.483276,66.291016 97.346390,66.043259 
	C102.111526,61.693581 107.257492,57.523785 113.133713,53.187382 
	C116.863274,53.010822 119.862572,53.000874 122.861877,52.990929 
	C126.302757,54.920067 129.743637,56.849209 133.530914,58.839569 
	C135.328568,60.278801 136.779816,61.656815 138.361008,63.158218 
	C137.924820,63.614246 136.651276,64.945702 135.241364,66.568398 
z"/>
<path fill="#F8B233" opacity="1.000000" stroke="none" 
	d="
M147.991623,60.991905 
	C147.388763,60.379570 146.830032,59.301147 146.175064,59.239151 
	C143.880020,59.021893 141.551819,59.154900 138.121170,59.154900 
	C139.573257,56.245552 140.339813,54.709724 141.273453,52.839104 
	C143.573944,54.306404 145.473572,55.518036 147.741302,57.004482 
	C148.197098,57.328091 148.284805,57.376884 148.372513,57.425678 
	C148.247726,57.284241 148.122955,57.142803 147.998169,57.001366 
	C147.410782,54.788540 146.823410,52.575710 146.063004,49.711048 
	C147.639603,49.129047 149.347275,48.498661 152.305801,47.406532 
	C151.432022,51.311508 150.813858,54.074097 149.963196,57.875771 
	C152.889801,55.958080 155.201141,54.443542 158.019516,52.596771 
	C158.729614,54.359516 159.299210,55.773491 160.102554,57.767685 
	C156.720718,58.386326 153.841034,58.913105 150.373199,59.547478 
	C152.669449,61.317738 154.770691,62.937656 157.108978,64.740311 
	C156.036499,66.240158 155.120483,67.521202 153.575531,69.681808 
	C151.681442,66.482864 150.155304,63.905323 148.314575,61.163860 
	C147.999985,60.999939 147.991623,60.991905 147.991623,60.991905 
z"/>
<path fill="#F8B233" opacity="1.000000" stroke="none" 
	d="
M148.003967,61.003891 
	C147.645096,62.603279 147.490082,64.290497 146.841309,65.759666 
	C146.453033,66.638939 145.202896,67.805183 144.501633,67.705566 
	C143.670425,67.587486 142.589890,66.330009 142.408569,65.410355 
	C142.252151,64.617043 142.992035,63.341496 143.719269,62.753929 
	C144.711182,61.952522 146.067169,61.601761 147.629349,61.024849 
	C147.991623,60.991905 147.999985,60.999939 148.003967,61.003891 
z"/>
<path fill="#EF5A74" opacity="1.000000" stroke="none" 
	d="
M144.012115,50.989532 
	C144.164230,51.154102 144.306427,51.327255 144.448624,51.500404 
	C144.331421,51.453503 144.214233,51.406597 144.041504,51.188446 
	C143.985962,51.017197 144.002182,50.998112 144.012115,50.989532 
z"/>
<path fill="#FBFAF8" opacity="1.000000" stroke="none" 
	d="
M122.728134,52.676350 
	C119.862572,53.000874 116.863274,53.010822 113.409103,53.004086 
	C114.573502,49.553329 116.192780,46.119259 117.957733,42.355972 
	C119.600410,45.471760 121.097404,48.916767 122.728134,52.676350 
z"/>
<path fill="#FEF7F8" opacity="1.000000" stroke="none" 
	d="
M133.387207,30.031719 
	C135.366135,32.381226 136.707367,34.787418 133.741623,36.986534 
	C131.098343,38.946541 129.100601,37.799187 127.319519,35.049118 
	C127.319809,31.093313 129.224854,29.391037 133.387207,30.031719 
z"/>
<path fill="#7ECDCB" opacity="1.000000" stroke="none" 
	d="
M122.985771,86.200790 
	C122.992645,81.517822 122.693634,77.023125 128.322357,76.044724 
	C132.454193,75.326515 136.099548,78.194214 136.915741,82.448700 
	C138.653137,91.504967 140.180527,100.608131 142.213623,109.597168 
	C142.854767,112.431847 142.880829,114.807503 140.318192,115.954147 
	C137.919022,117.027641 134.357407,118.340279 132.575226,117.324097 
	C129.518143,115.580986 125.948723,112.432106 125.265579,109.292252 
	C123.664848,101.935059 123.645386,94.233810 122.985771,86.200790 
z"/>
<path fill="#33BCB5" opacity="1.000000" stroke="none" 
	d="
M128.324326,142.186554 
	C123.877289,145.417786 120.524796,145.182236 118.469086,141.783966 
	C116.588043,138.674454 117.593269,134.220795 121.128632,133.172897 
	C123.130508,132.579529 126.100647,133.471024 127.987129,134.693253 
	C130.728897,136.469604 130.846863,139.292404 128.324326,142.186554 
z"/>
<path fill="#33BCB5" opacity="1.000000" stroke="none" 
	d="
M97.991982,126.158356 
	C97.797340,130.157013 95.709915,132.554810 92.330368,131.761261 
	C90.317543,131.288605 87.780952,128.674957 87.472031,126.710533 
	C87.228058,125.159149 89.667175,122.289795 91.545189,121.494377 
	C95.044685,120.012161 96.893135,122.698494 97.991982,126.158356 
z"/>
<path fill="#33BCB5" opacity="1.000000" stroke="none" 
	d="
M91.143997,111.860039 
	C92.438591,114.489632 92.233650,116.642273 89.323082,116.764381 
	C88.278763,116.808197 86.192726,114.722748 86.237106,113.679482 
	C86.360931,110.768471 88.515076,110.567276 91.143997,111.860039 
z"/>
<path fill="#F7FAF1" opacity="1.000000" stroke="none" 
	d="
M106.984886,43.978516 
	C107.098564,43.741055 107.255196,43.548679 107.411835,43.356300 
	C107.436020,43.563927 107.460205,43.771557 107.301315,44.044250 
	C107.118233,44.109318 107.027847,44.023602 106.984886,43.978516 
z"/>
<path fill="#FEC455" opacity="1.000000" stroke="none" 
	d="
M147.999084,57.000683 
	C148.122955,57.142803 148.247726,57.284241 148.372513,57.425678 
	C148.284805,57.376884 148.197098,57.328091 148.055328,57.138832 
	C148.001282,56.998363 148.000000,57.000000 147.999084,57.000683 
z"/>
</svg>