<svg version="1.1" id="Layer_1" xmlns="http://www.w3.org/2000/svg" xmlns:xlink="http://www.w3.org/1999/xlink" x="0px" y="0px"
	 width="100%" viewBox="0 0 240 192" enable-background="new 0 0 240 192" xml:space="preserve">
<path fill="#000000" opacity="1.000000" stroke="none" 
	d="
M76.428467,193.000000 
	C75.038696,188.788589 73.596214,184.646683 73.703247,180.265182 
	C73.769279,177.562622 71.741753,176.593826 70.073532,175.298691 
	C45.595951,156.295898 32.713566,131.282608 32.810509,100.325546 
	C32.903160,70.740005 45.036915,46.426147 68.339371,28.140493 
	C73.003609,24.480419 75.247238,20.506182 75.641273,14.954912 
	C75.762268,13.250313 75.268257,11.204658 77.684898,10.139648 
	C79.228989,13.217236 77.063232,16.750908 78.806931,19.745350 
	C81.366905,19.126259 80.505447,17.081278 80.897415,15.645660 
	C81.281311,14.239576 81.236931,12.684834 82.400017,11.420945 
	C84.257248,12.931550 82.525757,15.314380 83.979187,17.026966 
	C87.648613,17.299337 86.093315,13.714256 87.399757,12.098384 
	C89.298805,11.238781 88.817673,14.029923 90.168091,14.041294 
	C92.330734,14.015803 90.964310,11.363342 92.869347,10.712485 
	C93.940857,12.831948 95.626251,13.102521 98.027817,12.365289 
	C104.709976,10.314000 111.500572,8.758991 118.558212,8.432892 
	C122.164459,8.266264 125.860100,7.982321 129.025543,5.657170 
	C130.563797,4.527248 132.576462,4.226569 134.184464,5.530417 
	C138.790131,9.264893 144.460510,10.089947 149.908447,11.498537 
	C156.708084,13.256611 163.094223,16.063675 169.779861,19.217985 
	C171.870605,15.773881 173.365143,12.052995 175.977997,9.061566 
	C177.232681,7.625106 178.549683,6.284682 180.641464,6.930820 
	C182.577148,7.528736 182.865021,9.410010 182.951294,11.012283 
	C183.183990,15.334296 183.314514,19.673977 183.195480,23.998657 
	C183.110306,27.092766 184.224960,29.154797 186.562302,31.257683 
	C208.134735,50.666199 218.876343,75.132271 218.020386,103.987122 
	C217.262360,129.539795 207.202377,151.537689 188.210464,168.916168 
	C184.458908,172.349014 183.123734,175.665543 183.194534,180.520630 
	C183.251984,184.460571 185.003616,188.878403 181.263657,192.700226 
	C179.285645,193.000000 177.571289,193.000000 175.158798,192.711548 
	C170.678574,189.436707 174.219421,184.815552 171.967804,180.959854 
	C162.376846,187.198730 151.560791,189.755844 141.000000,193.000000 
	C130.645767,193.000000 120.291542,193.000000 109.204674,192.754181 
	C100.588860,190.155609 92.598663,188.143707 84.987526,184.571579 
	C83.874161,187.712601 82.937080,190.356308 82.000000,193.000000 
	C80.285645,193.000000 78.571281,193.000000 76.428467,193.000000 
M72.794640,168.427902 
	C75.044777,160.720459 74.700150,152.689316 75.734695,144.830109 
	C76.202797,141.274048 77.021828,138.036285 74.699867,134.355286 
	C61.465485,113.374863 61.047081,91.828743 72.852600,70.030243 
	C73.549332,68.743736 74.856499,67.549385 74.061020,65.928627 
	C69.356133,56.342720 70.796677,46.459461 72.650612,36.586643 
	C73.071266,34.346516 71.426239,34.319885 69.550468,33.687000 
	C70.638268,32.837933 71.356865,32.387115 71.933723,31.797602 
	C72.584129,31.132925 73.509682,30.519257 72.850945,28.747953 
	C46.812866,49.369598 34.387020,75.840179 36.390606,108.829613 
	C37.844051,132.760880 57.624664,166.410553 73.395821,171.946579 
	C72.771233,170.900772 72.275810,170.071243 71.984596,169.007980 
	C71.984596,169.007980 72.189255,168.774643 72.794640,168.427902 
M94.861145,63.075897 
	C94.021744,64.884102 93.467880,66.907516 92.294670,68.464134 
	C86.492630,76.162346 85.337578,85.080101 85.304169,94.276436 
	C85.249748,109.257721 85.399323,124.239922 85.303497,139.220718 
	C85.282150,142.558212 86.486496,144.902176 89.065933,146.875381 
	C97.563126,153.375534 106.925201,157.676407 117.652092,158.963486 
	C124.740700,159.814041 125.357063,159.499374 125.631660,152.328079 
	C126.298019,134.925674 128.900101,117.673904 129.248749,100.217384 
	C129.417114,91.787224 129.214081,83.375450 129.214081,74.958702 
	C129.214081,70.875710 127.800774,67.403915 124.100853,64.768547 
	C118.218018,60.578339 114.472122,54.701881 112.946472,47.572002 
	C112.521172,45.584469 112.090759,44.179092 109.514626,44.413166 
	C102.685364,45.033695 98.098991,49.083279 96.948051,55.600174 
	C96.545097,57.881760 95.769234,60.097488 94.861145,63.075897 
M152.995407,152.494354 
	C162.260605,147.719452 169.478867,140.752045 174.975983,131.948471 
	C175.763260,130.687653 176.604553,129.480667 176.521423,127.831573 
	C176.093353,119.340523 173.959579,111.436478 168.565277,104.678802 
	C166.805496,102.474251 166.106125,100.090057 166.162155,97.284782 
	C166.387970,85.980591 166.505798,74.674187 166.645309,63.368378 
	C166.667755,61.549000 166.827942,59.697590 165.341125,58.218227 
	C161.431351,54.328007 156.968231,51.284054 151.554810,48.566418 
	C149.408630,56.438919 144.549973,61.795143 138.671539,66.377365 
	C135.876938,68.555748 135.443527,71.763939 135.384644,74.926781 
	C135.202408,84.715248 135.203552,94.507103 135.130798,104.297630 
	C134.998535,122.097572 136.675293,139.803360 137.645142,157.962479 
	C143.155624,157.331863 147.813934,155.296875 152.995407,152.494354 
M185.032578,88.769699 
	C186.953827,96.677216 186.686981,104.606049 185.176620,112.526947 
	C184.555603,115.783791 183.192062,118.997520 183.139145,122.246712 
	C182.938690,134.550964 183.228363,146.862534 183.117599,159.169418 
	C183.091858,162.030609 185.935150,164.615402 183.454468,167.616211 
	C224.833313,134.532486 224.867081,67.540878 183.188217,33.852139 
	C183.188217,41.472500 183.025269,48.582088 183.226257,55.681381 
	C183.531006,66.445587 181.748734,77.316002 185.032578,88.769699 
M173.569031,171.535172 
	C175.802872,159.610214 175.343399,147.487030 176.635178,134.535065 
	C174.341690,137.245071 172.683304,139.228394 170.999512,141.189911 
	C165.056625,148.113052 157.910278,153.441422 149.462692,156.872467 
	C137.477737,161.740219 137.497650,161.661301 137.315063,174.484772 
	C137.245651,179.359741 136.874649,184.230423 136.637878,189.170364 
	C148.449493,187.991348 159.591309,183.941437 170.203201,178.192627 
	C172.657822,176.862885 174.176407,175.230621 173.569031,171.535172 
M93.197220,182.484726 
	C90.904655,181.586166 88.612091,180.687607 86.319527,179.789032 
	C98.013969,186.693008 110.539345,190.126343 125.012329,189.838577 
	C122.634811,187.498306 120.294579,188.879730 118.643105,187.514542 
	C120.769539,185.725571 125.845139,188.863983 125.160027,183.424377 
	C124.468376,177.932938 124.605888,172.441513 124.749390,166.962433 
	C124.849709,163.131531 123.435188,161.579803 119.632866,161.361908 
	C109.621521,160.788208 100.443642,157.642792 92.100166,151.994431 
	C90.467781,150.889343 89.045494,148.904465 85.902870,149.451218 
	C85.902870,157.206757 86.217720,164.863922 85.754204,172.473679 
	C85.557617,175.701096 86.181946,177.116516 89.102455,178.564865 
	C96.738403,182.351715 104.975182,184.134201 113.057083,186.552231 
	C106.133232,187.916550 100.243431,184.255478 93.197220,182.484726 
M79.881371,95.684357 
	C80.109871,87.194649 82.510696,78.325134 75.825821,70.767014 
	C63.468998,86.906731 63.851406,116.580246 76.959290,132.724426 
	C78.634880,120.415581 80.047691,108.601982 79.881371,95.684357 
M97.760788,45.880581 
	C101.118301,46.085079 103.504288,43.411541 106.588097,42.876472 
	C110.637863,42.173798 112.965424,40.541317 113.029861,35.779522 
	C113.080292,32.052990 114.430321,28.282244 115.575188,24.648430 
	C116.917290,20.388557 118.662460,16.255678 120.199791,12.155753 
	C111.567024,12.253453 103.085220,14.118828 94.959335,17.113907 
	C95.330742,26.938707 95.417007,36.232903 97.760788,45.880581 
M166.765625,47.299435 
	C167.133606,40.017151 167.338348,32.720329 167.984589,25.462822 
	C168.145676,23.653709 168.004333,22.692583 166.472702,21.865177 
	C159.890671,18.309475 152.940903,15.826781 145.145264,13.974566 
	C148.987015,23.839428 152.307251,33.127247 152.221054,43.210968 
	C152.210983,44.389790 152.311523,45.645840 153.369064,46.362988 
	C157.403122,49.098625 161.488632,51.758408 165.574112,54.459209 
	C167.229706,52.189785 166.434860,50.116795 166.765625,47.299435 
M90.443199,45.048473 
	C92.926399,38.617970 90.958031,31.915232 91.615082,25.370014 
	C91.699409,24.529999 91.960709,23.249989 89.780128,23.150108 
	C88.615829,30.302397 90.035797,37.442875 90.443199,45.048473 
M85.461166,40.610271 
	C85.461166,35.672272 85.461166,30.734274 85.461166,25.796274 
	C82.236488,32.050957 84.165161,38.539326 84.633942,45.009579 
	C84.868202,43.800522 85.102463,42.591461 85.461166,40.610271 
M77.780281,30.325581 
	C76.953491,35.329960 77.056671,40.323574 77.966156,45.342403 
	C79.281036,40.564060 79.919868,35.733646 79.697998,30.807283 
	C79.657440,29.906567 79.327553,29.141352 77.780281,30.325581 
M183.144455,100.551834 
	C182.959015,104.308777 182.773575,108.065720 182.588135,111.822662 
	C184.109055,105.177032 183.914886,98.501602 183.141937,91.816086 
	C183.141937,94.421349 183.141937,97.026604 183.144455,100.551834 
z"/>
<path fill="#000000" opacity="1.000000" stroke="none" 
	d="
M39.447392,116.407394 
	C38.679485,113.935425 38.470684,111.870613 39.455868,109.765617 
	C41.152115,118.851242 43.798027,127.635254 46.532619,136.415451 
	C42.455055,130.493973 40.656212,123.776329 39.447392,116.407394 
z"/>
<path fill="#000000" opacity="1.000000" stroke="none" 
	d="
M71.882492,169.124847 
	C65.324295,166.331253 61.465038,160.809601 57.314774,155.580566 
	C57.596306,155.279449 57.877842,154.978333 58.159374,154.677216 
	C62.705780,159.200409 67.252190,163.723602 71.993927,168.510712 
	C72.189255,168.774643 71.984596,169.007980 71.882492,169.124847 
z"/>
<path fill="#000000" opacity="1.000000" stroke="none" 
	d="
M41.911770,74.785782 
	C42.306683,74.096992 42.597683,73.718971 42.888683,73.340958 
	C42.613575,80.188866 40.259487,86.627357 39.396473,93.341667 
	C38.398026,87.017883 40.051476,81.050499 41.911770,74.785782 
z"/>
<path fill="#000000" opacity="1.000000" stroke="none" 
	d="
M199.615265,147.407227 
	C198.675140,148.747742 198.240189,150.145157 195.631958,150.266434 
	C198.268311,145.706589 200.638397,141.607254 203.008484,137.507935 
	C203.659042,141.445831 201.318192,144.115158 199.615265,147.407227 
z"/>
</svg>