<svg version="1.1" id="Layer_1" xmlns="http://www.w3.org/2000/svg" xmlns:xlink="http://www.w3.org/1999/xlink" x="0px" y="0px"
	 width="100%" viewBox="0 0 124 124" enable-background="new 0 0 124 124" xml:space="preserve">
<path fill="#FFFFFE" opacity="1.000000" stroke="none" 
	d="
M88.000000,125.000000 
	C58.666668,125.000000 29.833334,125.000000 1.000000,125.000000 
	C1.000000,83.666664 1.000000,42.333332 1.000000,1.000000 
	C42.333332,1.000000 83.666664,1.000000 125.000000,1.000000 
	C125.000000,42.333332 125.000000,83.666664 125.000000,125.000000 
	C112.833336,125.000000 100.666664,125.000000 88.000000,125.000000 
M86.966492,63.402901 
	C86.966492,63.402901 86.950462,63.861671 86.185928,63.853844 
	C85.582428,62.314110 84.978920,60.774380 84.012413,58.308491 
	C79.970634,60.202862 75.959206,62.083012 71.992935,64.004501 
	C71.992935,64.004501 71.968750,63.951851 71.225586,64.015823 
	C68.135910,65.040344 65.046242,66.064865 62.005024,67.011017 
	C62.005024,67.011017 61.936977,67.066582 62.008175,66.326981 
	C61.661003,64.913834 61.313835,63.500690 61.130703,61.478294 
	C61.067955,61.067108 61.005207,60.655922 61.556419,59.759243 
	C61.412239,57.827633 61.268055,55.896023 61.100945,53.178951 
	C61.082996,52.130314 61.065052,51.081676 61.679310,49.594345 
	C61.759953,48.080254 61.840591,46.566158 61.839085,44.319939 
	C60.590462,43.462677 59.341835,42.605412 57.573898,41.157703 
	C51.368866,42.921581 45.163830,44.685459 38.276455,46.724327 
	C17.716148,57.122429 18.307774,79.210968 35.313938,89.868446 
	C41.864132,92.189926 48.414326,94.511406 55.788582,96.988976 
	C57.183468,97.006615 58.578354,97.024261 60.482986,97.396782 
	C61.664524,97.278450 62.846066,97.160126 64.882690,97.143448 
	C66.598938,97.046089 68.315186,96.948738 70.812790,96.891533 
	C78.546219,95.115746 86.390327,93.583221 92.704475,87.010262 
	C103.126945,80.668617 104.100647,65.030113 98.021446,56.451099 
	C96.683998,54.563679 95.419464,52.736889 92.200203,55.005676 
	C90.145554,56.324100 88.090904,57.642529 85.978050,59.667671 
	C86.333549,60.761955 86.689041,61.856243 86.966492,63.402901 
M67.851013,35.682419 
	C68.515656,37.398418 69.180298,39.114418 69.017151,41.012623 
	C67.379112,47.413429 67.265541,53.722626 69.399223,61.122089 
	C72.254234,58.117233 74.152107,56.119743 76.746147,53.919937 
	C84.145714,50.729256 91.585861,47.627037 98.907852,44.267284 
	C100.244057,43.654160 101.098412,41.990902 101.995338,40.299011 
	C93.282799,31.907190 82.370285,29.177114 70.787498,28.292824 
	C67.067085,28.008789 67.612343,30.652630 67.862785,33.635685 
	C67.893944,34.058861 67.925110,34.482037 67.851013,35.682419 
z"/>
<path fill="#F1E473" opacity="1.000000" stroke="none" 
	d="
M60.966667,62.087547 
	C61.313835,63.500690 61.661003,64.913834 61.656136,66.837082 
	C59.195168,68.388046 57.086239,69.428902 54.926281,70.494942 
	C58.758598,76.554611 61.814701,76.348145 65.596550,70.151413 
	C64.402390,69.146858 63.179478,68.118118 61.956566,67.089378 
	C65.046242,66.064865 68.135910,65.040344 71.580566,64.320839 
	C72.155952,65.402771 72.376350,66.179688 72.596741,66.956604 
	C73.924004,66.514595 75.251259,66.072578 77.552299,65.306274 
	C74.822960,64.652199 73.385361,64.307678 71.947769,63.963161 
	C75.959206,62.083012 79.970634,60.202862 84.012413,58.308491 
	C84.978920,60.774380 85.582428,62.314110 86.896088,63.905388 
	C88.388748,63.707691 89.171242,63.458454 90.338860,63.145519 
	C90.548416,62.049290 90.718323,60.485104 90.123123,60.098331 
	C88.992073,59.363361 87.423264,59.302044 86.036263,58.960953 
	C88.090904,57.642529 90.145554,56.324100 92.580254,55.380840 
	C93.056503,56.253021 93.152710,56.750042 93.176888,57.651913 
	C92.703323,62.026226 95.671577,66.371193 91.345345,69.976891 
	C87.683029,70.181007 84.454735,70.359901 81.034454,70.549446 
	C82.522354,77.045944 86.559959,75.972748 90.000053,76.321655 
	C87.164932,79.579155 84.509361,82.662926 79.935333,81.581665 
	C79.688194,80.361893 79.358597,79.496376 79.008789,78.361359 
	C77.617287,78.037056 76.245995,77.982246 74.558151,78.110886 
	C74.161278,79.007591 74.080963,79.720856 74.040756,80.583786 
	C74.080864,80.733452 74.017670,81.036835 74.131516,81.338692 
	C74.972946,81.956322 75.700523,82.272095 76.336723,82.976715 
	C71.776863,87.524742 64.680061,89.177788 61.020653,86.607407 
	C60.354195,84.589798 59.660122,82.883026 58.966049,81.176262 
	C58.409027,81.459427 57.852005,81.742592 57.294983,82.025757 
	C58.209503,83.704926 59.124023,85.384094 59.844345,87.352112 
	C56.772015,87.363754 53.889412,87.124313 51.018780,86.783897 
	C50.260803,86.694016 49.553959,86.237656 48.799568,86.042755 
	C41.468071,84.148697 38.034210,77.410400 32.926743,72.834785 
	C31.432657,71.496284 32.213486,67.618439 32.089020,65.257874 
	C34.264805,69.661758 37.338310,70.403496 42.030132,68.308685 
	C44.189774,68.486801 46.289349,68.318962 48.388927,68.151123 
	C48.287807,67.587822 48.186691,67.024529 48.085575,66.461227 
	C46.044559,66.965065 44.003540,67.468910 41.978745,67.586136 
	C41.095383,61.393925 36.501476,63.432949 33.191544,62.674988 
	C34.479733,60.769943 35.649166,59.187630 36.987110,57.923927 
	C39.157990,61.051960 41.994968,60.967136 44.785168,60.101406 
	C45.703674,59.816418 47.064106,57.890682 46.871326,57.594433 
	C45.752541,55.875160 44.230633,54.418209 42.876617,52.473751 
	C45.546864,51.327881 48.185566,50.580795 50.884731,50.225029 
	C53.071304,56.807198 54.706215,57.344967 61.123871,53.964413 
	C61.268055,55.896023 61.412239,57.827633 60.981949,59.863129 
	C59.549110,60.130432 58.690746,60.293846 57.545227,60.413700 
	C56.774284,60.574299 56.290493,60.778461 55.557285,60.794827 
	C51.867107,57.112778 52.646145,61.296993 50.770462,62.774967 
	C53.250340,62.964882 54.728828,63.078106 56.489159,63.092247 
	C57.234360,62.371243 57.697720,61.749325 58.464706,61.152550 
	C59.501106,61.480976 60.233887,61.784264 60.966667,62.087547 
M47.607224,76.128601 
	C47.320580,76.312393 47.033939,76.496185 46.747295,76.679977 
	C46.961796,76.846703 47.176296,77.013428 47.331993,77.386642 
	C47.331993,77.386642 47.291195,77.597427 46.881115,78.189415 
	C45.763176,78.763809 44.645237,79.338196 43.115616,80.124107 
	C45.076656,80.874786 46.531044,81.431526 48.642651,82.000282 
	C49.505680,81.453766 50.368713,80.907242 51.674492,79.878601 
	C51.083828,78.681725 50.493164,77.484840 49.343250,76.074142 
	C48.946819,76.101997 48.550385,76.129852 47.607224,76.128601 
M67.242546,81.420052 
	C67.187851,80.548241 67.133156,79.676430 67.078468,78.804619 
	C66.462303,79.122757 65.846130,79.440887 65.229958,79.759018 
	C65.821236,80.504829 66.412514,81.250641 66.708015,82.572304 
	C65.649200,83.312683 64.590393,84.053070 63.531578,84.793449 
	C63.713528,85.202484 63.895477,85.611511 64.077423,86.020546 
	C65.647423,85.420502 67.217430,84.820465 68.787430,84.220421 
	C68.189980,83.481483 67.592522,82.742538 67.242546,81.420052 
M52.220226,67.382439 
	C47.959332,68.327011 50.291569,70.567818 50.723724,72.435059 
	C51.178787,72.512527 51.633850,72.590004 52.088913,72.667473 
	C52.306572,71.095581 52.524227,69.523682 52.220226,67.382439 
M76.799446,71.077011 
	C74.474152,69.118347 72.795273,69.805992 71.353333,71.463585 
	C71.456505,71.982414 71.559677,72.501251 71.662842,73.020088 
	C73.389832,72.595047 75.116814,72.170006 76.799446,71.077011 
M61.090225,78.158974 
	C61.121803,78.778267 60.938297,79.776993 61.227871,79.941139 
	C61.919010,80.332916 62.833305,80.331009 63.657478,80.488091 
	C63.806980,80.141701 63.956482,79.795319 64.105980,79.448929 
	C63.326496,78.979248 62.547012,78.509560 61.090225,78.158974 
M42.599689,71.525208 
	C42.871944,71.817627 43.144199,72.110039 43.416454,72.402458 
	C43.519707,72.297752 43.721523,72.112015 43.711792,72.100189 
	C43.470009,71.806053 43.205872,71.530281 42.599689,71.525208 
M47.291622,72.895027 
	C47.547596,73.167969 47.798691,73.446159 48.072090,73.700356 
	C48.087917,73.715073 48.284969,73.534874 48.397682,73.445381 
	C48.129372,73.159081 47.861065,72.872772 47.291622,72.895027 
z"/>
<path fill="#E92710" opacity="1.000000" stroke="none" 
	d="
M79.852890,81.935921 
	C84.509361,82.662926 87.164932,79.579155 90.284081,76.111221 
	C91.034782,73.693802 91.407082,71.822739 91.779373,69.951675 
	C95.671577,66.371193 92.703323,62.026226 93.507431,57.569061 
	C94.273285,61.242603 94.827820,65.399307 94.926704,69.566826 
	C94.984154,71.987907 94.310051,74.426353 93.690308,77.060913 
	C90.272835,79.893425 87.130173,82.522011 83.629395,85.161758 
	C76.584221,88.134666 70.312141,92.433144 62.347721,90.993393 
	C55.935474,89.834229 49.473461,88.950340 43.023094,87.965698 
	C43.012653,87.987083 43.058506,87.986130 42.949547,87.722267 
	C42.531807,87.258461 42.223026,87.058525 41.682892,86.624512 
	C37.933155,83.279594 34.414772,80.168755 30.772377,76.729927 
	C25.907990,70.230637 26.127081,63.608315 30.065866,57.465099 
	C32.286831,54.001114 36.015736,51.503960 39.467781,48.458832 
	C46.400627,47.406609 52.372700,44.924755 58.093212,41.748150 
	C59.341835,42.605412 60.590462,43.462677 61.503551,44.755524 
	C58.535458,45.865093 55.837009,46.361580 53.303413,47.302147 
	C52.317268,47.668243 51.702778,49.035461 50.910294,49.905869 
	C50.901588,49.865067 50.824265,49.833714 50.824265,49.833714 
	C48.185566,50.580795 45.546864,51.327881 42.529785,52.492805 
	C41.058659,53.570614 39.965919,54.230572 38.935406,54.941528 
	C38.997631,54.992523 38.890118,54.871849 38.596619,54.953720 
	C37.808281,55.892166 37.313438,56.748741 36.818596,57.605316 
	C35.649166,59.187630 34.479733,60.769943 32.935272,62.822163 
	C32.357368,63.829540 32.154491,64.367012 31.951618,64.904488 
	C32.213486,67.618439 31.432657,71.496284 32.926743,72.834785 
	C38.034210,77.410400 41.468071,84.148697 48.799568,86.042755 
	C49.553959,86.237656 50.260803,86.694016 51.018780,86.783897 
	C53.889412,87.124313 56.772015,87.363754 60.083740,87.321480 
	C60.517334,87.001999 60.993038,86.918259 60.993038,86.918259 
	C64.680061,89.177788 71.776863,87.524742 76.319061,82.988998 
	C76.392792,82.612427 76.353569,82.622810 76.652214,82.724457 
	C77.662277,82.506340 78.373695,82.186577 79.276711,81.888046 
	C79.468300,81.909271 79.852890,81.935921 79.852890,81.935921 
z"/>
<path fill="#E8B786" opacity="1.000000" stroke="none" 
	d="
M43.033531,87.944321 
	C49.473461,88.950340 55.935474,89.834229 62.347721,90.993393 
	C70.312141,92.433144 76.584221,88.134666 83.623962,85.515808 
	C81.995918,90.953346 77.423233,92.851822 72.933739,94.896584 
	C71.886719,95.373444 70.994743,96.190727 70.031433,96.851379 
	C68.315186,96.948738 66.598938,97.046089 64.243668,96.823586 
	C62.394180,96.683121 61.183712,96.862511 59.973240,97.041901 
	C58.578354,97.024261 57.183468,97.006615 55.308441,96.568680 
	C53.844189,95.708206 52.743317,95.425774 51.897026,94.799385 
	C48.895573,92.577805 45.981014,90.238823 43.033531,87.944321 
z"/>
<path fill="#DF9D5B" opacity="1.000000" stroke="none" 
	d="
M39.065369,48.571281 
	C36.015736,51.503960 32.286831,54.001114 30.065866,57.465099 
	C26.127081,63.608315 25.907990,70.230637 30.540180,76.950470 
	C31.937517,81.440552 33.443039,85.382103 34.948563,89.323654 
	C18.307774,79.210968 17.716148,57.122429 38.644165,47.118664 
	C39.029705,47.865761 39.047535,48.218521 39.065369,48.571281 
z"/>
<path fill="#DF9D59" opacity="1.000000" stroke="none" 
	d="
M93.965134,76.856987 
	C94.310051,74.426353 94.984154,71.987907 94.926704,69.566826 
	C94.827820,65.399307 94.273285,61.242603 93.579453,57.164207 
	C93.152710,56.750042 93.056503,56.253021 92.948532,55.375912 
	C95.419464,52.736889 96.683998,54.563679 98.021446,56.451099 
	C104.100647,65.030113 103.126945,80.668617 92.359116,86.712006 
	C92.664223,83.228165 93.314674,80.042572 93.965134,76.856987 
z"/>
<path fill="#E1A467" opacity="1.000000" stroke="none" 
	d="
M67.949936,33.001923 
	C67.612343,30.652630 67.067085,28.008789 70.787498,28.292824 
	C82.370285,29.177114 93.282799,31.907190 101.799797,40.602009 
	C99.456367,41.618732 97.308472,42.332458 95.177353,42.727158 
	C94.311943,36.910686 86.943970,33.624596 80.653915,36.131531 
	C79.920197,36.485184 79.443504,36.745171 78.943268,36.761307 
	C78.731880,36.086155 78.544022,35.654861 78.274132,34.880989 
	C75.061432,32.137234 71.758621,30.883528 67.949936,33.001923 
z"/>
<path fill="#EFE274" opacity="1.000000" stroke="none" 
	d="
M76.049988,54.122257 
	C74.152107,56.119743 72.254234,58.117233 69.399223,61.122089 
	C67.265541,53.722626 67.379112,47.413429 69.681839,41.220940 
	C72.489914,41.659962 74.633308,41.890659 77.027435,42.148346 
	C77.027435,43.245380 77.027435,44.366226 76.470078,45.366989 
	C75.606407,45.471928 75.300102,45.696949 74.907715,45.938667 
	C74.821632,45.955368 74.649582,45.989334 74.306580,46.051033 
	C69.562187,47.909138 69.562187,47.909138 71.848145,50.533710 
	C72.558113,49.704372 73.279259,48.861973 73.975883,48.260506 
	C73.951355,48.501438 73.955925,48.986561 74.124817,49.246033 
	C74.862701,49.734261 75.431694,49.963013 75.999840,50.583965 
	C76.015991,52.024864 76.032990,53.073559 76.049988,54.122257 
z"/>
<path fill="#E3AC73" opacity="1.000000" stroke="none" 
	d="
M35.131248,89.596054 
	C33.443039,85.382103 31.937517,81.440552 30.664192,77.278458 
	C34.414772,80.168755 37.933155,83.279594 41.810768,86.872925 
	C42.466171,87.565659 42.762341,87.775894 43.058510,87.986130 
	C43.058506,87.986130 43.012653,87.987083 43.023094,87.965698 
	C45.981014,90.238823 48.895573,92.577805 51.897026,94.799385 
	C52.743317,95.425774 53.844189,95.708206 54.896408,96.490639 
	C48.414326,94.511406 41.864132,92.189926 35.131248,89.596054 
z"/>
<path fill="#E3AC73" opacity="1.000000" stroke="none" 
	d="
M93.690308,77.060913 
	C93.314674,80.042572 92.664223,83.228165 92.028000,86.823120 
	C86.390327,93.583221 78.546219,95.115746 70.422112,96.871460 
	C70.994743,96.190727 71.886719,95.373444 72.933739,94.896584 
	C77.423233,92.851822 81.995918,90.953346 83.982086,85.504654 
	C87.130173,82.522011 90.272835,79.893425 93.690308,77.060913 
z"/>
<path fill="#EBEE72" opacity="1.000000" stroke="none" 
	d="
M77.027435,45.487068 
	C77.027435,44.366226 77.027435,43.245380 77.027435,42.148346 
	C74.633308,41.890659 72.489914,41.659962 70.095726,41.129837 
	C69.180298,39.114418 68.515656,37.398418 68.211395,35.383995 
	C69.122093,35.403656 69.672417,35.721741 70.331192,36.362457 
	C72.357857,36.776707 74.276070,36.868320 76.381927,36.956532 
	C76.569565,36.953129 76.944664,36.966633 77.281631,36.983452 
	C78.067993,37.001900 78.517403,37.003529 78.966805,37.005157 
	C79.443504,36.745171 79.920197,36.485184 80.821899,36.426201 
	C82.851059,37.746231 84.455208,38.865257 85.731628,40.126030 
	C84.304718,41.199177 82.122963,42.610767 82.287476,42.981647 
	C83.154594,44.936565 83.664314,47.788799 86.763252,47.308331 
	C83.703697,49.866875 82.105309,47.253819 79.747086,45.977074 
	C79.070183,46.139267 78.821068,46.277657 78.262711,46.357624 
	C77.644798,46.028492 77.336113,45.757782 77.027435,45.487068 
z"/>
<path fill="#F3DC77" opacity="1.000000" stroke="none" 
	d="
M80.174866,45.953278 
	C82.105309,47.253819 83.703697,49.866875 87.120529,47.279121 
	C89.161255,45.970432 90.626984,44.947643 92.440247,43.961876 
	C93.578720,43.681324 94.369652,43.363754 95.160583,43.046188 
	C97.308472,42.332458 99.456367,41.618732 101.889725,40.858704 
	C101.098412,41.990902 100.244057,43.654160 98.907852,44.267284 
	C91.585861,47.627037 84.145714,50.729256 76.398071,54.021095 
	C76.032990,53.073559 76.015991,52.024864 76.201942,50.476921 
	C76.669487,49.818150 76.891861,49.612881 77.395554,49.291977 
	C78.147774,48.558281 78.576462,47.894474 79.266632,47.086193 
	C79.743698,46.612236 79.959290,46.282757 80.174866,45.953278 
z"/>
<path fill="#E6B07D" opacity="1.000000" stroke="none" 
	d="
M39.467781,48.458832 
	C39.047535,48.218521 39.029705,47.865761 38.985336,46.981167 
	C45.163830,44.685459 51.368866,42.921581 57.833557,41.452927 
	C52.372700,44.924755 46.400627,47.406609 39.467781,48.458832 
z"/>
<path fill="#ECB842" opacity="1.000000" stroke="none" 
	d="
M61.112408,53.571682 
	C54.706215,57.344967 53.071304,56.807198 50.884731,50.225029 
	C50.824265,49.833714 50.901588,49.865067 51.311455,49.926559 
	C54.829914,50.003048 57.938511,50.018044 61.047104,50.033043 
	C61.065052,51.081676 61.082996,52.130314 61.112408,53.571682 
z"/>
<path fill="#F1E473" opacity="1.000000" stroke="none" 
	d="
M61.363205,49.813694 
	C57.938511,50.018044 54.829914,50.003048 51.320160,49.967361 
	C51.702778,49.035461 52.317268,47.668243 53.303413,47.302147 
	C55.837009,46.361580 58.535458,45.865093 61.544624,45.121590 
	C61.840591,46.566158 61.759953,48.080254 61.363205,49.813694 
z"/>
<path fill="#E63B17" opacity="1.000000" stroke="none" 
	d="
M76.944664,36.966633 
	C76.944664,36.966633 76.569565,36.953129 76.172485,36.607155 
	C73.924515,36.187393 72.073631,36.113609 70.222740,36.039825 
	C69.672417,35.721741 69.122093,35.403656 68.264023,34.995392 
	C67.925110,34.482037 67.893944,34.058861 67.906357,33.318802 
	C71.758621,30.883528 75.061432,32.137234 78.098907,35.101631 
	C77.652023,36.098774 77.298340,36.532703 76.944664,36.966633 
z"/>
<path fill="#EC4F69" opacity="1.000000" stroke="none" 
	d="
M86.007156,59.314316 
	C87.423264,59.302044 88.992073,59.363361 90.123123,60.098331 
	C90.718323,60.485104 90.548416,62.049290 90.246780,62.810005 
	C89.858040,62.324051 89.946495,62.109917 90.228455,61.867722 
	C90.412743,61.668732 90.403519,61.497803 90.394295,61.326870 
	C90.280083,61.529144 90.165871,61.731415 89.770966,62.089100 
	C88.675034,62.479851 87.859779,62.715191 87.044533,62.950531 
	C86.689041,61.856243 86.333549,60.761955 86.007156,59.314316 
z"/>
<path fill="#E3AC73" opacity="1.000000" stroke="none" 
	d="
M60.228111,97.219345 
	C61.183712,96.862511 62.394180,96.683121 63.816128,96.772758 
	C62.846066,97.160126 61.664524,97.278450 60.228111,97.219345 
z"/>
<path fill="#F3AFBD" opacity="1.000000" stroke="none" 
	d="
M87.005508,63.176720 
	C87.859779,62.715191 88.675034,62.479851 89.734085,62.100159 
	C89.977890,61.955803 90.034943,61.895782 90.034943,61.895782 
	C89.946495,62.109917 89.858040,62.324051 89.861664,62.873703 
	C89.171242,63.458454 88.388748,63.707691 87.278358,63.909302 
	C86.950462,63.861671 86.966492,63.402901 87.005508,63.176720 
z"/>
<path fill="#E7675D" opacity="1.000000" stroke="none" 
	d="
M57.832386,60.457268 
	C58.690746,60.293846 59.549110,60.130432 60.674969,60.105877 
	C61.005207,60.655922 61.067955,61.067108 61.048683,61.782921 
	C60.233887,61.784264 59.501106,61.480976 58.351830,60.999855 
	C57.935326,60.822018 57.832386,60.457268 57.832386,60.457268 
z"/>
<path fill="#ECB742" opacity="1.000000" stroke="none" 
	d="
M91.345345,69.976891 
	C91.407082,71.822739 91.034782,73.693802 90.378456,75.775299 
	C86.559959,75.972748 82.522354,77.045944 81.034454,70.549446 
	C84.454735,70.359901 87.683029,70.181007 91.345345,69.976891 
z"/>
<path fill="#EDB942" opacity="1.000000" stroke="none" 
	d="
M61.980797,67.050201 
	C63.179478,68.118118 64.402390,69.146858 65.596550,70.151413 
	C61.814701,76.348145 58.758598,76.554611 54.926281,70.494942 
	C57.086239,69.428902 59.195168,68.388046 61.620537,67.206886 
	C61.936977,67.066582 62.005024,67.011017 61.980797,67.050201 
z"/>
<path fill="#EEB943" opacity="1.000000" stroke="none" 
	d="
M32.089020,65.257874 
	C32.154491,64.367012 32.357368,63.829540 32.816517,63.144894 
	C36.501476,63.432949 41.095383,61.393925 41.997780,67.599510 
	C42.000591,67.999512 41.970070,67.962730 41.970070,67.962730 
	C37.338310,70.403496 34.264805,69.661758 32.089020,65.257874 
z"/>
<path fill="#D3E165" opacity="1.000000" stroke="none" 
	d="
M36.987106,57.923927 
	C37.313438,56.748741 37.808281,55.892166 38.650955,55.357571 
	C40.803577,56.716946 42.608368,57.754345 44.413158,58.791744 
	C44.701763,58.040424 44.990368,57.289104 45.278973,56.537785 
	C43.143707,55.988701 41.008446,55.439617 38.873180,54.890533 
	C39.965919,54.230572 41.058659,53.570614 42.498234,52.891594 
	C44.230633,54.418209 45.752541,55.875160 46.871326,57.594433 
	C47.064106,57.890682 45.703674,59.816418 44.785168,60.101406 
	C41.994968,60.967136 39.157990,61.051960 36.987106,57.923927 
z"/>
<path fill="#E5E56D" opacity="1.000000" stroke="none" 
	d="
M52.481056,67.667114 
	C52.524227,69.523682 52.306572,71.095581 52.088913,72.667473 
	C51.633850,72.590004 51.178787,72.512527 50.723724,72.435059 
	C50.291569,70.567818 47.959332,68.327011 52.481056,67.667114 
z"/>
<path fill="#E5EB6F" opacity="1.000000" stroke="none" 
	d="
M76.821625,71.410995 
	C75.116814,72.170006 73.389832,72.595047 71.662842,73.020088 
	C71.559677,72.501251 71.456505,71.982414 71.353333,71.463585 
	C72.795273,69.805992 74.474152,69.118347 76.821625,71.410995 
z"/>
<path fill="#F197A4" opacity="1.000000" stroke="none" 
	d="
M56.207317,63.191330 
	C54.728828,63.078106 53.250340,62.964882 50.770462,62.774967 
	C52.646145,61.296993 51.867107,57.112778 55.612606,61.162289 
	C56.014004,62.208805 56.110661,62.700069 56.207317,63.191330 
z"/>
<path fill="#D9E969" opacity="1.000000" stroke="none" 
	d="
M66.995071,82.003601 
	C67.592522,82.742538 68.189980,83.481483 68.787430,84.220421 
	C67.217430,84.820465 65.647423,85.420502 64.077423,86.020546 
	C63.895477,85.611511 63.713528,85.202484 63.531578,84.793449 
	C64.590393,84.053070 65.649200,83.312683 66.853996,82.286148 
	C66.999977,82.000000 66.995071,82.003601 66.995071,82.003601 
z"/>
<path fill="#EF7D8C" opacity="1.000000" stroke="none" 
	d="
M47.985428,81.988258 
	C46.531044,81.431526 45.076656,80.874786 43.115616,80.124107 
	C44.645237,79.338196 45.763176,78.763809 47.424599,77.891739 
	C48.413795,77.658318 48.859505,77.722565 49.359734,78.149651 
	C49.293499,78.984848 49.172745,79.457199 48.748089,80.057503 
	C48.291267,80.786385 48.138348,81.387321 47.985428,81.988258 
z"/>
<path fill="#E5E56D" opacity="1.000000" stroke="none" 
	d="
M41.981560,67.986130 
	C44.003540,67.468910 46.044559,66.965065 48.085575,66.461227 
	C48.186691,67.024529 48.287807,67.587822 48.388927,68.151123 
	C46.289349,68.318962 44.189774,68.486801 42.030132,68.308685 
	C41.970070,67.962730 42.000591,67.999512 41.981560,67.986130 
z"/>
<path fill="#D9E969" opacity="1.000000" stroke="none" 
	d="
M61.020653,86.607407 
	C60.993038,86.918259 60.517334,87.001999 60.277939,87.032639 
	C59.124023,85.384094 58.209503,83.704926 57.294983,82.025757 
	C57.852005,81.742592 58.409027,81.459427 58.966049,81.176262 
	C59.660122,82.883026 60.354195,84.589798 61.020653,86.607407 
z"/>
<path fill="#EF7082" opacity="1.000000" stroke="none" 
	d="
M74.874710,77.927444 
	C76.245995,77.982246 77.617287,78.037056 78.986755,78.780457 
	C78.982399,80.023666 78.979858,80.578293 78.627899,81.136963 
	C77.821304,81.053368 77.364136,80.965706 76.771980,80.615280 
	C76.091965,80.155647 75.546936,79.958778 74.997421,79.455986 
	C74.953522,78.742523 74.914116,78.334984 74.874710,77.927444 
z"/>
<path fill="#E5EB6F" opacity="1.000000" stroke="none" 
	d="
M71.970352,63.983833 
	C73.385361,64.307678 74.822960,64.652199 77.552299,65.306274 
	C75.251259,66.072578 73.924004,66.514595 72.596741,66.956604 
	C72.376350,66.179688 72.155952,65.402771 71.952148,64.288849 
	C71.968750,63.951851 71.992935,64.004501 71.970352,63.983833 
z"/>
<path fill="#D9E969" opacity="1.000000" stroke="none" 
	d="
M61.428875,78.099426 
	C62.547012,78.509560 63.326496,78.979248 64.105980,79.448929 
	C63.956482,79.795319 63.806980,80.141701 63.657478,80.488091 
	C62.833305,80.331009 61.919010,80.332916 61.227871,79.941139 
	C60.938297,79.776993 61.121803,78.778267 61.428875,78.099426 
z"/>
<path fill="#D9E969" opacity="1.000000" stroke="none" 
	d="
M67.001884,81.998230 
	C66.412514,81.250641 65.821236,80.504829 65.229958,79.759018 
	C65.846130,79.440887 66.462303,79.122757 67.078468,78.804619 
	C67.133156,79.676430 67.187851,80.548241 67.118805,81.711823 
	C66.995071,82.003601 66.999977,82.000000 67.001884,81.998230 
z"/>
<path fill="#EB3058" opacity="1.000000" stroke="none" 
	d="
M49.051987,79.929558 
	C49.172745,79.457199 49.293499,78.984848 49.524387,78.017532 
	C49.723846,77.111038 49.813175,76.699501 49.902500,76.287964 
	C50.493164,77.484840 51.083828,78.681725 51.071980,80.151543 
	C49.996975,80.259506 49.524483,80.094528 49.051987,79.929558 
z"/>
<path fill="#F5C6D0" opacity="1.000000" stroke="none" 
	d="
M48.748085,80.057503 
	C49.524483,80.094528 49.996975,80.259506 50.850605,80.392609 
	C50.368713,80.907242 49.505680,81.453766 48.314041,81.994270 
	C48.138348,81.387321 48.291267,80.786385 48.748085,80.057503 
z"/>
<path fill="#EA003A" opacity="1.000000" stroke="none" 
	d="
M49.622875,76.181053 
	C49.813175,76.699501 49.723846,77.111038 49.469868,77.654694 
	C48.859505,77.722565 48.413795,77.658318 47.629639,77.595749 
	C47.291195,77.597427 47.331993,77.386642 47.565411,77.183380 
	C47.982525,76.734161 48.100903,76.460030 48.153954,76.157707 
	C48.550385,76.129852 48.946819,76.101997 49.622875,76.181053 
z"/>
<path fill="#EA1544" opacity="1.000000" stroke="none" 
	d="
M56.489159,63.092247 
	C56.110661,62.700069 56.014004,62.208805 55.862026,61.350082 
	C56.290493,60.778461 56.774284,60.574299 57.545227,60.413704 
	C57.832386,60.457268 57.935326,60.822018 58.048203,60.974712 
	C57.697720,61.749325 57.234360,62.371243 56.489159,63.092247 
z"/>
<path fill="#E92710" opacity="1.000000" stroke="none" 
	d="
M76.410446,82.600143 
	C75.700523,82.272095 74.972946,81.956322 74.454727,81.443123 
	C75.115936,81.278854 75.567780,81.312019 76.050476,81.565353 
	C76.125427,82.079788 76.216179,82.358887 76.353569,82.622810 
	C76.353569,82.622810 76.392792,82.612427 76.410446,82.600143 
z"/>
<path fill="#FAE2E9" opacity="1.000000" stroke="none" 
	d="
M76.019630,81.345184 
	C75.567780,81.312019 75.115936,81.278854 74.340881,81.141266 
	C74.017670,81.036835 74.080864,80.733452 74.294556,80.420059 
	C74.672806,79.991745 74.837357,79.876831 75.001915,79.761909 
	C75.546936,79.958778 76.091965,80.155647 76.531479,80.696701 
	C76.290527,81.142326 76.155075,81.243759 76.019630,81.345184 
z"/>
<path fill="#E7425F" opacity="1.000000" stroke="none" 
	d="
M78.977325,81.132912 
	C78.979858,80.578293 78.982399,80.023666 79.006973,79.049957 
	C79.358597,79.496376 79.688194,80.361893 79.935333,81.581665 
	C79.852890,81.935921 79.468300,81.909271 79.258179,81.703865 
	C79.048065,81.498459 78.977325,81.132912 78.977325,81.132912 
z"/>
<path fill="#E5E56D" opacity="1.000000" stroke="none" 
	d="
M42.772697,71.388229 
	C43.205872,71.530281 43.470009,71.806053 43.711792,72.100189 
	C43.721523,72.112015 43.519707,72.297752 43.416454,72.402458 
	C43.144199,72.110039 42.871944,71.817627 42.772697,71.388229 
z"/>
<path fill="#E5E56D" opacity="1.000000" stroke="none" 
	d="
M47.442188,72.740753 
	C47.861065,72.872772 48.129372,73.159081 48.397682,73.445381 
	C48.284969,73.534874 48.087917,73.715073 48.072090,73.700356 
	C47.798691,73.446159 47.547596,73.167969 47.442188,72.740753 
z"/>
<path fill="#EF7086" opacity="1.000000" stroke="none" 
	d="
M74.997421,79.455986 
	C74.837357,79.876831 74.672806,79.991745 74.254448,80.270386 
	C74.080963,79.720856 74.161278,79.007591 74.558151,78.110886 
	C74.914116,78.334984 74.953522,78.742523 74.997421,79.455986 
z"/>
<path fill="#EF7D8C" opacity="1.000000" stroke="none" 
	d="
M47.880589,76.143158 
	C48.100903,76.460030 47.982525,76.734161 47.594810,77.080132 
	C47.176296,77.013428 46.961796,76.846703 46.747299,76.679977 
	C47.033939,76.496185 47.320580,76.312393 47.880589,76.143158 
z"/>
<path fill="#DF002F" opacity="1.000000" stroke="none" 
	d="
M78.627899,81.136963 
	C78.977325,81.132912 79.048065,81.498459 79.066589,81.682640 
	C78.373695,82.186577 77.662277,82.506340 76.652214,82.724457 
	C76.216179,82.358887 76.125427,82.079788 76.050476,81.565353 
	C76.155075,81.243759 76.290527,81.142326 76.666473,80.959465 
	C77.364136,80.965706 77.821304,81.053368 78.627899,81.136963 
z"/>
<path fill="#E8B786" opacity="1.000000" stroke="none" 
	d="
M42.949551,87.722267 
	C42.762341,87.775894 42.466171,87.565659 42.042122,87.107010 
	C42.223026,87.058525 42.531807,87.258461 42.949551,87.722267 
z"/>
<path fill="#EA1507" opacity="1.000000" stroke="none" 
	d="
M95.177353,42.727158 
	C94.369652,43.363754 93.578720,43.681324 92.399612,43.582687 
	C90.027412,42.105747 88.043388,41.045017 86.059357,39.984283 
	C84.455208,38.865257 82.851059,37.746231 81.078918,36.332539 
	C86.943970,33.624596 94.311943,36.910686 95.177353,42.727158 
z"/>
<path fill="#F3DC77" opacity="1.000000" stroke="none" 
	d="
M77.281631,36.983452 
	C77.298340,36.532703 77.652023,36.098774 78.180939,35.444206 
	C78.544022,35.654861 78.731880,36.086155 78.943268,36.761303 
	C78.517403,37.003529 78.067993,37.001900 77.281631,36.983452 
z"/>
<path fill="#F3DC77" opacity="1.000000" stroke="none" 
	d="
M74.000412,48.019577 
	C73.279259,48.861973 72.558113,49.704372 71.848145,50.533710 
	C69.562187,47.909138 69.562187,47.909138 74.435944,46.364410 
	C74.932121,47.063416 74.955940,47.510738 74.733688,47.949417 
	C74.487617,47.940773 74.000412,48.019577 74.000412,48.019577 
z"/>
<path fill="#EB2A51" opacity="1.000000" stroke="none" 
	d="
M79.005142,47.230671 
	C78.576462,47.894474 78.147774,48.558281 77.176529,49.130875 
	C76.460182,48.993572 76.286400,48.947475 76.173668,48.584320 
	C75.821075,47.485497 75.407433,46.703735 74.993790,45.921970 
	C75.300102,45.696949 75.606407,45.471928 76.470078,45.366989 
	C77.336113,45.757782 77.644798,46.028492 78.362671,46.564709 
	C78.771858,46.830212 79.005142,47.230671 79.005142,47.230671 
z"/>
<path fill="#F4ACBB" opacity="1.000000" stroke="none" 
	d="
M74.907715,45.938667 
	C75.407433,46.703735 75.821075,47.485497 75.902481,48.643326 
	C75.385262,49.016319 75.200279,49.013245 75.072464,48.744915 
	C75.079674,48.305794 75.029716,48.131927 74.979752,47.958065 
	C74.955940,47.510738 74.932121,47.063416 74.778946,46.302711 
	C74.649582,45.989334 74.821632,45.955368 74.907715,45.938667 
z"/>
<path fill="#FDF0F4" opacity="1.000000" stroke="none" 
	d="
M75.015297,49.010174 
	C75.200279,49.013245 75.385262,49.016319 75.841431,48.960384 
	C76.286400,48.947475 76.460182,48.993572 76.852989,49.200768 
	C76.891861,49.612881 76.669487,49.818150 76.202789,50.084721 
	C75.431694,49.963013 74.862701,49.734261 74.389076,49.302261 
	C74.661392,49.069397 74.838348,49.039787 75.015297,49.010174 
z"/>
<path fill="#EB2A51" opacity="1.000000" stroke="none" 
	d="
M75.072464,48.744915 
	C74.838348,49.039787 74.661392,49.069397 74.220184,49.042786 
	C73.955925,48.986561 73.951355,48.501438 73.975883,48.260506 
	C74.000412,48.019577 74.487617,47.940773 74.733688,47.949417 
	C75.029716,48.131927 75.079674,48.305794 75.072464,48.744915 
z"/>
<path fill="#EEB53F" opacity="1.000000" stroke="none" 
	d="
M85.731628,40.126030 
	C88.043388,41.045017 90.027412,42.105747 92.052078,43.545666 
	C90.626984,44.947643 89.161255,45.970432 87.338249,47.022430 
	C83.664314,47.788799 83.154594,44.936565 82.287476,42.981647 
	C82.122963,42.610767 84.304718,41.199177 85.731628,40.126030 
z"/>
<path fill="#7AC137" opacity="1.000000" stroke="none" 
	d="
M70.331192,36.362457 
	C72.073631,36.113609 73.924515,36.187393 75.984848,36.610558 
	C74.276070,36.868320 72.357857,36.776707 70.331192,36.362457 
z"/>
<path fill="#F08592" opacity="1.000000" stroke="none" 
	d="
M79.266632,47.086193 
	C79.005142,47.230671 78.771858,46.830212 78.671906,46.623127 
	C78.821068,46.277657 79.070183,46.139267 79.747086,45.977077 
	C79.959290,46.282757 79.743698,46.612236 79.266632,47.086193 
z"/>
<path fill="#F1E473" opacity="1.000000" stroke="none" 
	d="
M90.014771,61.944748 
	C90.165871,61.731415 90.280083,61.529144 90.394295,61.326870 
	C90.403519,61.497803 90.412743,61.668732 90.228455,61.867722 
	C90.034943,61.895782 89.977890,61.955803 90.014771,61.944748 
z"/>
<path fill="#F1E473" opacity="1.000000" stroke="none" 
	d="
M38.935406,54.941528 
	C41.008446,55.439617 43.143707,55.988701 45.278973,56.537785 
	C44.990368,57.289104 44.701763,58.040424 44.413158,58.791744 
	C42.608368,57.754345 40.803577,56.716946 38.944450,55.275696 
	C38.890118,54.871849 38.997631,54.992523 38.935406,54.941528 
z"/>
</svg>