<svg version="1.1" id="Layer_1" xmlns="http://www.w3.org/2000/svg" xmlns:xlink="http://www.w3.org/1999/xlink" x="0px" y="0px"
	 width="100%" viewBox="0 0 225 225" enable-background="new 0 0 225 225" xml:space="preserve">
<path fill="#FEFEFE" opacity="1.000000" stroke="none" 
	d="
M1.000000,108.000000 
	C1.000000,72.369820 1.000000,36.739635 1.000000,1.054727 
	C75.886757,1.054727 150.773575,1.054727 226.000000,1.054727 
	C226.000000,32.686752 226.000000,64.374718 225.666443,96.427765 
	C222.712387,90.615685 217.107742,89.647934 211.433533,88.969925 
	C206.828949,88.419731 202.378830,88.149193 199.605713,83.333839 
	C198.455170,81.335983 195.996307,79.933662 193.886383,78.671967 
	C180.753174,70.818626 167.257950,72.092812 153.653152,77.320656 
	C151.898727,77.994827 150.130615,78.633331 148.470444,79.250580 
	C149.108902,76.161491 149.659409,73.635155 150.148193,71.096924 
	C150.708694,68.186295 151.569061,65.270500 151.613510,62.346523 
	C151.641052,60.535442 150.916382,58.082500 149.623306,56.995380 
	C145.031891,53.135262 138.046265,54.552212 132.945496,59.304054 
	C129.599960,62.420715 125.635025,64.872475 121.001534,68.327347 
	C121.001534,66.098137 120.892220,65.607582 121.018883,65.188324 
	C122.006943,61.917755 123.205635,57.961571 119.505447,56.304996 
	C116.349945,54.892277 112.216522,54.688961 108.737816,55.273170 
	C105.811646,55.764584 103.236671,58.219143 100.450066,59.698891 
	C95.932991,62.097557 93.561920,65.712997 93.419083,70.904007 
	C93.382675,72.227013 92.470802,73.525925 91.477234,76.079842 
	C89.881721,66.921646 86.836876,63.897732 78.757263,63.415527 
	C70.605797,62.929043 62.375767,64.346794 54.252186,62.490944 
	C53.522839,62.324326 52.644802,62.814003 51.834759,62.994106 
	C49.882832,63.428085 47.949612,64.058037 45.973953,64.250198 
	C41.842678,64.652039 37.520699,64.208946 33.598213,65.284340 
	C30.527212,66.126289 27.334854,68.237518 25.319921,70.702995 
	C23.561037,72.855171 22.516960,73.871109 19.510771,73.640388 
	C13.631579,73.189148 10.714334,76.912079 12.308752,81.908607 
	C8.505837,85.535141 8.415694,92.007080 12.440195,95.459793 
	C15.482818,98.070122 13.981519,99.486557 11.592383,101.040596 
	C8.050995,103.344109 4.529795,105.678665 1.000000,108.000000 
z"/>
<path fill="#FEFEFE" opacity="1.000000" stroke="none" 
	d="
M226.000000,100.000000 
	C226.000000,141.959930 226.000000,183.919876 226.000000,225.939911 
	C151.111649,225.939911 76.223236,225.939911 1.000000,225.939911 
	C1.000000,190.313141 1.000000,154.625229 1.335797,118.637848 
	C4.587255,124.049736 6.772645,130.320160 10.606778,135.328339 
	C15.211367,141.342896 20.935951,146.612839 26.711632,151.582138 
	C31.288977,155.520401 36.298622,159.373352 41.769123,161.780731 
	C60.664959,170.096130 80.979370,171.827316 101.269028,172.620041 
	C127.489761,173.644501 153.476303,171.785065 178.459854,162.780655 
	C187.864471,159.391068 195.786972,153.555435 202.506073,146.302521 
	C213.382080,134.562454 220.188049,120.689552 223.107773,104.893166 
	C223.431137,103.143684 225.005722,101.625473 226.000000,100.000000 
z"/>
<path fill="#100F0C" opacity="1.000000" stroke="none" 
	d="
M226.000000,99.625000 
	C225.005722,101.625473 223.431137,103.143684 223.107773,104.893166 
	C220.188049,120.689552 213.382080,134.562454 202.506073,146.302521 
	C195.786972,153.555435 187.864471,159.391068 178.459854,162.780655 
	C153.476303,171.785065 127.489761,173.644501 101.269028,172.620041 
	C80.979370,171.827316 60.664959,170.096130 41.769123,161.780731 
	C36.298622,159.373352 31.288977,155.520401 26.711632,151.582138 
	C20.935951,146.612839 15.211367,141.342896 10.606778,135.328339 
	C6.772645,130.320160 4.587255,124.049736 1.335797,118.169189 
	C1.000000,114.969406 1.000000,111.938812 1.000000,108.454109 
	C4.529795,105.678665 8.050995,103.344109 11.592383,101.040596 
	C13.981519,99.486557 15.482818,98.070122 12.440195,95.459793 
	C8.415694,92.007080 8.505837,85.535141 12.308752,81.908607 
	C10.714334,76.912079 13.631579,73.189148 19.510771,73.640388 
	C22.516960,73.871109 23.561037,72.855171 25.319921,70.702995 
	C27.334854,68.237518 30.527212,66.126289 33.598213,65.284340 
	C37.520699,64.208946 41.842678,64.652039 45.973953,64.250198 
	C47.949612,64.058037 49.882832,63.428085 51.834759,62.994106 
	C52.644802,62.814003 53.522839,62.324326 54.252186,62.490944 
	C62.375767,64.346794 70.605797,62.929043 78.757263,63.415527 
	C86.836876,63.897732 89.881721,66.921646 91.477234,76.079842 
	C92.470802,73.525925 93.382675,72.227013 93.419083,70.904007 
	C93.561920,65.712997 95.932991,62.097557 100.450066,59.698891 
	C103.236671,58.219143 105.811646,55.764584 108.737816,55.273170 
	C112.216522,54.688961 116.349945,54.892277 119.505447,56.304996 
	C123.205635,57.961571 122.006943,61.917755 121.018883,65.188324 
	C120.892220,65.607582 121.001534,66.098137 121.001534,68.327347 
	C125.635025,64.872475 129.599960,62.420715 132.945496,59.304054 
	C138.046265,54.552212 145.031891,53.135262 149.623306,56.995380 
	C150.916382,58.082500 151.641052,60.535442 151.613510,62.346523 
	C151.569061,65.270500 150.708694,68.186295 150.148193,71.096924 
	C149.659409,73.635155 149.108902,76.161491 148.470444,79.250580 
	C150.130615,78.633331 151.898727,77.994827 153.653152,77.320656 
	C167.257950,72.092812 180.753174,70.818626 193.886383,78.671967 
	C195.996307,79.933662 198.455170,81.335983 199.605713,83.333839 
	C202.378830,88.149193 206.828949,88.419731 211.433533,88.969925 
	C217.107742,89.647934 222.712387,90.615685 225.666443,96.896423 
	C226.000000,97.750000 226.000000,98.500000 226.000000,99.625000 
M207.382812,100.396942 
	C207.657578,100.182358 207.932343,99.967773 208.996124,99.853477 
	C210.615616,100.164780 212.305450,100.909492 213.834137,100.661362 
	C215.265533,100.429039 216.848999,99.394783 217.746872,98.234634 
	C218.331390,97.479362 218.284988,95.533302 217.698654,94.698311 
	C215.397507,91.421272 204.060501,90.559242 200.261520,92.792297 
	C196.891464,85.964485 191.929657,80.944641 184.439987,78.737915 
	C170.728912,74.698112 158.384262,77.989395 146.746185,85.542694 
	C143.377243,87.729195 141.432724,90.402954 141.972687,95.478386 
	C141.897125,95.781807 141.821564,96.085228 141.258713,95.835541 
	C137.770432,89.519516 136.821793,83.745644 142.974121,78.025444 
	C144.809296,76.319176 144.687637,72.433975 145.299606,69.512978 
	C145.694687,67.627319 145.825439,65.682724 146.014755,63.758640 
	C146.163345,62.248650 146.758850,59.691628 146.216278,59.410042 
	C144.614929,58.578964 142.368042,58.035789 140.708557,58.522205 
	C138.770874,59.090164 137.216461,60.908203 135.442642,62.105137 
	C132.081314,64.373276 128.872925,66.989365 125.243248,68.703247 
	C121.834030,70.313026 120.384499,72.388840 120.332283,75.833748 
	C116.416939,72.480888 115.061378,68.674637 116.781685,63.428883 
	C118.316811,58.747845 115.963142,55.630337 112.389618,57.276783 
	C107.287224,59.627636 100.807007,62.615017 98.778915,67.083954 
	C96.301155,72.543716 92.847168,77.095909 89.261566,81.719498 
	C87.822517,80.827271 86.447601,79.797455 84.923759,79.087135 
	C83.742683,78.536583 82.375443,78.385368 81.763916,77.881142 
	C83.206947,75.644104 84.649979,73.407074 86.093002,71.170036 
	C83.681633,69.659546 81.225204,66.855255 78.869308,66.937317 
	C75.199989,67.065140 71.598961,69.153091 67.490845,69.880379 
	C67.318054,68.610008 67.145256,67.339645 66.972458,66.069275 
	C65.541443,66.478447 63.629436,66.446236 62.771450,67.381233 
	C60.393692,69.972427 58.744583,69.674057 56.954594,66.906929 
	C56.490631,66.189697 55.583023,65.759445 54.311218,64.743782 
	C52.747955,72.111046 49.075981,68.422676 45.504898,66.474838 
	C45.300003,67.971550 45.156124,69.022552 44.269421,69.831772 
	C40.264256,66.416878 35.910282,67.291840 31.744726,69.185715 
	C27.633913,71.054703 30.048288,74.573616 30.160881,77.479240 
	C30.179636,77.963295 30.043470,78.453362 29.351919,78.698776 
	C28.845510,77.564621 28.339102,76.430466 28.100981,75.897163 
	C23.402155,76.390854 19.428505,76.808350 15.092161,77.263947 
	C15.930711,79.770233 16.426325,81.251534 16.881104,82.610794 
	C15.395144,83.886307 14.166630,84.940842 13.202329,85.768578 
	C13.928486,88.517250 14.552620,90.879745 15.258344,93.551079 
	C16.927351,94.038651 18.921696,94.621269 21.635021,95.413918 
	C14.360579,101.751183 23.297686,100.396332 23.750954,102.503304 
	C24.573359,101.947098 25.289177,101.462975 26.251295,101.669357 
	C28.923069,103.281296 31.594843,104.893234 33.284081,106.469589 
	C31.640001,107.006119 29.995922,107.542656 27.570404,108.159416 
	C25.773512,106.852272 23.992315,104.585060 22.174541,104.555344 
	C20.828707,104.533348 19.435291,107.422173 17.500643,108.677017 
	C17.268892,108.309883 17.037144,107.942757 16.870861,106.872223 
	C17.215021,105.749321 17.559181,104.626427 17.903341,103.503525 
	C17.533159,103.125908 17.162977,102.748299 16.792795,102.370682 
	C13.048473,104.748314 9.304152,107.125946 5.234490,109.710167 
	C8.551044,113.561577 11.273082,115.134956 15.702042,113.001564 
	C16.152103,113.000740 16.602167,112.999916 17.230265,113.451965 
	C17.343012,113.769653 17.350788,114.089882 17.029943,115.024734 
	C16.698462,115.580086 16.366978,116.135437 15.295793,116.630981 
	C12.932821,116.144119 10.569849,115.657257 8.206878,115.170395 
	C7.779273,115.506111 7.351669,115.841827 6.924065,116.177536 
	C9.105387,120.479012 10.773303,125.150223 13.558128,129.017075 
	C24.788881,144.611374 40.147743,155.359192 57.900215,161.622391 
	C81.738251,170.032623 106.750916,170.582764 131.836426,169.088455 
	C158.997025,167.470535 184.042175,160.996277 203.197449,139.930969 
	C204.965500,137.986603 207.530182,136.385223 208.442825,134.110214 
	C212.476440,124.055367 216.040939,113.812309 219.775284,103.637390 
	C219.261505,103.215797 218.747726,102.794197 218.233948,102.372604 
	C214.272400,103.790749 210.310867,105.208893 206.511749,105.909782 
	C206.701035,105.257278 206.726120,104.164124 207.105835,104.022598 
	C209.923569,102.972496 208.537003,101.955841 207.382812,100.396942 
M90.037651,75.399643 
	C90.264069,75.467476 90.490494,75.535309 90.716911,75.603134 
	C90.638832,75.390892 90.560745,75.178658 90.037651,75.399643 
z"/>
<path fill="#DFBF90" opacity="1.000000" stroke="none" 
	d="
M206.349319,106.627045 
	C210.310867,105.208893 214.272400,103.790749 218.233948,102.372604 
	C218.747726,102.794197 219.261505,103.215797 219.775284,103.637390 
	C216.040939,113.812309 212.476440,124.055367 208.442825,134.110214 
	C207.530182,136.385223 204.965500,137.986603 203.197449,139.930969 
	C184.042175,160.996277 158.997025,167.470535 131.836426,169.088455 
	C106.750916,170.582764 81.738251,170.032623 57.900215,161.622391 
	C40.147743,155.359192 24.788881,144.611374 13.558128,129.017075 
	C10.773303,125.150223 9.105387,120.479012 6.924065,116.177536 
	C7.351669,115.841827 7.779273,115.506111 8.206878,115.170395 
	C10.569849,115.657257 12.932821,116.144119 16.043530,116.798660 
	C18.391520,117.040565 19.991770,117.114792 21.933491,117.443314 
	C29.853575,118.119293 37.432190,118.540970 45.445290,119.072495 
	C59.242321,119.302040 72.604866,119.421730 86.419243,119.677628 
	C96.915596,119.482758 106.960129,119.151672 117.458832,118.889282 
	C135.274277,117.301590 152.635529,115.645210 170.431946,114.040604 
	C176.583649,112.945312 182.300171,111.798264 188.403656,110.675133 
	C194.321579,109.441116 199.852524,108.183182 205.473831,106.811859 
	C205.564178,106.698463 205.954178,106.585007 205.954178,106.585007 
	C205.954178,106.585007 206.349319,106.627045 206.349319,106.627045 
z"/>
<path fill="#B8EA57" opacity="1.000000" stroke="none" 
	d="
M29.978895,78.940651 
	C30.043470,78.453362 30.179636,77.963295 30.160881,77.479240 
	C30.048288,74.573616 27.633913,71.054703 31.744726,69.185715 
	C35.910282,67.291840 40.264256,66.416878 44.680824,70.302643 
	C47.508663,75.412392 50.168758,79.623711 56.859383,77.350151 
	C55.163776,76.081680 53.686905,74.976837 52.769894,74.290833 
	C57.872650,72.988052 62.920822,71.699211 67.968994,70.410355 
	C71.598961,69.153091 75.199989,67.065140 78.869308,66.937317 
	C81.225204,66.855255 83.681633,69.659546 86.093002,71.170036 
	C84.649979,73.407074 83.206947,75.644104 81.151215,77.746712 
	C80.685959,74.993217 80.833405,72.374161 80.980850,69.755096 
	C80.569687,69.706352 80.158516,69.657608 79.747345,69.608856 
	C78.885071,72.781342 78.022789,75.953827 77.160507,79.126312 
	C78.172607,78.237015 79.184700,77.347725 80.196793,76.458435 
	C81.789566,79.636421 83.382339,82.814407 85.092056,86.319733 
	C87.093964,89.458862 90.880508,91.715950 87.952377,95.966362 
	C87.984581,95.991554 87.963043,95.912674 87.636543,95.853012 
	C86.885048,96.200417 86.460045,96.607483 85.869873,97.275986 
	C84.465141,98.595337 83.225578,99.653244 81.598068,100.920059 
	C81.210121,103.816933 81.210121,106.504898 81.210121,109.787979 
	C85.308647,109.141693 88.632515,108.617561 92.064377,108.450912 
	C93.029778,110.553505 93.887169,112.298615 94.919006,114.364952 
	C96.045570,115.366333 96.997688,116.046486 97.949806,116.726639 
	C97.859474,117.201378 97.769135,117.676125 97.678795,118.150864 
	C93.779152,118.150864 89.879501,118.150864 85.640457,118.056503 
	C84.225632,117.585976 83.150185,117.209816 81.926025,116.542114 
	C77.274017,111.460869 72.915367,106.523186 68.218063,101.931976 
	C64.929619,98.717812 61.939472,93.157097 56.102791,98.746567 
	C55.594238,99.233589 54.189606,98.784897 53.014587,98.494209 
	C51.719204,96.792717 50.687485,95.299095 49.488110,93.955086 
	C44.705021,88.595200 41.049412,88.820679 35.542255,95.927193 
	C40.980042,100.873734 46.566177,105.955215 52.064758,111.389305 
	C50.984501,112.089279 49.991798,112.436646 48.792297,112.515228 
	C43.812538,110.332695 39.039577,108.418938 34.266617,106.505173 
	C31.594843,104.893234 28.923069,103.281296 26.162605,100.969574 
	C28.371738,96.456017 27.256927,93.807320 23.508694,91.654205 
	C21.778816,90.660500 20.466286,88.940269 18.113953,86.761703 
	C20.212524,85.734734 21.752514,84.369308 23.322199,84.334267 
	C27.149763,84.248825 29.335543,82.689201 29.978895,78.940651 
z"/>
<path fill="#486D02" opacity="1.000000" stroke="none" 
	d="
M81.986015,100.711151 
	C83.225578,99.653244 84.465141,98.595337 86.192024,97.288246 
	C87.107246,96.663597 87.535141,96.288132 87.963043,95.912674 
	C87.963043,95.912674 87.984581,95.991554 88.343658,96.018120 
	C93.629135,92.566185 89.458534,88.751045 89.150269,84.759293 
	C89.426666,83.655800 89.661400,82.870293 89.896141,82.084785 
	C92.847168,77.095909 96.301155,72.543716 98.778915,67.083954 
	C100.807007,62.615017 107.287224,59.627636 112.389618,57.276783 
	C115.963142,55.630337 118.316811,58.747845 116.781685,63.428883 
	C115.061378,68.674637 116.416939,72.480888 120.665565,75.915070 
	C120.998848,75.996391 120.987160,75.981194 120.932251,76.385590 
	C119.928825,79.717293 119.621605,83.119858 117.885040,85.463158 
	C115.116180,89.199440 115.140594,92.253082 116.967171,96.402306 
	C120.675644,104.826408 121.946503,103.827271 114.430939,110.058380 
	C114.186844,110.260773 114.052261,110.595261 113.637527,110.984138 
	C113.270363,111.399254 113.132309,111.698402 112.649048,112.059586 
	C111.413544,113.266319 110.741768,114.776131 109.581848,115.470299 
	C107.834724,116.515900 105.630226,117.727295 103.844574,117.445595 
	C102.689125,117.263313 101.346077,114.620277 101.124756,112.943008 
	C100.693092,109.671471 100.987625,106.303879 100.984909,102.976059 
	C100.982391,99.878784 100.984375,96.781509 100.984375,93.684235 
	C100.276192,93.702545 99.568016,93.720856 98.859833,93.739166 
	C98.859833,99.149780 98.760681,104.562912 98.898552,109.970009 
	C98.976181,113.014641 97.678329,114.264465 94.744568,114.043716 
	C93.887169,112.298615 93.029778,110.553505 91.983505,108.102997 
	C90.996765,107.004906 90.033073,106.102394 89.427048,106.299507 
	C84.173790,108.008224 82.830528,104.737656 81.986015,100.711151 
z"/>
<path fill="#476C02" opacity="1.000000" stroke="none" 
	d="
M121.004814,76.003967 
	C120.384499,72.388840 121.834030,70.313026 125.243248,68.703247 
	C128.872925,66.989365 132.081314,64.373276 135.442642,62.105137 
	C137.216461,60.908203 138.770874,59.090164 140.708557,58.522205 
	C142.368042,58.035789 144.614929,58.578964 146.216278,59.410042 
	C146.758850,59.691628 146.163345,62.248650 146.014755,63.758640 
	C145.825439,65.682724 145.694687,67.627319 145.299606,69.512978 
	C144.687637,72.433975 144.809296,76.319176 142.974121,78.025444 
	C136.821793,83.745644 137.770432,89.519516 141.533386,96.488708 
	C141.926865,101.975716 135.597702,112.973053 131.155090,114.144447 
	C128.157532,114.934807 124.573578,118.159454 121.633049,113.627960 
	C123.496742,105.126129 125.179184,97.011887 126.861626,88.897652 
	C126.405647,88.815430 125.949661,88.733208 125.493683,88.650993 
	C124.523087,92.376534 123.552490,96.102074 122.492104,100.172264 
	C116.805489,94.923988 116.528343,92.151123 119.834190,86.432487 
	C121.670677,83.255630 125.237007,79.956604 120.987160,75.981194 
	C120.987160,75.981194 120.998848,75.996391 121.004814,76.003967 
z"/>
<path fill="#EB0D0D" opacity="1.000000" stroke="none" 
	d="
M142.141541,94.555641 
	C141.432724,90.402954 143.377243,87.729195 146.746185,85.542694 
	C158.384262,77.989395 170.728912,74.698112 184.439987,78.737915 
	C191.929657,80.944641 196.891464,85.964485 200.628418,93.317421 
	C201.336349,94.897743 201.677368,95.952950 201.569092,97.016457 
	C198.728546,96.952881 196.337326,96.880997 193.935699,96.510071 
	C193.616165,92.537209 191.325378,91.390915 188.130051,92.174141 
	C183.706268,93.258469 183.461517,91.706993 185.102310,88.217079 
	C185.590637,87.178459 185.866180,85.096626 185.345139,84.715691 
	C184.121124,83.820808 182.122162,82.976364 180.877991,83.401764 
	C179.627441,83.829361 179.078796,85.997849 177.921494,87.082054 
	C176.123856,88.766159 174.071182,90.178024 172.126617,91.705284 
	C171.418182,89.753738 170.196640,87.822754 170.117416,85.845993 
	C169.987396,82.600578 167.987625,81.483490 165.647369,81.985176 
	C163.926636,82.354065 162.313995,84.207680 161.141159,85.766739 
	C160.487427,86.635765 160.831314,88.255280 160.663742,90.286850 
	C157.863174,89.989456 155.295547,89.961586 152.853378,89.393967 
	C149.959534,88.721367 147.650909,88.824234 146.055496,92.369995 
	C149.475067,93.984810 152.798126,95.554062 156.840347,97.462929 
	C154.708832,99.098778 153.555267,99.984093 152.022552,100.896042 
	C149.175217,102.460754 146.707016,103.998840 144.503021,105.372276 
	C143.548401,100.999695 142.844971,97.777672 142.141541,94.555641 
z"/>
<path fill="#100D09" opacity="1.000000" stroke="none" 
	d="
M142.057114,95.017014 
	C142.844971,97.777672 143.548401,100.999695 144.503021,105.372276 
	C146.707016,103.998840 149.175217,102.460754 151.950409,101.217430 
	C153.243225,102.300835 154.229050,103.089470 155.091614,104.240067 
	C155.031586,105.360527 155.094818,106.119034 154.742249,106.881424 
	C145.163742,104.373932 139.651611,107.555656 140.455429,115.641251 
	C147.544357,114.814751 154.642517,114.034348 161.716812,113.077530 
	C162.316544,112.996414 162.756821,111.736389 163.599457,111.041077 
	C165.505173,111.593430 167.082626,112.128769 168.936890,112.827026 
	C169.474747,113.322899 169.735764,113.655869 169.996796,113.988838 
	C152.635529,115.645210 135.274277,117.301590 117.465004,118.621925 
	C117.016968,117.929337 117.016937,117.572784 117.321350,117.094788 
	C118.438858,115.983627 119.251930,114.993935 120.298813,114.004402 
	C120.839088,114.002693 121.145477,114.006348 121.451797,114.015549 
	C124.573578,118.159454 128.157532,114.934807 131.155090,114.144447 
	C135.597702,112.973053 141.926865,101.975716 141.777023,96.765259 
	C141.821564,96.085228 141.897125,95.781807 142.057114,95.017014 
z"/>
<path fill="#9ED03F" opacity="1.000000" stroke="none" 
	d="
M29.665407,78.819717 
	C29.335543,82.689201 27.149763,84.248825 23.322199,84.334267 
	C21.752514,84.369308 20.212524,85.734734 18.113953,86.761703 
	C20.466286,88.940269 21.778816,90.660500 23.508694,91.654205 
	C27.256927,93.807320 28.371738,96.456017 26.039455,100.624321 
	C25.289177,101.462975 24.573359,101.947098 23.750954,102.503304 
	C23.297686,100.396332 14.360579,101.751183 21.635021,95.413918 
	C18.921696,94.621269 16.927351,94.038651 15.258344,93.551079 
	C14.552620,90.879745 13.928486,88.517250 13.202329,85.768578 
	C14.166630,84.940842 15.395144,83.886307 16.881104,82.610794 
	C16.426325,81.251534 15.930711,79.770233 15.092161,77.263947 
	C19.428505,76.808350 23.402155,76.390854 28.100981,75.897163 
	C28.339102,76.430466 28.845510,77.564621 29.665407,78.819717 
z"/>
<path fill="#A1D340" opacity="1.000000" stroke="none" 
	d="
M17.253593,114.412666 
	C17.350788,114.089882 17.343012,113.769653 17.251125,112.896439 
	C17.535683,111.232025 17.799377,110.123146 18.063072,109.014267 
	C19.435291,107.422173 20.828707,104.533348 22.174541,104.555344 
	C23.992315,104.585060 25.773512,106.852272 28.219233,108.310455 
	C33.171886,110.989677 37.475708,113.517868 41.505562,116.330818 
	C35.834457,116.739807 30.437319,116.864029 24.837280,116.658661 
	C22.174116,115.690262 19.713854,115.051468 17.253593,114.412666 
z"/>
<path fill="#95C53C" opacity="1.000000" stroke="none" 
	d="
M67.729919,70.145370 
	C62.920822,71.699211 57.872650,72.988052 52.769894,74.290833 
	C53.686905,74.976837 55.163776,76.081680 56.859383,77.350151 
	C50.168758,79.623711 47.508663,75.412392 45.052238,70.423538 
	C45.156124,69.022552 45.300003,67.971550 45.504898,66.474838 
	C49.075981,68.422676 52.747955,72.111046 54.311218,64.743782 
	C55.583023,65.759445 56.490631,66.189697 56.954594,66.906929 
	C58.744583,69.674057 60.393692,69.972427 62.771450,67.381233 
	C63.629436,66.446236 65.541443,66.478447 66.972458,66.069275 
	C67.145256,67.339645 67.318054,68.610008 67.729919,70.145370 
z"/>
<path fill="#DD8C19" opacity="1.000000" stroke="none" 
	d="
M41.779533,116.046059 
	C37.475708,113.517868 33.171886,110.989677 28.609951,108.270340 
	C29.995922,107.542656 31.640001,107.006119 33.775349,106.487381 
	C39.039577,108.418938 43.812538,110.332695 48.816322,112.885239 
	C50.720066,114.555458 52.392990,115.586884 54.065910,116.618317 
	C53.913280,117.061882 53.760647,117.505447 53.608013,117.949013 
	C50.731987,117.949013 47.855957,117.949013 44.722706,117.775146 
	C43.570164,117.082878 42.674850,116.564468 41.779533,116.046059 
z"/>
<path fill="#C49A5F" opacity="1.000000" stroke="none" 
	d="
M202.018387,97.008163 
	C201.677368,95.952950 201.336349,94.897743 200.900146,93.524063 
	C204.060501,90.559242 215.397507,91.421272 217.698654,94.698311 
	C218.284988,95.533302 218.331390,97.479362 217.746872,98.234634 
	C216.848999,99.394783 215.265533,100.429039 213.834137,100.661362 
	C212.305450,100.909492 210.615616,100.164780 208.521210,99.445305 
	C206.037003,98.360809 204.027695,97.684486 202.018387,97.008163 
z"/>
<path fill="#C69B60" opacity="1.000000" stroke="none" 
	d="
M15.027039,113.009071 
	C11.273082,115.134956 8.551044,113.561577 5.234490,109.710167 
	C9.304152,107.125946 13.048473,104.748314 16.792795,102.370682 
	C17.162977,102.748299 17.533159,103.125908 17.903341,103.503525 
	C17.559181,104.626427 17.215021,105.749321 16.583485,107.490692 
	C15.873084,109.742470 15.450061,111.375771 15.027039,113.009071 
z"/>
<path fill="#9FD240" opacity="1.000000" stroke="none" 
	d="
M89.578857,81.902145 
	C89.661400,82.870293 89.426666,83.655800 88.959991,85.100510 
	C87.477074,85.837273 86.226097,85.914833 84.975113,85.992393 
	C83.382339,82.814407 81.789566,79.636421 80.196793,76.458435 
	C79.184700,77.347725 78.172607,78.237015 77.160507,79.126312 
	C78.022789,75.953827 78.885071,72.781342 79.747345,69.608856 
	C80.158516,69.657608 80.569687,69.706352 80.980850,69.755096 
	C80.833405,72.374161 80.685959,74.993217 80.814728,77.834457 
	C82.375443,78.385368 83.742683,78.536583 84.923759,79.087135 
	C86.447601,79.797455 87.822517,80.827271 89.578857,81.902145 
z"/>
<path fill="#E4E3E3" opacity="1.000000" stroke="none" 
	d="
M206.430542,106.268417 
	C206.349319,106.627045 205.954178,106.585007 205.954178,106.585007 
	C205.954178,106.585007 205.564178,106.698463 205.267242,106.436249 
	C201.372147,105.644005 197.106781,106.798912 195.157501,102.204880 
	C195.220398,102.146194 195.114380,102.008606 195.346176,101.718155 
	C199.449127,101.245834 203.320267,101.063972 207.191422,100.882103 
	C208.537003,101.955841 209.923569,102.972496 207.105835,104.022598 
	C206.726120,104.164124 206.701035,105.257278 206.430542,106.268417 
z"/>
<path fill="#B20631" opacity="1.000000" stroke="none" 
	d="
M207.287109,100.639526 
	C203.320267,101.063972 199.449127,101.245834 194.977936,101.686249 
	C192.916580,100.959595 191.455231,99.974380 190.277649,99.051224 
	C191.689636,98.345222 192.817856,97.577171 193.946091,96.809113 
	C196.337326,96.880997 198.728546,96.952881 201.569092,97.016464 
	C204.027695,97.684486 206.037003,98.360809 208.126709,99.395164 
	C207.932343,99.967773 207.657578,100.182358 207.287109,100.639526 
z"/>
<path fill="#151609" opacity="1.000000" stroke="none" 
	d="
M17.141769,114.718704 
	C19.713854,115.051468 22.174116,115.690262 24.405525,116.652779 
	C23.315123,117.047340 22.453571,117.118179 21.592022,117.189018 
	C19.991770,117.114792 18.391520,117.040565 16.413382,116.828568 
	C16.366978,116.135437 16.698462,115.580086 17.141769,114.718704 
z"/>
<path fill="#151609" opacity="1.000000" stroke="none" 
	d="
M15.364540,113.005318 
	C15.450061,111.375771 15.873084,109.742470 16.550751,107.842392 
	C17.037144,107.942757 17.268892,108.309883 17.781858,108.845642 
	C17.799377,110.123146 17.535683,111.232025 17.162107,112.669998 
	C16.602167,112.999916 16.152103,113.000740 15.364540,113.005318 
z"/>
<path fill="#FEFEFE" opacity="1.000000" stroke="none" 
	d="
M90.260162,75.183029 
	C90.560745,75.178658 90.638832,75.390892 90.716911,75.603134 
	C90.490494,75.535309 90.264069,75.467476 90.260162,75.183029 
z"/>
<path fill="#171C09" opacity="1.000000" stroke="none" 
	d="
M117.016907,117.216240 
	C117.016937,117.572784 117.016968,117.929337 117.010826,118.553238 
	C106.960129,119.151672 96.915596,119.482758 86.404549,119.445938 
	C85.968529,118.769722 85.982468,118.460663 85.979851,118.150864 
	C89.879501,118.150864 93.779152,118.150864 97.678795,118.150864 
	C97.769135,117.676125 97.859474,117.201378 97.949806,116.726639 
	C96.997688,116.046486 96.045570,115.366333 94.919006,114.364952 
	C97.678329,114.264465 98.976181,113.014641 98.898552,109.970009 
	C98.760681,104.562912 98.859833,99.149780 98.859833,93.739166 
	C99.568016,93.720856 100.276192,93.702545 100.984375,93.684235 
	C100.984375,96.781509 100.982391,99.878784 100.984909,102.976059 
	C100.987625,106.303879 100.693092,109.671471 101.124756,112.943008 
	C101.346077,114.620277 102.689125,117.263313 103.844574,117.445595 
	C105.630226,117.727295 107.834724,116.515900 109.581848,115.470299 
	C110.741768,114.776131 111.413544,113.266319 112.928551,112.059303 
	C113.739433,112.003235 113.925598,112.009491 113.922249,112.340881 
	C113.020569,113.812958 112.308395,114.959877 111.120880,116.872322 
	C113.684265,117.021843 115.350586,117.119041 117.016907,117.216240 
z"/>
<path fill="#030200" opacity="1.000000" stroke="none" 
	d="
M85.640457,118.056503 
	C85.982468,118.460663 85.968529,118.769722 85.952721,119.309723 
	C72.604866,119.421730 59.242321,119.302040 45.446217,118.818825 
	C45.001751,118.286537 44.990841,118.117775 44.979931,117.949013 
	C47.855957,117.949013 50.731987,117.949013 53.608013,117.949013 
	C53.760647,117.505447 53.913280,117.061882 54.065910,116.618317 
	C52.392990,115.586884 50.720066,114.555458 49.023117,113.154022 
	C49.991798,112.436646 50.984501,112.089279 52.414848,111.377808 
	C53.673584,111.521828 54.944698,111.843765 55.244186,112.567680 
	C57.529259,118.091026 62.047539,118.505409 67.047890,118.052223 
	C68.691071,117.903297 70.345818,117.881851 72.332886,117.705276 
	C73.376396,117.382278 74.074844,116.992256 74.789536,116.959785 
	C77.214836,116.849571 79.645889,116.865753 82.074745,116.833649 
	C83.150185,117.209816 84.225632,117.585976 85.640457,118.056503 
z"/>
<path fill="#211916" opacity="1.000000" stroke="none" 
	d="
M170.431946,114.040604 
	C169.735764,113.655869 169.474747,113.322899 169.244873,112.611336 
	C169.886688,110.988472 170.497360,109.744209 171.439377,108.709503 
	C174.125198,109.500076 176.486542,110.572777 178.832443,110.540047 
	C181.895447,110.497299 184.946259,109.579330 188.002090,109.306870 
	C188.006821,109.934273 188.011765,110.292740 188.016708,110.651215 
	C182.300171,111.798264 176.583649,112.945312 170.431946,114.040604 
z"/>
<path fill="#170D0D" opacity="1.000000" stroke="none" 
	d="
M188.403656,110.675133 
	C188.011765,110.292740 188.006821,109.934273 188.273972,109.138733 
	C189.229263,107.844223 189.912476,106.986786 190.981293,106.064697 
	C192.665253,106.284241 193.963593,106.568436 195.432541,106.889984 
	C195.294754,105.003647 195.194672,103.633598 195.094604,102.263557 
	C197.106781,106.798912 201.372147,105.644005 205.176910,106.549637 
	C199.852524,108.183182 194.321579,109.441116 188.403656,110.675133 
z"/>
<path fill="#2D281B" opacity="1.000000" stroke="none" 
	d="
M44.722706,117.775146 
	C44.990841,118.117775 45.001751,118.286537 45.011734,118.708969 
	C37.432190,118.540970 29.853575,118.119293 21.933491,117.443314 
	C22.453571,117.118179 23.315123,117.047340 24.608427,116.982376 
	C30.437319,116.864029 35.834457,116.739807 41.505562,116.330818 
	C42.674850,116.564468 43.570164,117.082878 44.722706,117.775146 
z"/>
<path fill="#EA941B" opacity="1.000000" stroke="none" 
	d="
M71.995270,117.802109 
	C70.345818,117.881851 68.691071,117.903297 67.047890,118.052223 
	C62.047539,118.505409 57.529259,118.091026 55.244186,112.567680 
	C54.944698,111.843765 53.673584,111.521828 52.502403,111.025208 
	C46.566177,105.955215 40.980042,100.873734 35.542255,95.927193 
	C41.049412,88.820679 44.705021,88.595200 49.488110,93.955086 
	C50.687485,95.299095 51.719204,96.792717 52.979805,98.824844 
	C55.971188,102.599510 58.265621,106.932182 61.811028,108.590729 
	C65.043556,110.102913 66.474716,110.962402 65.019485,115.015450 
	C68.717842,113.552895 71.502457,113.514000 71.995270,117.802109 
z"/>
<path fill="#E9931B" opacity="1.000000" stroke="none" 
	d="
M72.332886,117.705269 
	C71.502457,113.514000 68.717842,113.552895 65.019485,115.015450 
	C66.474716,110.962402 65.043556,110.102913 61.811028,108.590729 
	C58.265621,106.932182 55.971188,102.599510 53.166412,99.101471 
	C54.189606,98.784897 55.594238,99.233589 56.102791,98.746567 
	C61.939472,93.157097 64.929619,98.717812 68.218063,101.931976 
	C72.915367,106.523186 77.274017,111.460869 81.926025,116.542114 
	C79.645889,116.865753 77.214836,116.849571 74.789536,116.959785 
	C74.074844,116.992256 73.376396,117.382278 72.332886,117.705269 
z"/>
<path fill="#151D07" opacity="1.000000" stroke="none" 
	d="
M81.598068,100.920059 
	C82.830528,104.737656 84.173790,108.008224 89.427048,106.299507 
	C90.033073,106.102394 90.996765,107.004906 91.875504,107.745514 
	C88.632515,108.617561 85.308647,109.141693 81.210121,109.787979 
	C81.210121,106.504898 81.210121,103.816933 81.598068,100.920059 
z"/>
<path fill="#111804" opacity="1.000000" stroke="none" 
	d="
M85.092056,86.319725 
	C86.226097,85.914833 87.477074,85.837273 88.918320,85.418503 
	C89.458534,88.751045 93.629135,92.566185 88.311462,95.992928 
	C90.880508,91.715950 87.093964,89.458862 85.092056,86.319725 
z"/>
<path fill="#111804" opacity="1.000000" stroke="none" 
	d="
M87.636536,95.853012 
	C87.535141,96.288132 87.107246,96.663597 86.357193,97.026802 
	C86.460045,96.607483 86.885048,96.200417 87.636536,95.853012 
z"/>
<path fill="#0B1001" opacity="1.000000" stroke="none" 
	d="
M121.633049,113.627960 
	C121.145477,114.006348 120.839088,114.002693 120.293312,113.638809 
	C120.211884,111.864464 120.369774,110.455864 120.626030,108.169685 
	C117.932976,109.744064 116.278343,110.711372 114.435234,111.475311 
	C114.120049,111.137352 113.993340,111.002762 113.866623,110.868164 
	C114.052261,110.595261 114.186844,110.260773 114.430939,110.058380 
	C121.946503,103.827271 120.675644,104.826408 116.967171,96.402306 
	C115.140594,92.253082 115.116180,89.199440 117.885040,85.463158 
	C119.621605,83.119858 119.928825,79.717293 120.932251,76.385590 
	C125.237007,79.956604 121.670677,83.255630 119.834190,86.432487 
	C116.528343,92.151123 116.805489,94.923988 122.492104,100.172264 
	C123.552490,96.102074 124.523087,92.376534 125.493683,88.650993 
	C125.949661,88.733208 126.405647,88.815430 126.861626,88.897652 
	C125.179184,97.011887 123.496742,105.126129 121.633049,113.627960 
z"/>
<path fill="#0B1001" opacity="1.000000" stroke="none" 
	d="
M114.111755,112.015739 
	C113.925598,112.009491 113.739433,112.003235 113.273758,111.997269 
	C113.132309,111.698402 113.270363,111.399254 113.637520,110.984131 
	C113.993340,111.002762 114.120049,111.137352 114.331802,111.596832 
	C114.416840,111.921722 114.111755,112.015739 114.111755,112.015739 
z"/>
<path fill="#F03D3D" opacity="1.000000" stroke="none" 
	d="
M193.935699,96.510071 
	C192.817856,97.577171 191.689636,98.345222 189.915405,98.998764 
	C183.172028,96.101860 177.079315,97.294128 171.213287,99.406364 
	C169.167679,100.142937 167.665070,102.387589 165.464661,103.948746 
	C161.748169,103.928696 158.481522,103.903404 155.214859,103.878113 
	C154.229050,103.089470 153.243225,102.300835 152.329559,101.190804 
	C153.555267,99.984093 154.708832,99.098778 156.840347,97.462929 
	C152.798126,95.554062 149.475067,93.984810 146.055496,92.369995 
	C147.650909,88.824234 149.959534,88.721367 152.853378,89.393967 
	C155.295547,89.961586 157.863174,89.989456 160.663742,90.286850 
	C160.831314,88.255280 160.487427,86.635765 161.141159,85.766739 
	C162.313995,84.207680 163.926636,82.354065 165.647369,81.985176 
	C167.987625,81.483490 169.987396,82.600578 170.117416,85.845993 
	C170.196640,87.822754 171.418182,89.753738 172.126617,91.705284 
	C174.071182,90.178024 176.123856,88.766159 177.921494,87.082054 
	C179.078796,85.997849 179.627441,83.829361 180.877991,83.401764 
	C182.122162,82.976364 184.121124,83.820808 185.345139,84.715691 
	C185.866180,85.096626 185.590637,87.178459 185.102310,88.217079 
	C183.461517,91.706993 183.706268,93.258469 188.130051,92.174141 
	C191.325378,91.390915 193.616165,92.537209 193.935699,96.510071 
z"/>
<path fill="#EFEFEF" opacity="1.000000" stroke="none" 
	d="
M163.271194,111.024055 
	C162.756821,111.736389 162.316544,112.996414 161.716812,113.077530 
	C154.642517,114.034348 147.544357,114.814751 140.455429,115.641251 
	C139.651611,107.555656 145.163742,104.373932 155.095398,106.980751 
	C158.333313,108.392151 160.802246,109.708107 163.271194,111.024055 
z"/>
<path fill="#B3032F" opacity="1.000000" stroke="none" 
	d="
M163.599457,111.041077 
	C160.802246,109.708107 158.333313,108.392151 155.511215,106.976868 
	C155.094818,106.119034 155.031586,105.360527 155.091614,104.240067 
	C158.481522,103.903404 161.748169,103.928696 165.835205,104.116615 
	C167.938660,104.666382 169.221741,105.053513 170.419342,105.712769 
	C170.591919,106.823242 170.849976,107.661598 171.108032,108.499954 
	C170.497360,109.744209 169.886688,110.988472 168.968048,112.448425 
	C167.082626,112.128769 165.505173,111.593430 163.599457,111.041077 
z"/>
<path fill="#9FD23F" opacity="1.000000" stroke="none" 
	d="
M113.922249,112.340881 
	C114.111755,112.015739 114.416840,111.921722 114.520279,111.800201 
	C116.278343,110.711372 117.932976,109.744064 120.626030,108.169685 
	C120.369774,110.455864 120.211884,111.864464 120.059494,113.638641 
	C119.251930,114.993935 118.438858,115.983627 117.321350,117.094788 
	C115.350586,117.119041 113.684265,117.021843 111.120880,116.872322 
	C112.308395,114.959877 113.020569,113.812958 113.922249,112.340881 
z"/>
<path fill="#B60633" opacity="1.000000" stroke="none" 
	d="
M170.504837,105.440651 
	C169.221741,105.053513 167.938660,104.666382 166.285019,104.111389 
	C167.665070,102.387589 169.167679,100.142937 171.213287,99.406364 
	C177.079315,97.294128 183.172028,96.101860 189.631653,98.936722 
	C191.455231,99.974380 192.916580,100.959595 194.746155,101.976700 
	C195.114380,102.008606 195.220398,102.146194 195.157501,102.204880 
	C195.194672,103.633598 195.294754,105.003647 195.432541,106.889984 
	C193.963593,106.568436 192.665253,106.284241 190.649139,105.941452 
	C183.532135,102.385109 177.071045,101.603813 170.504837,105.440651 
z"/>
<path fill="#F0F0F0" opacity="1.000000" stroke="none" 
	d="
M170.419342,105.712769 
	C177.071045,101.603813 183.532135,102.385109 190.263519,106.006104 
	C189.912476,106.986786 189.229263,107.844223 188.274185,108.869797 
	C184.946259,109.579330 181.895447,110.497299 178.832443,110.540047 
	C176.486542,110.572777 174.125198,109.500076 171.439377,108.709503 
	C170.849976,107.661598 170.591919,106.823242 170.419342,105.712769 
z"/>
</svg>