<?xml version="1.0" standalone="no"?>
<!DOCTYPE svg PUBLIC "-//W3C//DTD SVG 20010904//EN"
 "http://www.w3.org/TR/2001/REC-SVG-20010904/DTD/svg10.dtd">
<svg version="1.0" xmlns="http://www.w3.org/2000/svg"
 width="560.000000pt" height="560.000000pt" viewBox="0 0 560.000000 560.000000"
 preserveAspectRatio="xMidYMid meet">

<g transform="translate(0.000000,560.000000) scale(0.100000,-0.100000)"
fill="#000000" stroke="none">
<path d="M4230 4391 c-119 -57 -166 -84 -168 -98 -2 -10 57 -145 131 -298 102
-215 137 -281 152 -282 24 -3 326 139 339 159 6 10 -31 98 -119 284 -129 274
-150 314 -163 314 -4 -1 -81 -36 -172 -79z m92 -88 c39 -35 5 -102 -46 -89
-40 10 -51 68 -18 94 22 16 42 15 64 -5z"/>
<path d="M2865 4055 l-380 -224 -347 0 -348 -1 0 -535 0 -534 82 -3 82 -3 26
-145 26 -145 35 1 c18 0 58 4 86 9 52 7 53 7 63 -21 60 -163 104 -264 113
-264 14 0 1639 630 1650 640 7 6 -227 627 -242 641 -3 4 -52 -1 -108 -9 l-103
-15 -2 -205 -3 -205 -44 -15 c-55 -18 -113 -76 -136 -136 l-18 -46 -618 0
c-552 0 -619 2 -619 15 0 23 -29 76 -59 108 -27 30 -70 56 -109 66 l-23 6 0
259 1 259 33 12 c19 6 49 22 67 35 36 26 90 104 90 132 0 17 29 18 618 18 611
0 618 0 689 23 59 18 71 25 63 37 -8 12 -46 16 -212 20 l-203 5 134 34 c146
37 138 37 252 -11 45 -19 80 -62 62 -78 -4 -4 -102 -38 -218 -74 -115 -37
-227 -79 -248 -92 -67 -44 -89 -143 -42 -189 13 -14 31 -25 40 -25 22 0 311
42 588 85 l218 35 222 95 c122 52 228 99 236 104 10 7 -11 61 -99 252 -62 134
-116 248 -120 253 -5 4 -28 -3 -52 -17 -23 -14 -66 -33 -94 -42 l-51 -16 -273
65 c-151 36 -285 66 -299 65 -15 0 -188 -96 -406 -224z m869 -850 l54 -140
-31 -26 -32 -27 -32 172 c-17 94 -32 178 -32 186 0 20 8 2 73 -165z m-95 -160
c1 -5 -13 -18 -29 -27 l-30 -17 1 177 1 177 28 -150 c16 -82 29 -154 29 -160z
m-430 -289 c-2 -2 -206 -41 -454 -86 -247 -44 -457 -83 -466 -86 -12 -3 -25 9
-42 39 -37 62 -122 117 -182 117 -13 0 -27 5 -30 10 -4 7 194 10 586 10 326 0
590 -2 588 -4z m210 -50 c-2 -2 -204 -81 -447 -176 l-444 -172 -29 35 c-39 48
-107 79 -176 81 -67 2 -82 21 -26 32 229 44 1093 202 1107 203 11 1 17 -1 15
-3z"/>
<path d="M2563 3624 c-63 -31 -117 -89 -152 -163 -23 -50 -26 -68 -26 -166 0
-98 3 -116 26 -165 56 -120 138 -180 253 -188 96 -6 157 20 225 94 98 107 137
320 65 352 -31 15 -58 75 -51 118 5 27 0 37 -31 67 -82 80 -210 101 -309 51z
m147 -98 c0 -8 11 -17 24 -20 30 -7 86 -70 86 -96 0 -30 -47 -26 -72 5 -30 38
-38 31 -38 -35 0 -58 1 -60 33 -74 80 -33 101 -117 47 -180 -17 -18 -41 -37
-55 -40 -14 -4 -25 -13 -25 -21 0 -10 -10 -15 -30 -15 -18 0 -30 5 -30 13 0 7
-16 21 -35 30 -34 16 -75 68 -75 95 0 7 13 12 33 12 24 0 35 -6 42 -22 21 -45
35 -32 35 31 0 61 0 61 -40 81 -41 21 -70 63 -70 102 0 36 36 87 75 105 19 9
35 23 35 30 0 8 12 13 30 13 19 0 30 -5 30 -14z"/>
<path d="M2622 3428 c-18 -18 -14 -53 8 -73 20 -18 20 -17 20 33 0 53 -6 62
-28 40z"/>
<path d="M2710 3195 c0 -49 8 -55 33 -27 20 22 22 43 5 60 -25 25 -38 13 -38
-33z"/>
<path d="M1545 2002 c-94 -48 -179 -92 -190 -98 -18 -11 -12 -26 95 -260 62
-137 116 -252 119 -256 3 -4 37 8 74 27 37 19 83 37 101 40 24 5 131 -18 389
-84 196 -50 368 -91 383 -91 28 0 88 31 449 227 271 148 340 192 394 247 39
40 45 51 49 100 5 63 -13 102 -51 111 -16 4 -130 -37 -362 -133 -187 -76 -362
-146 -388 -156 -47 -18 -57 -18 -235 -2 -103 10 -197 21 -209 26 -27 11 -30
38 -7 47 10 3 106 -2 215 -12 221 -21 234 -19 270 37 14 24 19 44 15 71 -8 68
-52 100 -174 123 -83 16 -748 124 -760 124 -4 0 -84 -40 -177 -88z"/>
<path d="M1090 1826 c-85 -40 -158 -80 -163 -88 -7 -10 29 -98 123 -301 73
-157 138 -291 145 -297 10 -8 55 8 176 65 90 41 170 82 177 89 12 12 -7 59
-121 307 -118 258 -138 294 -159 296 -12 1 -93 -31 -178 -71z m276 -461 c33
-50 -20 -104 -71 -71 -29 19 -32 51 -8 78 23 26 59 23 79 -7z"/>
</g>
</svg>
